0
SECTION
2
HEADER
9
$INSUNITS
70
4
9
$ACADVER
1
AC1014
9
$HANDSEED
5
FFFF
0
ENDSEC
0
SECTION
2
TABLES
0
TABLE
2
VPORT
5
8
100
AcDbSymbolTable
0
ENDTAB
0
TABLE
2
LTYPE
5
5
100
AcDbSymbolTable
0
LTYPE
5
14
100
AcDbSymbolTableRecord
100
AcDbLinetypeTableRecord
2
BYBLOCK
70
0
0
LTYPE
5
15
100
AcDbSymbolTableRecord
100
AcDbLinetypeTableRecord
2
BYLAYER
70
0
0
ENDTAB
0
TABLE
2
LAYER
5
2
100
AcDbSymbolTable
70
2
0
LAYER
5
50
100
AcDbSymbolTableRecord
100
AcDbLayerTableRecord
2
0
70
0
6
CONTINUOUS
0
ENDTAB
0
TABLE
2
STYLE
5
3
100
AcDbSymbolTable
70
1
0
STYLE
5
11
100
AcDbSymbolTableRecord
100
AcDbTextStyleTableRecord
2
STANDARD
70
0
0
ENDTAB
0
TABLE
2
VIEW
5
6
100
AcDbSymbolTable
70
0
0
ENDTAB
0
TABLE
2
UCS
5
7
100
AcDbSymbolTable
70
0
0
ENDTAB
0
TABLE
2
APPID
5
9
100
AcDbSymbolTable
70
2
0
APPID
5
12
100
AcDbSymbolTableRecord
100
AcDbRegAppTableRecord
2
ACAD
70
0
0
ENDTAB
0
TABLE
2
DIMSTYLE
5
A
100
AcDbSymbolTable
70
1
0
ENDTAB
0
TABLE
2
BLOCK_RECORD
5
1
100
AcDbSymbolTable
70
1
0
BLOCK_RECORD
5
1F
100
AcDbSymbolTableRecord
100
AcDbBlockTableRecord
2
*MODEL_SPACE
0
BLOCK_RECORD
5
1B
100
AcDbSymbolTableRecord
100
AcDbBlockTableRecord
2
*PAPER_SPACE
0
ENDTAB
0
ENDSEC
0
SECTION
2
BLOCKS
0
BLOCK
5
20
100
AcDbEntity
100
AcDbBlockBegin
2
*MODEL_SPACE
0
ENDBLK
5
21
100
AcDbEntity
100
AcDbBlockEnd
0
BLOCK
5
1C
100
AcDbEntity
100
AcDbBlockBegin
2
*PAPER_SPACE
0
ENDBLK
5
1D
100
AcDbEntity
100
AcDbBlockEnd
0
ENDSEC
0
SECTION
2
ENTITIES
0
CIRCLE
5
100
100
AcDbEntity
8
0
100
AcDbCircle
10
-29.860000000000003
20
143
30
0
40
3.2000000000000006
210
0
220
0
230
1
0
CIRCLE
5
101
100
AcDbEntity
8
0
100
AcDbCircle
10
-150
20
143
30
0
40
3.2000000000000006
210
0
220
0
230
1
0
CIRCLE
5
102
100
AcDbEntity
8
0
100
AcDbCircle
10
-243
20
143
30
0
40
3.2000000000000006
210
0
220
0
230
1
0
CIRCLE
5
103
100
AcDbEntity
8
0
100
AcDbCircle
10
-133.5
20
78
30
0
40
3.2000000000000006
210
0
220
0
230
1
0
CIRCLE
5
104
100
AcDbEntity
8
0
100
AcDbCircle
10
-29.860000000000003
20
37
30
0
40
3.2000000000000006
210
0
220
0
230
1
0
CIRCLE
5
105
100
AcDbEntity
8
0
100
AcDbCircle
10
-150
20
37
30
0
40
3.2000000000000006
210
0
220
0
230
1
0
CIRCLE
5
106
100
AcDbEntity
8
0
100
AcDbCircle
10
-243
20
37
30
0
40
3.2000000000000006
210
0
220
0
230
1
0
LWPOLYLINE
5
107
100
AcDbEntity
8
0
100
AcDbPolyline
90
10
70
1
43
0.0
10
-255
20
28
10
-255
20
150
42
-0.41421356237309709
10
-249.99999999999997
20
155
10
-22.859999999999996
20
155
42
-0.41421356237309503
10
-17.859999999999992
20
150
10
-17.859999999999996
20
28.000000000000007
42
-0.41421356237309531
10
-22.859999999999996
20
23.000000000000004
10
-116.50000000000003
20
23
10
-135.5
20
23
10
-250
20
23.000000000000007
42
-0.41421356237309453
0
CIRCLE
5
108
100
AcDbEntity
8
0
100
AcDbCircle
10
-175.41999999999999
20
53.580000000000005
30
0
40
13.5
210
0
220
0
230
1
0
CIRCLE
5
109
100
AcDbEntity
8
0
100
AcDbCircle
10
-143.25
20
96.15000000000002
30
0
40
13.499999999999989
210
0
220
0
230
1
0
CIRCLE
5
110
100
AcDbEntity
8
0
100
AcDbCircle
10
-169.86000000000001
20
85.04000000000002
30
0
40
13.5
210
0
220
0
230
1
0
CIRCLE
5
111
100
AcDbEntity
8
0
100
AcDbCircle
10
-204.38999999999999
20
53.460000000000001
30
0
40
13.500000000000016
210
0
220
0
230
1
0
CIRCLE
5
112
100
AcDbEntity
8
0
100
AcDbCircle
10
-198.71000000000004
20
85.04000000000002
30
0
40
13.499999999999998
210
0
220
0
230
1
0
CIRCLE
5
113
100
AcDbEntity
8
0
100
AcDbCircle
10
-233.36000000000001
20
53.70000000000001
30
0
40
13.500000000000016
210
0
220
0
230
1
0
CIRCLE
5
114
100
AcDbEntity
8
0
100
AcDbCircle
10
-227.92000000000002
20
85.04000000000002
30
0
40
13.500000000000007
210
0
220
0
230
1
0
CIRCLE
5
115
100
AcDbEntity
8
0
100
AcDbCircle
10
-113.92000000000002
20
76.519999999999996
30
0
40
13.499999999999993
210
0
220
0
230
1
0
CIRCLE
5
116
100
AcDbEntity
8
0
100
AcDbCircle
10
-87.319999999999993
20
65.170000000000002
30
0
40
13.500000000000004
210
0
220
0
230
1
0
CIRCLE
5
117
100
AcDbEntity
8
0
100
AcDbCircle
10
-58.225000000000009
20
65.049999999999997
30
0
40
13.5
210
0
220
0
230
1
0
CIRCLE
5
118
100
AcDbEntity
8
0
100
AcDbCircle
10
-38.100000000000009
20
88.900000000000006
30
0
40
13.500000000000011
210
0
220
0
230
1
0
CIRCLE
5
119
100
AcDbEntity
8
0
100
AcDbCircle
10
-131.41999999999999
20
129.62
30
0
40
13.500000000000004
210
0
220
0
230
1
0
LWPOLYLINE
5
120
100
AcDbEntity
8
0
100
AcDbPolyline
90
17
70
1
43
0.0
10
-52.75
20
44.5
10
-116.50000000000003
20
44.5
10
-116.50000000000003
20
59.378680572861775
42
0.9999999925494194
10
-118.62132034355966
20
61.500000916421413
10
-135.85590289471429
20
61.500000916421413
42
16.579612920590467
10
-137.09338594577298
20
58.500000916421428
10
-135.49999989971306
20
58.500000916421428
10
-135.50000186245529
20
31.921319834129775
42
0.99999999999999989
10
-133.37868183219976
20
29.799999177266052
10
-118.62131909712676
20
29.799998087486664
42
0.9999994123481738
10
-116.50000000000003
20
31.921319677477733
10
-116.50000000000003
20
35
10
-52.75
20
35
10
-52.250000000000007
20
35
42
0.41421356237309076
10
-50.75
20
36.5
10
-50.75
20
43
42
0.41421356237308815
10
-52.250000000000007
20
44.5
0
ENDSEC
0
SECTION
2
OBJECTS
0
DICTIONARY
5
C
100
AcDbDictionary
3
ACAD_GROUP
350
D
3
ACAD_MLINESTYLE
350
17
0
DICTIONARY
5
D
100
AcDbDictionary
0
DICTIONARY
5
1A
330
C
100
AcDbDictionary
0
DICTIONARY
5
17
100
AcDbDictionary
0
ENDSEC
0
EOF
