<?xml version="1.0" encoding="UTF-8" standalone="no"?>
<svg
   viewBox="0 0 1122.5196 793.70083"
   width="1122.5197"
   height="793.70081"
   version="1.1"
   id="svg36"
   sodipodi:docname="-2_1.5mm.svg"
   inkscape:version="1.1.1 (3bf5ae0d25, 2021-09-20)"
   xmlns:inkscape="http://www.inkscape.org/namespaces/inkscape"
   xmlns:sodipodi="http://sodipodi.sourceforge.net/DTD/sodipodi-0.dtd"
   xmlns="http://www.w3.org/2000/svg"
   xmlns:svg="http://www.w3.org/2000/svg">
  <sodipodi:namedview
     id="namedview38"
     pagecolor="#505050"
     bordercolor="#eeeeee"
     borderopacity="1"
     inkscape:pageshadow="0"
     inkscape:pageopacity="0"
     inkscape:pagecheckerboard="0"
     showgrid="false"
     inkscape:zoom="0.77771467"
     inkscape:cx="397.31795"
     inkscape:cy="560.61692"
     inkscape:window-width="3840"
     inkscape:window-height="2066"
     inkscape:window-x="-11"
     inkscape:window-y="-11"
     inkscape:window-maximized="1"
     inkscape:current-layer="g34" />
  <desc
     id="desc2">-2_1.5mm.dxf - scale = 1.0, origin = (0.0, 0.0), method = manual</desc>
  <defs
     id="defs16">
    <marker
       id="DistanceX"
       orient="auto"
       refX="0"
       refY="0"
       style="overflow:visible">
      <path
         d="M 3,-3 -3,3 M 0,-5 V 5"
         style="stroke:#000000;stroke-width:0.5"
         id="path4" />
    </marker>
    <pattern
       id="Hatch"
       patternUnits="userSpaceOnUse"
       width="8"
       height="8"
       x="0"
       y="0">
      <path
         d="M8 4 l-4,4"
         stroke="#000000"
         stroke-width="0.25"
         linecap="square"
         id="path7" />
      <path
         d="M6 2 l-4,4"
         stroke="#000000"
         stroke-width="0.25"
         linecap="square"
         id="path9" />
      <path
         d="M4 0 l-4,4"
         stroke="#000000"
         stroke-width="0.25"
         linecap="square"
         id="path11" />
    </pattern>
    <symbol
       id="*MODEL_SPACE" />
    <symbol
       id="*PAPER_SPACE" />
  </defs>
  <g
     inkscape:groupmode="layer"
     inkscape:label="0"
     id="g34">
    <path
       d="m 940.75088,223.30385 a 12.09449,12.09449 0 1 0 -24.18898,0 12.09449,12.09449 0 1 0 24.18898,0 z"
       style="fill:none;stroke:#ff0000;stroke-opacity:1;stroke-width:0.1;stroke-miterlimit:4;stroke-dasharray:none"
       id="path18" />
    <path
       d="m 486.67843,223.30385 a 12.094488,12.094488 0 1 0 -24.18897,0 12.094488,12.094488 0 1 0 24.18897,0 z"
       style="fill:none;stroke:#ff0000;stroke-opacity:1;stroke-width:0.1;stroke-miterlimit:4;stroke-dasharray:none"
       id="path20" />
    <path
       d="m 135.18237,223.30385 a 12.094488,12.094488 0 1 0 -24.18897,0 12.094488,12.094488 0 1 0 24.18897,0 z"
       style="fill:none;stroke:#ff0000;stroke-opacity:1;stroke-width:0.1;stroke-miterlimit:4;stroke-dasharray:none"
       id="path22" />
    <path
       d="m 549.04064,468.97315 a 12.09449,12.09449 0 1 0 -24.18898,0 12.09449,12.09449 0 1 0 24.18898,0 z"
       style="fill:none;stroke:#ff0000;stroke-opacity:1;stroke-width:0.1;stroke-miterlimit:4;stroke-dasharray:none"
       id="path24" />
    <path
       d="m 940.75088,623.93377 a 12.09449,12.09449 0 1 0 -24.18898,0 12.09449,12.09449 0 1 0 24.18898,0 z"
       style="fill:none;stroke:#ff0000;stroke-opacity:1;stroke-width:0.1;stroke-miterlimit:4;stroke-dasharray:none"
       id="path26" />
    <path
       d="m 486.67843,623.93377 a 12.094488,12.094488 0 1 0 -24.18897,0 12.094488,12.094488 0 1 0 24.18897,0 z"
       style="fill:none;stroke:#ff0000;stroke-opacity:1;stroke-width:0.1;stroke-miterlimit:4;stroke-dasharray:none"
       id="path28" />
    <path
       d="m 135.18237,623.93377 a 12.094488,12.094488 0 1 0 -24.18897,0 12.094488,12.094488 0 1 0 24.18897,0 z"
       style="fill:none;stroke:#ff0000;stroke-opacity:1;stroke-width:0.1;stroke-miterlimit:4;stroke-dasharray:none"
       id="path30" />
    <path
       d="m 96.63118,177.94952 h 858.4819 a 18.897638,18.897638 0 0 1 18.89764,18.89763 v 461.10236 a 18.897638,18.897638 0 0 1 -18.89764,18.8976 H 96.63118 A 18.897638,18.897638 0 0 1 77.73354,657.94951 V 196.84715 a 18.897638,18.897638 0 0 1 18.89764,-18.89763 z"
       style="fill:none;stroke:#ff0000;stroke-opacity:1;stroke-width:0.1;stroke-miterlimit:4;stroke-dasharray:none"
       id="path32" />
  </g>
</svg>
