0
SECTION
2
HEADER
9
$INSUNITS
70
4
9
$ACADVER
1
AC1014
9
$HANDSEED
5
FFFF
0
ENDSEC
0
SECTION
2
TABLES
0
TABLE
2
VPORT
5
8
100
AcDbSymbolTable
0
ENDTAB
0
TABLE
2
LTYPE
5
5
100
AcDbSymbolTable
0
LTYPE
5
14
100
AcDbSymbolTableRecord
100
AcDbLinetypeTableRecord
2
BYBLOCK
70
0
0
LTYPE
5
15
100
AcDbSymbolTableRecord
100
AcDbLinetypeTableRecord
2
BYLAYER
70
0
0
ENDTAB
0
TABLE
2
LAYER
5
2
100
AcDbSymbolTable
70
2
0
LAYER
5
50
100
AcDbSymbolTableRecord
100
AcDbLayerTableRecord
2
0
70
0
6
CONTINUOUS
0
ENDTAB
0
TABLE
2
STYLE
5
3
100
AcDbSymbolTable
70
1
0
STYLE
5
11
100
AcDbSymbolTableRecord
100
AcDbTextStyleTableRecord
2
STANDARD
70
0
0
ENDTAB
0
TABLE
2
VIEW
5
6
100
AcDbSymbolTable
70
0
0
ENDTAB
0
TABLE
2
UCS
5
7
100
AcDbSymbolTable
70
0
0
ENDTAB
0
TABLE
2
APPID
5
9
100
AcDbSymbolTable
70
2
0
APPID
5
12
100
AcDbSymbolTableRecord
100
AcDbRegAppTableRecord
2
ACAD
70
0
0
ENDTAB
0
TABLE
2
DIMSTYLE
5
A
100
AcDbSymbolTable
70
1
0
ENDTAB
0
TABLE
2
BLOCK_RECORD
5
1
100
AcDbSymbolTable
70
1
0
BLOCK_RECORD
5
1F
100
AcDbSymbolTableRecord
100
AcDbBlockTableRecord
2
*MODEL_SPACE
0
BLOCK_RECORD
5
1B
100
AcDbSymbolTableRecord
100
AcDbBlockTableRecord
2
*PAPER_SPACE
0
ENDTAB
0
ENDSEC
0
SECTION
2
BLOCKS
0
BLOCK
5
20
100
AcDbEntity
100
AcDbBlockBegin
2
*MODEL_SPACE
0
ENDBLK
5
21
100
AcDbEntity
100
AcDbBlockEnd
0
BLOCK
5
1C
100
AcDbEntity
100
AcDbBlockBegin
2
*PAPER_SPACE
0
ENDBLK
5
1D
100
AcDbEntity
100
AcDbBlockEnd
0
ENDSEC
0
SECTION
2
ENTITIES
0
CIRCLE
5
100
100
AcDbEntity
8
0
100
AcDbCircle
10
-29.860000000000003
20
143
30
0
40
3.2000000000000006
210
0
220
0
230
1
0
CIRCLE
5
101
100
AcDbEntity
8
0
100
AcDbCircle
10
-150
20
143
30
0
40
3.2000000000000006
210
0
220
0
230
1
0
CIRCLE
5
102
100
AcDbEntity
8
0
100
AcDbCircle
10
-243
20
143
30
0
40
3.2000000000000006
210
0
220
0
230
1
0
CIRCLE
5
103
100
AcDbEntity
8
0
100
AcDbCircle
10
-133.5
20
78
30
0
40
3.2000000000000006
210
0
220
0
230
1
0
CIRCLE
5
104
100
AcDbEntity
8
0
100
AcDbCircle
10
-29.860000000000003
20
37
30
0
40
3.2000000000000006
210
0
220
0
230
1
0
CIRCLE
5
105
100
AcDbEntity
8
0
100
AcDbCircle
10
-150
20
37
30
0
40
3.2000000000000006
210
0
220
0
230
1
0
CIRCLE
5
106
100
AcDbEntity
8
0
100
AcDbCircle
10
-243
20
37
30
0
40
3.2000000000000006
210
0
220
0
230
1
0
LINE
5
107
100
AcDbEntity
8
0
100
AcDbLine
10
-255
20
28
30
0
11
-255
21
150
31
0
0
LINE
5
108
100
AcDbEntity
8
0
100
AcDbLine
10
-249.99999999999997
20
155
30
0
11
-22.859999999999996
21
155
31
0
0
LINE
5
109
100
AcDbEntity
8
0
100
AcDbLine
10
-17.859999999999992
20
150
30
0
11
-17.859999999999999
21
28.000000000000007
31
0
0
ARC
5
110
100
AcDbEntity
8
0
100
AcDbCircle
10
-22.859999999999996
20
28.000000000000004
30
0
40
5
210
0
220
0
230
1
100
AcDbArc
50
-90
51
0
0
ARC
5
111
100
AcDbEntity
8
0
100
AcDbCircle
10
-22.859999999999996
20
150
30
0
40
5.0000000000000018
210
0
220
-0
230
1
100
AcDbArc
50
0
51
90
0
ARC
5
112
100
AcDbEntity
8
0
100
AcDbCircle
10
-250
20
150
30
0
40
5
210
0
220
-0
230
1
100
AcDbArc
50
89.999999999999673
51
180
0
ARC
5
113
100
AcDbEntity
8
0
100
AcDbCircle
10
-250
20
28.000000000000007
30
0
40
5
210
0
220
0
230
1
100
AcDbArc
50
180
51
270
0
LINE
5
114
100
AcDbEntity
8
0
100
AcDbLine
10
-116.50000000000003
20
23
30
0
11
-22.859999999999996
21
23.000000000000004
31
0
0
LINE
5
115
100
AcDbEntity
8
0
100
AcDbLine
10
-135.5
20
23
30
0
11
-250
21
23
31
0
0
CIRCLE
5
116
100
AcDbEntity
8
0
100
AcDbCircle
10
-175.41999999999999
20
53.580000000000005
30
0
40
13.5
210
0
220
0
230
1
0
CIRCLE
5
117
100
AcDbEntity
8
0
100
AcDbCircle
10
-143.25
20
96.15000000000002
30
0
40
13.499999999999989
210
0
220
0
230
1
0
CIRCLE
5
118
100
AcDbEntity
8
0
100
AcDbCircle
10
-169.86000000000001
20
85.04000000000002
30
0
40
13.5
210
0
220
0
230
1
0
CIRCLE
5
119
100
AcDbEntity
8
0
100
AcDbCircle
10
-204.38999999999999
20
53.460000000000001
30
0
40
13.500000000000016
210
0
220
0
230
1
0
CIRCLE
5
120
100
AcDbEntity
8
0
100
AcDbCircle
10
-198.71000000000004
20
85.04000000000002
30
0
40
13.499999999999998
210
0
220
0
230
1
0
CIRCLE
5
121
100
AcDbEntity
8
0
100
AcDbCircle
10
-233.36000000000001
20
53.70000000000001
30
0
40
13.500000000000016
210
0
220
0
230
1
0
CIRCLE
5
122
100
AcDbEntity
8
0
100
AcDbCircle
10
-227.92000000000002
20
85.04000000000002
30
0
40
13.500000000000007
210
0
220
0
230
1
0
CIRCLE
5
123
100
AcDbEntity
8
0
100
AcDbCircle
10
-113.92000000000002
20
76.519999999999996
30
0
40
13.499999999999993
210
0
220
0
230
1
0
CIRCLE
5
124
100
AcDbEntity
8
0
100
AcDbCircle
10
-87.319999999999993
20
65.170000000000002
30
0
40
13.500000000000004
210
0
220
0
230
1
0
CIRCLE
5
125
100
AcDbEntity
8
0
100
AcDbCircle
10
-58.225000000000009
20
65.049999999999997
30
0
40
13.5
210
0
220
0
230
1
0
CIRCLE
5
126
100
AcDbEntity
8
0
100
AcDbCircle
10
-38.100000000000009
20
88.900000000000006
30
0
40
13.500000000000011
210
0
220
0
230
1
0
CIRCLE
5
127
100
AcDbEntity
8
0
100
AcDbCircle
10
-131.41999999999999
20
129.62
30
0
40
13.500000000000004
210
0
220
0
230
1
0
LWPOLYLINE
5
128
100
AcDbEntity
8
0
100
AcDbPolyline
90
8
70
1
43
0.0
10
-89.848076211353316
20
35.75
10
-91.651923777470813
20
35.750000019357167
42
-1.0000000074505806
10
-94.249999999999986
20
37.250000000000007
10
-94.25
20
42.25
42
-0.99999999999999989
10
-91.65192378864667
20
43.75
10
-89.84807621135333
20
43.749999999999986
42
-0.99999999999999989
10
-87.25
20
42.250000000000014
10
-87.250000000000014
20
37.25
42
-0.99999999999999989
0
LWPOLYLINE
5
129
100
AcDbEntity
8
0
100
AcDbPolyline
90
8
70
1
43
0.0
10
-101.65192378864667
20
43.75
42
0.99999999999999989
10
-104.25
20
42.250000000000014
10
-104.25
20
37.249999999999979
42
0.99999999999999989
10
-101.65192378864667
20
35.75
10
-99.848076211353316
20
35.75
42
0.99999999999999989
10
-97.250000000000014
20
37.250000000000007
10
-97.250000000000014
20
42.249999999999979
42
0.99999999999999989
10
-99.848076211353316
20
43.75
0
LWPOLYLINE
5
130
100
AcDbEntity
8
0
100
AcDbPolyline
90
8
70
1
43
0.0
10
-54.250000000000007
20
42.25
10
-54.250000000000007
20
37.25
42
-0.99999999999999989
10
-56.84807621135333
20
35.75
10
-58.651923788646684
20
35.75
42
-0.99999999999999989
10
-61.25
20
37.25
10
-61.25
20
42.25
42
-0.99999999999999989
10
-58.651923788646684
20
43.75
10
-56.84807621135333
20
43.75
42
-0.99999999999999989
0
LWPOLYLINE
5
131
100
AcDbEntity
8
0
100
AcDbPolyline
90
8
70
1
43
0.0
10
-114.25
20
42.249999999999979
10
-114.25
20
37.250000000000007
42
0.99999999999999989
10
-111.65192378864671
20
35.75
10
-109.84807621135334
20
35.75
42
0.99999999999999989
10
-107.25000000000001
20
37.249999999999979
10
-107.25000000000001
20
42.250000000000014
42
0.99999999999999989
10
-109.84807621135334
20
43.75
10
-111.65192378864671
20
43.75
42
0.99999999999999989
0
LWPOLYLINE
5
132
100
AcDbEntity
8
0
100
AcDbPolyline
90
8
70
1
43
0.0
10
-71.25
20
37.25
10
-71.25
20
42.25
42
-0.99999999999999989
10
-68.651923788646684
20
43.75
10
-66.84807621135333
20
43.75
42
-0.99999999999999989
10
-64.25
20
42.25
10
-64.25
20
37.25
42
-0.99999999999999989
10
-66.84807621135333
20
35.75
10
-68.651923788646684
20
35.75
42
-0.99999999999999989
0
LWPOLYLINE
5
133
100
AcDbEntity
8
0
100
AcDbPolyline
90
8
70
1
43
0.0
10
-76.84807621135333
20
35.75
10
-78.651923788646684
20
35.75
42
-0.99999999999999989
10
-81.25
20
37.25
10
-81.25
20
42.25
42
-0.99999999999999989
10
-78.651923788646684
20
43.75
10
-76.84807621135333
20
43.75
42
-0.99999999999999989
10
-74.25
20
42.25
10
-74.25
20
37.25
42
-0.99999999999999989
0
LINE
5
134
100
AcDbEntity
8
0
100
AcDbLine
10
-116.50000000000003
20
23
30
0
11
-116.50000000000003
21
59.378680572861775
31
0
0
ARC
5
135
100
AcDbEntity
8
0
100
AcDbCircle
10
-117.56066017177984
20
60.439340744641598
30
0
40
1.4999999999999971
210
0
220
0
230
1
100
AcDbArc
50
-45.000000000000199
51
135
0
LINE
5
136
100
AcDbEntity
8
0
100
AcDbLine
10
-118.62132034355966
20
61.500000916421413
30
0
11
-135.85590289471429
21
61.500000916421413
31
0
0
LINE
5
137
100
AcDbEntity
8
0
100
AcDbLine
10
-135.5
20
58.500000916421413
30
0
11
-137.09338594577298
21
58.500000916421413
31
0
0
LINE
5
138
100
AcDbEntity
8
0
100
AcDbLine
10
-135.5
20
23
30
0
11
-135.5
21
58.500000916421413
31
0
0
ARC
5
139
100
AcDbEntity
8
0
100
AcDbCircle
10
-148.86411783143242
20
65.110588702384192
30
0
40
13.499999999999998
210
0
220
0
230
1
100
AcDbArc
50
-15.512639487987498
51
330.68089779144719
0
ENDSEC
0
SECTION
2
OBJECTS
0
DICTIONARY
5
C
100
AcDbDictionary
3
ACAD_GROUP
350
D
3
ACAD_MLINESTYLE
350
17
0
DICTIONARY
5
D
100
AcDbDictionary
0
DICTIONARY
5
1A
330
C
100
AcDbDictionary
0
DICTIONARY
5
17
100
AcDbDictionary
0
ENDSEC
0
EOF
