%TF.GenerationSoftware,KiCad,Pcbnew,(6.0.7)*%
%TF.CreationDate,2022-08-16T08:24:38+10:00*%
%TF.ProjectId,Flatbox-rev1_1,466c6174-626f-4782-9d72-6576315f312e,rev?*%
%TF.SameCoordinates,Original*%
%TF.FileFunction,Copper,L2,Bot*%
%TF.FilePolarity,Positive*%
%FSLAX46Y46*%
G04 Gerber Fmt 4.6, Leading zero omitted, Abs format (unit mm)*
G04 Created by KiCad (PCBNEW (6.0.7)) date 2022-08-16 08:24:38*
%MOMM*%
%LPD*%
G01*
G04 APERTURE LIST*
G04 Aperture macros list*
%AMRoundRect*
0 Rectangle with rounded corners*
0 $1 Rounding radius*
0 $2 $3 $4 $5 $6 $7 $8 $9 X,Y pos of 4 corners*
0 Add a 4 corners polygon primitive as box body*
4,1,4,$2,$3,$4,$5,$6,$7,$8,$9,$2,$3,0*
0 Add four circle primitives for the rounded corners*
1,1,$1+$1,$2,$3*
1,1,$1+$1,$4,$5*
1,1,$1+$1,$6,$7*
1,1,$1+$1,$8,$9*
0 Add four rect primitives between the rounded corners*
20,1,$1+$1,$2,$3,$4,$5,0*
20,1,$1+$1,$4,$5,$6,$7,0*
20,1,$1+$1,$6,$7,$8,$9,0*
20,1,$1+$1,$8,$9,$2,$3,0*%
G04 Aperture macros list end*
%TA.AperFunction,ComponentPad*%
%ADD10C,3.600000*%
%TD*%
%TA.AperFunction,SMDPad,CuDef*%
%ADD11RoundRect,0.250000X-1.525000X-1.000000X1.525000X-1.000000X1.525000X1.000000X-1.525000X1.000000X0*%
%TD*%
%TA.AperFunction,ComponentPad*%
%ADD12C,2.000000*%
%TD*%
%TA.AperFunction,ComponentPad*%
%ADD13R,1.600000X1.600000*%
%TD*%
%TA.AperFunction,ComponentPad*%
%ADD14C,1.600000*%
%TD*%
%TA.AperFunction,Conductor*%
%ADD15C,0.254000*%
%TD*%
%TA.AperFunction,Conductor*%
%ADD16C,0.381000*%
%TD*%
G04 APERTURE END LIST*
D10*
X34290000Y-86360000D03*
X40640000Y-83820000D03*
D11*
X31515000Y-86360000D03*
X43420000Y-83820000D03*
D10*
X127610000Y-127080000D03*
X133960000Y-124540000D03*
D11*
X124835000Y-127080000D03*
X136740000Y-124540000D03*
D10*
X224110000Y-82500000D03*
X230460000Y-79960000D03*
D11*
X221335000Y-82500000D03*
X233240000Y-79960000D03*
D10*
X194900000Y-82500000D03*
X201250000Y-79960000D03*
D11*
X192125000Y-82500000D03*
X204030000Y-79960000D03*
D10*
X166050000Y-82500000D03*
X172400000Y-79960000D03*
D11*
X163275000Y-82500000D03*
X175180000Y-79960000D03*
D10*
X139440000Y-93610000D03*
X145790000Y-91070000D03*
D11*
X136665000Y-93610000D03*
X148570000Y-91070000D03*
D10*
X229550000Y-51160000D03*
X235900000Y-48620000D03*
D11*
X226775000Y-51160000D03*
X238680000Y-48620000D03*
D10*
X200580000Y-50920000D03*
X206930000Y-48380000D03*
D11*
X197805000Y-50920000D03*
X209710000Y-48380000D03*
D10*
X171610000Y-51040000D03*
X177960000Y-48500000D03*
D11*
X168835000Y-51040000D03*
X180740000Y-48500000D03*
D10*
X145050000Y-62570000D03*
X151400000Y-60030000D03*
D11*
X142275000Y-62570000D03*
X154180000Y-60030000D03*
D10*
X110110000Y-73980000D03*
X116460000Y-71440000D03*
D11*
X107335000Y-73980000D03*
X119240000Y-71440000D03*
D10*
X83510000Y-62630000D03*
X89860000Y-60090000D03*
D11*
X80735000Y-62630000D03*
X92640000Y-60090000D03*
D10*
X54415000Y-62510000D03*
X60765000Y-59970000D03*
D11*
X51640000Y-62510000D03*
X63545000Y-59970000D03*
D12*
X88500000Y-36500000D03*
X88500000Y-43000000D03*
X93000000Y-36500000D03*
X93000000Y-43000000D03*
X65500000Y-43000000D03*
X65500000Y-36500000D03*
X70000000Y-36500000D03*
X70000000Y-43000000D03*
X98500000Y-43000000D03*
X98500000Y-36500000D03*
X103000000Y-36500000D03*
X103000000Y-43000000D03*
X55500000Y-36500000D03*
X55500000Y-43000000D03*
X60000000Y-43000000D03*
X60000000Y-36500000D03*
X75500000Y-36500000D03*
X75500000Y-43000000D03*
X80000000Y-36500000D03*
X80000000Y-43000000D03*
X108500000Y-36500000D03*
X108500000Y-43000000D03*
X113000000Y-36500000D03*
X113000000Y-43000000D03*
D13*
X118380000Y-31280000D03*
D14*
X118380000Y-33820000D03*
X118380000Y-36360000D03*
X118380000Y-38900000D03*
X118380000Y-41440000D03*
X118380000Y-43980000D03*
X118380000Y-46520000D03*
X118380000Y-49060000D03*
X118380000Y-51600000D03*
X118380000Y-54140000D03*
X118380000Y-56680000D03*
X118380000Y-59220000D03*
X133620000Y-59220000D03*
X133620000Y-56680000D03*
X133620000Y-54140000D03*
X133620000Y-51600000D03*
X133620000Y-49060000D03*
X133620000Y-46520000D03*
X133620000Y-43980000D03*
X133620000Y-41440000D03*
X133620000Y-38900000D03*
X133620000Y-36360000D03*
X133620000Y-33820000D03*
X133620000Y-31280000D03*
D15*
X108500000Y-36500000D02*
X108500000Y-43000000D01*
X98500000Y-36500000D02*
X98500000Y-43000000D01*
X88500000Y-36500000D02*
X88500000Y-43000000D01*
X75500000Y-36500000D02*
X75500000Y-43000000D01*
X65500000Y-36500000D02*
X65500000Y-43000000D01*
X55500000Y-36500000D02*
X55500000Y-43000000D01*
X226775000Y-51160000D02*
X229550000Y-51160000D01*
X197805000Y-50920000D02*
X200580000Y-50920000D01*
X51640000Y-62510000D02*
X54415000Y-62510000D01*
X80735000Y-62630000D02*
X83510000Y-62630000D01*
D16*
X153924000Y-107878000D02*
X137262000Y-124540000D01*
X153924000Y-95902000D02*
X153924000Y-107878000D01*
X149092000Y-91070000D02*
X153924000Y-95902000D01*
X156805775Y-76366225D02*
X149092000Y-84080000D01*
X149092000Y-84080000D02*
X149092000Y-91070000D01*
X175702000Y-79960000D02*
X172108225Y-76366225D01*
X172108225Y-76366225D02*
X156805775Y-76366225D01*
X179295775Y-76366225D02*
X175702000Y-79960000D01*
X200958225Y-76366225D02*
X179295775Y-76366225D01*
X204552000Y-79960000D02*
X200958225Y-76366225D01*
X230168225Y-76366225D02*
X208145775Y-76366225D01*
X233762000Y-79960000D02*
X230168225Y-76366225D01*
X208145775Y-76366225D02*
X204552000Y-79960000D01*
X241808000Y-71914000D02*
X233762000Y-79960000D01*
X241808000Y-51226000D02*
X241808000Y-71914000D01*
X239202000Y-48620000D02*
X241808000Y-51226000D01*
X235608225Y-45026225D02*
X239202000Y-48620000D01*
X213585775Y-45026225D02*
X235608225Y-45026225D01*
X210232000Y-48380000D02*
X213585775Y-45026225D01*
X206638225Y-44786225D02*
X210232000Y-48380000D01*
X184975775Y-44786225D02*
X206638225Y-44786225D01*
X181262000Y-48500000D02*
X184975775Y-44786225D01*
X182905297Y-50143297D02*
X181262000Y-48500000D01*
X177770798Y-60030000D02*
X182905297Y-54895501D01*
X182905297Y-54895501D02*
X182905297Y-50143297D01*
X154702000Y-60030000D02*
X177770798Y-60030000D01*
X156345297Y-61673297D02*
X154702000Y-60030000D01*
X156345297Y-66425501D02*
X156345297Y-61673297D01*
X153174798Y-69596000D02*
X156345297Y-66425501D01*
X119762000Y-71440000D02*
X121606000Y-69596000D01*
X121606000Y-69596000D02*
X153174798Y-69596000D01*
X108412000Y-60090000D02*
X119762000Y-71440000D01*
X93162000Y-60090000D02*
X108412000Y-60090000D01*
X89568225Y-56496225D02*
X93162000Y-60090000D01*
X67540775Y-56496225D02*
X89568225Y-56496225D01*
X64067000Y-59970000D02*
X67540775Y-56496225D01*
X66548000Y-62451000D02*
X64067000Y-59970000D01*
X66548000Y-82296000D02*
X66548000Y-62451000D01*
X65024000Y-83820000D02*
X66548000Y-82296000D01*
X43942000Y-83820000D02*
X65024000Y-83820000D01*
X43942000Y-59058000D02*
X60000000Y-43000000D01*
X43942000Y-83820000D02*
X43942000Y-59058000D01*
X80000000Y-43000000D02*
X77788000Y-45212000D01*
X93000000Y-43000000D02*
X93000000Y-36500000D01*
X82464000Y-34036000D02*
X80000000Y-36500000D01*
X72212000Y-45212000D02*
X70000000Y-43000000D01*
X60000000Y-36500000D02*
X60000000Y-43000000D01*
X113000000Y-43000000D02*
X113000000Y-36500000D01*
X62464000Y-34036000D02*
X60000000Y-36500000D01*
X70000000Y-43000000D02*
X70000000Y-36500000D01*
X110536000Y-34036000D02*
X105464000Y-34036000D01*
X127216000Y-33820000D02*
X133620000Y-33820000D01*
X80000000Y-36500000D02*
X80000000Y-43000000D01*
X118380000Y-36360000D02*
X118380000Y-38900000D01*
X113000000Y-36500000D02*
X110536000Y-34036000D01*
X70000000Y-36500000D02*
X67536000Y-34036000D01*
X124676000Y-36360000D02*
X127216000Y-33820000D01*
X118380000Y-36360000D02*
X124676000Y-36360000D01*
X93000000Y-36500000D02*
X90536000Y-34036000D01*
X77788000Y-45212000D02*
X72212000Y-45212000D01*
X95212000Y-45212000D02*
X93000000Y-43000000D01*
X105464000Y-34036000D02*
X103000000Y-36500000D01*
X103000000Y-43000000D02*
X100788000Y-45212000D01*
X103000000Y-36500000D02*
X103000000Y-43000000D01*
X90536000Y-34036000D02*
X82464000Y-34036000D01*
X67536000Y-34036000D02*
X62464000Y-34036000D01*
X117100000Y-38900000D02*
X113000000Y-43000000D01*
X100788000Y-45212000D02*
X95212000Y-45212000D01*
X118380000Y-38900000D02*
X117100000Y-38900000D01*
M02*
