M48
; DRILL file {KiCad (6.0.7)} date Tue Aug 16 08:24:45 2022
; FORMAT={-:-/ absolute / inch / decimal}
; #@! TF.CreationDate,2022-08-16T08:24:45+10:00
; #@! TF.GenerationSoftware,Kicad,Pcbnew,(6.0.7)
; #@! TF.FileFunction,Plated,1,2,PTH
FMAT,2
INCH
; #@! TA.AperFunction,Plated,PTH,ComponentDrill
T1C0.0433
; #@! TA.AperFunction,Plated,PTH,ComponentDrill
T2C0.1201
%
G90
G05
T1
X2.185Y-1.437
X2.185Y-1.6929
X2.3622Y-1.437
X2.3622Y-1.6929
X2.5787Y-1.437
X2.5787Y-1.6929
X2.7559Y-1.437
X2.7559Y-1.6929
X2.9724Y-1.437
X2.9724Y-1.6929
X3.1496Y-1.437
X3.1496Y-1.6929
X3.4843Y-1.437
X3.4843Y-1.6929
X3.6614Y-1.437
X3.6614Y-1.6929
X3.878Y-1.437
X3.878Y-1.6929
X4.0551Y-1.437
X4.0551Y-1.6929
X4.2717Y-1.437
X4.2717Y-1.6929
X4.4488Y-1.437
X4.4488Y-1.6929
X4.6606Y-1.2315
X4.6606Y-1.3315
X4.6606Y-1.4315
X4.6606Y-1.5315
X4.6606Y-1.6315
X4.6606Y-1.7315
X4.6606Y-1.8315
X4.6606Y-1.9315
X4.6606Y-2.0315
X4.6606Y-2.1315
X4.6606Y-2.2315
X4.6606Y-2.3315
X5.2606Y-1.2315
X5.2606Y-1.3315
X5.2606Y-1.4315
X5.2606Y-1.5315
X5.2606Y-1.6315
X5.2606Y-1.7315
X5.2606Y-1.8315
X5.2606Y-1.9315
X5.2606Y-2.0315
X5.2606Y-2.1315
X5.2606Y-2.2315
X5.2606Y-2.3315
T2
X1.35Y-3.4
X1.6Y-3.3
X2.1423Y-2.461
X2.3923Y-2.361
X3.2878Y-2.4657
X3.5378Y-2.3657
X4.335Y-2.9126
X4.585Y-2.8126
X5.024Y-5.0031
X5.274Y-4.9031
X5.4898Y-3.6854
X5.7106Y-2.4634
X5.7398Y-3.5854
X5.9606Y-2.3634
X6.5374Y-3.248
X6.7563Y-2.0094
X6.7874Y-3.148
X7.0063Y-1.9094
X7.6732Y-3.248
X7.8969Y-2.0047
X7.9232Y-3.148
X8.1469Y-1.9047
X8.8232Y-3.248
X9.0374Y-2.0142
X9.0732Y-3.148
X9.2874Y-1.9142
T0
M30
