%TF.GenerationSoftware,KiCad,Pcbnew,(6.0.7)*%
%TF.CreationDate,2022-08-16T08:24:38+10:00*%
%TF.ProjectId,Flatbox-rev1_1,466c6174-626f-4782-9d72-6576315f312e,rev?*%
%TF.SameCoordinates,Original*%
%TF.FileFunction,Legend,Bot*%
%TF.FilePolarity,Positive*%
%FSLAX46Y46*%
G04 Gerber Fmt 4.6, Leading zero omitted, Abs format (unit mm)*
G04 Created by KiCad (PCBNEW (6.0.7)) date 2022-08-16 08:24:38*
%MOMM*%
%LPD*%
G01*
G04 APERTURE LIST*
G04 Aperture macros list*
%AMRoundRect*
0 Rectangle with rounded corners*
0 $1 Rounding radius*
0 $2 $3 $4 $5 $6 $7 $8 $9 X,Y pos of 4 corners*
0 Add a 4 corners polygon primitive as box body*
4,1,4,$2,$3,$4,$5,$6,$7,$8,$9,$2,$3,0*
0 Add four circle primitives for the rounded corners*
1,1,$1+$1,$2,$3*
1,1,$1+$1,$4,$5*
1,1,$1+$1,$6,$7*
1,1,$1+$1,$8,$9*
0 Add four rect primitives between the rounded corners*
20,1,$1+$1,$2,$3,$4,$5,0*
20,1,$1+$1,$4,$5,$6,$7,0*
20,1,$1+$1,$6,$7,$8,$9,0*
20,1,$1+$1,$8,$9,$2,$3,0*%
G04 Aperture macros list end*
%ADD10C,0.120000*%
%ADD11C,0.150000*%
%ADD12C,3.600000*%
%ADD13RoundRect,0.250000X-1.025000X-1.000000X1.025000X-1.000000X1.025000X1.000000X-1.025000X1.000000X0*%
%ADD14C,4.000000*%
%ADD15C,1.750000*%
%ADD16C,6.400000*%
%ADD17C,2.000000*%
%ADD18R,1.600000X1.600000*%
%ADD19C,1.600000*%
G04 APERTURE END LIST*
D10*
X34000000Y-82000000D02*
G75*
G03*
X32000000Y-84000000I0J-2000000D01*
G01*
X37900000Y-86200000D02*
G75*
G03*
X35900000Y-88200000I0J-2000000D01*
G01*
X34000000Y-82000000D02*
X39100000Y-82000000D01*
X37900000Y-86200000D02*
X43000000Y-86200000D01*
X127320000Y-122720000D02*
G75*
G03*
X125320000Y-124720000I0J-2000000D01*
G01*
X131220000Y-126920000D02*
G75*
G03*
X129220000Y-128920000I0J-2000000D01*
G01*
X127320000Y-122720000D02*
X132420000Y-122720000D01*
X131220000Y-126920000D02*
X136320000Y-126920000D01*
X223820000Y-78140000D02*
G75*
G03*
X221820000Y-80140000I0J-2000000D01*
G01*
X227720000Y-82340000D02*
G75*
G03*
X225720000Y-84340000I0J-2000000D01*
G01*
X223820000Y-78140000D02*
X228920000Y-78140000D01*
X227720000Y-82340000D02*
X232820000Y-82340000D01*
X194610000Y-78140000D02*
G75*
G03*
X192610000Y-80140000I0J-2000000D01*
G01*
X198510000Y-82340000D02*
G75*
G03*
X196510000Y-84340000I0J-2000000D01*
G01*
X194610000Y-78140000D02*
X199710000Y-78140000D01*
X198510000Y-82340000D02*
X203610000Y-82340000D01*
X165760000Y-78140000D02*
G75*
G03*
X163760000Y-80140000I0J-2000000D01*
G01*
X169660000Y-82340000D02*
G75*
G03*
X167660000Y-84340000I0J-2000000D01*
G01*
X165760000Y-78140000D02*
X170860000Y-78140000D01*
X169660000Y-82340000D02*
X174760000Y-82340000D01*
X139150000Y-89250000D02*
G75*
G03*
X137150000Y-91250000I0J-2000000D01*
G01*
X143050000Y-93450000D02*
G75*
G03*
X141050000Y-95450000I0J-2000000D01*
G01*
X139150000Y-89250000D02*
X144250000Y-89250000D01*
X143050000Y-93450000D02*
X148150000Y-93450000D01*
X229260000Y-46800000D02*
G75*
G03*
X227260000Y-48800000I0J-2000000D01*
G01*
X233160000Y-51000000D02*
G75*
G03*
X231160000Y-53000000I0J-2000000D01*
G01*
X229260000Y-46800000D02*
X234360000Y-46800000D01*
X233160000Y-51000000D02*
X238260000Y-51000000D01*
X200290000Y-46560000D02*
G75*
G03*
X198290000Y-48560000I0J-2000000D01*
G01*
X204190000Y-50760000D02*
G75*
G03*
X202190000Y-52760000I0J-2000000D01*
G01*
X200290000Y-46560000D02*
X205390000Y-46560000D01*
X204190000Y-50760000D02*
X209290000Y-50760000D01*
X171320000Y-46680000D02*
G75*
G03*
X169320000Y-48680000I0J-2000000D01*
G01*
X175220000Y-50880000D02*
G75*
G03*
X173220000Y-52880000I0J-2000000D01*
G01*
X171320000Y-46680000D02*
X176420000Y-46680000D01*
X175220000Y-50880000D02*
X180320000Y-50880000D01*
X144760000Y-58210000D02*
G75*
G03*
X142760000Y-60210000I0J-2000000D01*
G01*
X148660000Y-62410000D02*
G75*
G03*
X146660000Y-64410000I0J-2000000D01*
G01*
X144760000Y-58210000D02*
X149860000Y-58210000D01*
X148660000Y-62410000D02*
X153760000Y-62410000D01*
X109820000Y-69620000D02*
G75*
G03*
X107820000Y-71620000I0J-2000000D01*
G01*
X113720000Y-73820000D02*
G75*
G03*
X111720000Y-75820000I0J-2000000D01*
G01*
X109820000Y-69620000D02*
X114920000Y-69620000D01*
X113720000Y-73820000D02*
X118820000Y-73820000D01*
X83220000Y-58270000D02*
G75*
G03*
X81220000Y-60270000I0J-2000000D01*
G01*
X87120000Y-62470000D02*
G75*
G03*
X85120000Y-64470000I0J-2000000D01*
G01*
X83220000Y-58270000D02*
X88320000Y-58270000D01*
X87120000Y-62470000D02*
X92220000Y-62470000D01*
X54125000Y-58150000D02*
G75*
G03*
X52125000Y-60150000I0J-2000000D01*
G01*
X58025000Y-62350000D02*
G75*
G03*
X56025000Y-64350000I0J-2000000D01*
G01*
X54125000Y-58150000D02*
X59225000Y-58150000D01*
X58025000Y-62350000D02*
X63125000Y-62350000D01*
D11*
X129810000Y-30010000D02*
X134890000Y-30010000D01*
X117110000Y-60490000D02*
X117110000Y-30010000D01*
X122190000Y-30010000D02*
X122190000Y-27470000D01*
X122190000Y-27470000D02*
X129810000Y-27470000D01*
X134890000Y-30010000D02*
X134890000Y-60490000D01*
X129810000Y-27470000D02*
X129810000Y-30010000D01*
X117110000Y-30010000D02*
X122190000Y-30010000D01*
X134890000Y-60490000D02*
X117110000Y-60490000D01*
%LPC*%
D12*
X34290000Y-86360000D03*
X40640000Y-83820000D03*
D13*
X31015000Y-86360000D03*
X43942000Y-83820000D03*
D14*
X38100000Y-88900000D03*
D15*
X33020000Y-88900000D03*
X43180000Y-88900000D03*
D12*
X127610000Y-127080000D03*
X133960000Y-124540000D03*
D13*
X124335000Y-127080000D03*
X137262000Y-124540000D03*
D14*
X131420000Y-129620000D03*
D15*
X126340000Y-129620000D03*
X136500000Y-129620000D03*
D12*
X224110000Y-82500000D03*
X230460000Y-79960000D03*
D13*
X220835000Y-82500000D03*
X233762000Y-79960000D03*
D14*
X227920000Y-85040000D03*
D15*
X222840000Y-85040000D03*
X233000000Y-85040000D03*
D12*
X194900000Y-82500000D03*
X201250000Y-79960000D03*
D13*
X191625000Y-82500000D03*
X204552000Y-79960000D03*
D14*
X198710000Y-85040000D03*
D15*
X193630000Y-85040000D03*
X203790000Y-85040000D03*
D12*
X166050000Y-82500000D03*
X172400000Y-79960000D03*
D13*
X162775000Y-82500000D03*
X175702000Y-79960000D03*
D14*
X169860000Y-85040000D03*
D15*
X164780000Y-85040000D03*
X174940000Y-85040000D03*
D12*
X139440000Y-93610000D03*
X145790000Y-91070000D03*
D13*
X136165000Y-93610000D03*
X149092000Y-91070000D03*
D14*
X143250000Y-96150000D03*
D15*
X138170000Y-96150000D03*
X148330000Y-96150000D03*
D12*
X229550000Y-51160000D03*
X235900000Y-48620000D03*
D13*
X226275000Y-51160000D03*
X239202000Y-48620000D03*
D14*
X233360000Y-53700000D03*
D15*
X228280000Y-53700000D03*
X238440000Y-53700000D03*
D12*
X200580000Y-50920000D03*
X206930000Y-48380000D03*
D13*
X197305000Y-50920000D03*
X210232000Y-48380000D03*
D14*
X204390000Y-53460000D03*
D15*
X199310000Y-53460000D03*
X209470000Y-53460000D03*
D12*
X171610000Y-51040000D03*
X177960000Y-48500000D03*
D13*
X168335000Y-51040000D03*
X181262000Y-48500000D03*
D14*
X175420000Y-53580000D03*
D15*
X170340000Y-53580000D03*
X180500000Y-53580000D03*
D12*
X145050000Y-62570000D03*
X151400000Y-60030000D03*
D13*
X141775000Y-62570000D03*
X154702000Y-60030000D03*
D14*
X148860000Y-65110000D03*
D15*
X143780000Y-65110000D03*
X153940000Y-65110000D03*
D12*
X110110000Y-73980000D03*
X116460000Y-71440000D03*
D13*
X106835000Y-73980000D03*
X119762000Y-71440000D03*
D14*
X113920000Y-76520000D03*
D15*
X108840000Y-76520000D03*
X119000000Y-76520000D03*
D12*
X83510000Y-62630000D03*
X89860000Y-60090000D03*
D13*
X80235000Y-62630000D03*
X93162000Y-60090000D03*
D14*
X87320000Y-65170000D03*
D15*
X82240000Y-65170000D03*
X92400000Y-65170000D03*
D12*
X54415000Y-62510000D03*
X60765000Y-59970000D03*
D13*
X51140000Y-62510000D03*
X64067000Y-59970000D03*
D14*
X58225000Y-65050000D03*
D15*
X53145000Y-65050000D03*
X63305000Y-65050000D03*
D16*
X29860000Y-37000000D03*
X29860000Y-143000000D03*
X243000000Y-143000000D03*
X243000000Y-37000000D03*
X150000000Y-37000000D03*
D17*
X88500000Y-36500000D03*
X88500000Y-43000000D03*
X93000000Y-36500000D03*
X93000000Y-43000000D03*
X65500000Y-43000000D03*
X65500000Y-36500000D03*
X70000000Y-36500000D03*
X70000000Y-43000000D03*
X98500000Y-43000000D03*
X98500000Y-36500000D03*
X103000000Y-36500000D03*
X103000000Y-43000000D03*
X55500000Y-36500000D03*
X55500000Y-43000000D03*
X60000000Y-43000000D03*
X60000000Y-36500000D03*
X75500000Y-36500000D03*
X75500000Y-43000000D03*
X80000000Y-36500000D03*
X80000000Y-43000000D03*
X108500000Y-36500000D03*
X108500000Y-43000000D03*
X113000000Y-36500000D03*
X113000000Y-43000000D03*
D16*
X133500000Y-78000000D03*
X150000000Y-143000000D03*
D18*
X118380000Y-31280000D03*
D19*
X118380000Y-33820000D03*
X118380000Y-36360000D03*
X118380000Y-38900000D03*
X118380000Y-41440000D03*
X118380000Y-43980000D03*
X118380000Y-46520000D03*
X118380000Y-49060000D03*
X118380000Y-51600000D03*
X118380000Y-54140000D03*
X118380000Y-56680000D03*
X118380000Y-59220000D03*
X133620000Y-59220000D03*
X133620000Y-56680000D03*
X133620000Y-54140000D03*
X133620000Y-51600000D03*
X133620000Y-49060000D03*
X133620000Y-46520000D03*
X133620000Y-43980000D03*
X133620000Y-41440000D03*
X133620000Y-38900000D03*
X133620000Y-36360000D03*
X133620000Y-33820000D03*
X133620000Y-31280000D03*
M02*
