M48
; DRILL file {KiCad (6.0.7)} date Tue Aug 16 08:24:45 2022
; FORMAT={-:-/ absolute / inch / decimal}
; #@! TF.CreationDate,2022-08-16T08:24:45+10:00
; #@! TF.GenerationSoftware,Kicad,Pcbnew,(6.0.7)
; #@! TF.FileFunction,NonPlated,1,2,NPTH
FMAT,2
INCH
; #@! TA.AperFunction,NonPlated,NPTH,ComponentDrill
T1C0.0689
; #@! TA.AperFunction,NonPlated,NPTH,ComponentDrill
T2C0.1575
; #@! TA.AperFunction,NonPlated,NPTH,ComponentDrill
T3C0.2520
%
G90
G05
T1
X1.3Y-3.5
X1.7Y-3.5
X2.0923Y-2.561
X2.4923Y-2.561
X3.2378Y-2.5657
X3.6378Y-2.5657
X4.285Y-3.0126
X4.685Y-3.0126
X4.974Y-5.1031
X5.374Y-5.1031
X5.4398Y-3.7854
X5.6606Y-2.5634
X5.8398Y-3.7854
X6.0606Y-2.5634
X6.4874Y-3.348
X6.7063Y-2.1094
X6.8874Y-3.348
X7.1063Y-2.1094
X7.6232Y-3.348
X7.8469Y-2.1047
X8.0232Y-3.348
X8.2469Y-2.1047
X8.7732Y-3.348
X8.9874Y-2.1142
X9.1732Y-3.348
X9.3874Y-2.1142
T2
X1.5Y-3.5
X2.2923Y-2.561
X3.4378Y-2.5657
X4.485Y-3.0126
X5.174Y-5.1031
X5.6398Y-3.7854
X5.8606Y-2.5634
X6.6874Y-3.348
X6.9063Y-2.1094
X7.8232Y-3.348
X8.0469Y-2.1047
X8.9732Y-3.348
X9.1874Y-2.1142
T3
X1.1756Y-1.4567
X1.1756Y-5.6299
X5.2559Y-3.0709
X5.9055Y-1.4567
X5.9055Y-5.6299
X9.5669Y-1.4567
X9.5669Y-5.6299
T0
M30
