%TF.GenerationSoftware,KiCad,Pcbnew,(6.0.7)*%
%TF.CreationDate,2022-08-16T08:24:49+10:00*%
%TF.ProjectId,Flatbox-rev1_1,466c6174-626f-4782-9d72-6576315f312e,rev?*%
%TF.SameCoordinates,Original*%
%TF.FileFunction,Drillmap*%
%TF.FilePolarity,Positive*%
%FSLAX45Y45*%
G04 Gerber Fmt 4.5, Leading zero omitted, Abs format (unit mm)*
G04 Created by KiCad (PCBNEW (6.0.7)) date 2022-08-16 08:24:49*
%MOMM*%
%LPD*%
G01*
G04 APERTURE LIST*
%ADD10C,0.050000*%
%ADD11C,0.200000*%
%ADD12C,0.110000*%
%ADD13C,0.305000*%
G04 APERTURE END LIST*
D10*
X25000000Y-3500000D02*
X25000000Y-14500000D01*
X24500000Y-15000000D02*
X2786000Y-15000000D01*
X2286000Y-14500000D02*
X2286000Y-3500000D01*
X2786000Y-3000000D02*
X24500000Y-3000000D01*
X2286000Y-14500000D02*
G75*
G03*
X2786000Y-15000000I500000J0D01*
G01*
X24500000Y-15000000D02*
G75*
G03*
X25000000Y-14500000I0J500000D01*
G01*
X25000000Y-3500000D02*
G75*
G03*
X24500000Y-3000000I-500000J0D01*
G01*
X2786000Y-3000000D02*
G75*
G03*
X2286000Y-3500000I0J-500000D01*
G01*
D11*
D12*
X5495000Y-3595000D02*
X5605000Y-3705000D01*
X5605000Y-3595000D02*
X5495000Y-3705000D01*
X5495000Y-4245000D02*
X5605000Y-4355000D01*
X5605000Y-4245000D02*
X5495000Y-4355000D01*
X5945000Y-3595000D02*
X6055000Y-3705000D01*
X6055000Y-3595000D02*
X5945000Y-3705000D01*
X5945000Y-4245000D02*
X6055000Y-4355000D01*
X6055000Y-4245000D02*
X5945000Y-4355000D01*
X6495000Y-3595000D02*
X6605000Y-3705000D01*
X6605000Y-3595000D02*
X6495000Y-3705000D01*
X6495000Y-4245000D02*
X6605000Y-4355000D01*
X6605000Y-4245000D02*
X6495000Y-4355000D01*
X6945000Y-3595000D02*
X7055000Y-3705000D01*
X7055000Y-3595000D02*
X6945000Y-3705000D01*
X6945000Y-4245000D02*
X7055000Y-4355000D01*
X7055000Y-4245000D02*
X6945000Y-4355000D01*
X7495000Y-3595000D02*
X7605000Y-3705000D01*
X7605000Y-3595000D02*
X7495000Y-3705000D01*
X7495000Y-4245000D02*
X7605000Y-4355000D01*
X7605000Y-4245000D02*
X7495000Y-4355000D01*
X7945000Y-3595000D02*
X8055000Y-3705000D01*
X8055000Y-3595000D02*
X7945000Y-3705000D01*
X7945000Y-4245000D02*
X8055000Y-4355000D01*
X8055000Y-4245000D02*
X7945000Y-4355000D01*
X8795000Y-3595000D02*
X8905000Y-3705000D01*
X8905000Y-3595000D02*
X8795000Y-3705000D01*
X8795000Y-4245000D02*
X8905000Y-4355000D01*
X8905000Y-4245000D02*
X8795000Y-4355000D01*
X9245000Y-3595000D02*
X9355000Y-3705000D01*
X9355000Y-3595000D02*
X9245000Y-3705000D01*
X9245000Y-4245000D02*
X9355000Y-4355000D01*
X9355000Y-4245000D02*
X9245000Y-4355000D01*
X9795000Y-3595000D02*
X9905000Y-3705000D01*
X9905000Y-3595000D02*
X9795000Y-3705000D01*
X9795000Y-4245000D02*
X9905000Y-4355000D01*
X9905000Y-4245000D02*
X9795000Y-4355000D01*
X10245000Y-3595000D02*
X10355000Y-3705000D01*
X10355000Y-3595000D02*
X10245000Y-3705000D01*
X10245000Y-4245000D02*
X10355000Y-4355000D01*
X10355000Y-4245000D02*
X10245000Y-4355000D01*
X10795000Y-3595000D02*
X10905000Y-3705000D01*
X10905000Y-3595000D02*
X10795000Y-3705000D01*
X10795000Y-4245000D02*
X10905000Y-4355000D01*
X10905000Y-4245000D02*
X10795000Y-4355000D01*
X11245000Y-3595000D02*
X11355000Y-3705000D01*
X11355000Y-3595000D02*
X11245000Y-3705000D01*
X11245000Y-4245000D02*
X11355000Y-4355000D01*
X11355000Y-4245000D02*
X11245000Y-4355000D01*
X11783000Y-3073000D02*
X11893000Y-3183000D01*
X11893000Y-3073000D02*
X11783000Y-3183000D01*
X11783000Y-3327000D02*
X11893000Y-3437000D01*
X11893000Y-3327000D02*
X11783000Y-3437000D01*
X11783000Y-3581000D02*
X11893000Y-3691000D01*
X11893000Y-3581000D02*
X11783000Y-3691000D01*
X11783000Y-3835000D02*
X11893000Y-3945000D01*
X11893000Y-3835000D02*
X11783000Y-3945000D01*
X11783000Y-4089000D02*
X11893000Y-4199000D01*
X11893000Y-4089000D02*
X11783000Y-4199000D01*
X11783000Y-4343000D02*
X11893000Y-4453000D01*
X11893000Y-4343000D02*
X11783000Y-4453000D01*
X11783000Y-4597000D02*
X11893000Y-4707000D01*
X11893000Y-4597000D02*
X11783000Y-4707000D01*
X11783000Y-4851000D02*
X11893000Y-4961000D01*
X11893000Y-4851000D02*
X11783000Y-4961000D01*
X11783000Y-5105000D02*
X11893000Y-5215000D01*
X11893000Y-5105000D02*
X11783000Y-5215000D01*
X11783000Y-5359000D02*
X11893000Y-5469000D01*
X11893000Y-5359000D02*
X11783000Y-5469000D01*
X11783000Y-5613000D02*
X11893000Y-5723000D01*
X11893000Y-5613000D02*
X11783000Y-5723000D01*
X11783000Y-5867000D02*
X11893000Y-5977000D01*
X11893000Y-5867000D02*
X11783000Y-5977000D01*
X13307000Y-3073000D02*
X13417000Y-3183000D01*
X13417000Y-3073000D02*
X13307000Y-3183000D01*
X13307000Y-3327000D02*
X13417000Y-3437000D01*
X13417000Y-3327000D02*
X13307000Y-3437000D01*
X13307000Y-3581000D02*
X13417000Y-3691000D01*
X13417000Y-3581000D02*
X13307000Y-3691000D01*
X13307000Y-3835000D02*
X13417000Y-3945000D01*
X13417000Y-3835000D02*
X13307000Y-3945000D01*
X13307000Y-4089000D02*
X13417000Y-4199000D01*
X13417000Y-4089000D02*
X13307000Y-4199000D01*
X13307000Y-4343000D02*
X13417000Y-4453000D01*
X13417000Y-4343000D02*
X13307000Y-4453000D01*
X13307000Y-4597000D02*
X13417000Y-4707000D01*
X13417000Y-4597000D02*
X13307000Y-4707000D01*
X13307000Y-4851000D02*
X13417000Y-4961000D01*
X13417000Y-4851000D02*
X13307000Y-4961000D01*
X13307000Y-5105000D02*
X13417000Y-5215000D01*
X13417000Y-5105000D02*
X13307000Y-5215000D01*
X13307000Y-5359000D02*
X13417000Y-5469000D01*
X13417000Y-5359000D02*
X13307000Y-5469000D01*
X13307000Y-5613000D02*
X13417000Y-5723000D01*
X13417000Y-5613000D02*
X13307000Y-5723000D01*
X13307000Y-5867000D02*
X13417000Y-5977000D01*
X13417000Y-5867000D02*
X13307000Y-5977000D01*
D13*
X3581500Y-8636000D02*
G75*
G03*
X3581500Y-8636000I-152500J0D01*
G01*
X4216500Y-8382000D02*
G75*
G03*
X4216500Y-8382000I-152500J0D01*
G01*
X5594000Y-6251000D02*
G75*
G03*
X5594000Y-6251000I-152500J0D01*
G01*
X6229000Y-5997000D02*
G75*
G03*
X6229000Y-5997000I-152500J0D01*
G01*
X8503500Y-6263000D02*
G75*
G03*
X8503500Y-6263000I-152500J0D01*
G01*
X9138500Y-6009000D02*
G75*
G03*
X9138500Y-6009000I-152500J0D01*
G01*
X11163500Y-7398000D02*
G75*
G03*
X11163500Y-7398000I-152500J0D01*
G01*
X11798500Y-7144000D02*
G75*
G03*
X11798500Y-7144000I-152500J0D01*
G01*
X12913500Y-12708000D02*
G75*
G03*
X12913500Y-12708000I-152500J0D01*
G01*
X13548500Y-12454000D02*
G75*
G03*
X13548500Y-12454000I-152500J0D01*
G01*
X14096500Y-9361000D02*
G75*
G03*
X14096500Y-9361000I-152500J0D01*
G01*
X14657500Y-6257000D02*
G75*
G03*
X14657500Y-6257000I-152500J0D01*
G01*
X14731500Y-9107000D02*
G75*
G03*
X14731500Y-9107000I-152500J0D01*
G01*
X15292500Y-6003000D02*
G75*
G03*
X15292500Y-6003000I-152500J0D01*
G01*
X16757500Y-8250000D02*
G75*
G03*
X16757500Y-8250000I-152500J0D01*
G01*
X17313500Y-5104000D02*
G75*
G03*
X17313500Y-5104000I-152500J0D01*
G01*
X17392500Y-7996000D02*
G75*
G03*
X17392500Y-7996000I-152500J0D01*
G01*
X17948500Y-4850000D02*
G75*
G03*
X17948500Y-4850000I-152500J0D01*
G01*
X19642500Y-8250000D02*
G75*
G03*
X19642500Y-8250000I-152500J0D01*
G01*
X20210500Y-5092000D02*
G75*
G03*
X20210500Y-5092000I-152500J0D01*
G01*
X20277500Y-7996000D02*
G75*
G03*
X20277500Y-7996000I-152500J0D01*
G01*
X20845500Y-4838000D02*
G75*
G03*
X20845500Y-4838000I-152500J0D01*
G01*
X22563500Y-8250000D02*
G75*
G03*
X22563500Y-8250000I-152500J0D01*
G01*
X23107500Y-5116000D02*
G75*
G03*
X23107500Y-5116000I-152500J0D01*
G01*
X23198500Y-7996000D02*
G75*
G03*
X23198500Y-7996000I-152500J0D01*
G01*
X23742500Y-4862000D02*
G75*
G03*
X23742500Y-4862000I-152500J0D01*
G01*
D11*
X2541119Y-15312976D02*
X2541119Y-15112976D01*
X2588738Y-15112976D01*
X2617310Y-15122500D01*
X2636357Y-15141548D01*
X2645881Y-15160595D01*
X2655405Y-15198690D01*
X2655405Y-15227262D01*
X2645881Y-15265357D01*
X2636357Y-15284405D01*
X2617310Y-15303452D01*
X2588738Y-15312976D01*
X2541119Y-15312976D01*
X2741119Y-15312976D02*
X2741119Y-15179643D01*
X2741119Y-15217738D02*
X2750643Y-15198690D01*
X2760167Y-15189167D01*
X2779214Y-15179643D01*
X2798262Y-15179643D01*
X2864928Y-15312976D02*
X2864928Y-15179643D01*
X2864928Y-15112976D02*
X2855405Y-15122500D01*
X2864928Y-15132024D01*
X2874452Y-15122500D01*
X2864928Y-15112976D01*
X2864928Y-15132024D01*
X2988738Y-15312976D02*
X2969690Y-15303452D01*
X2960167Y-15284405D01*
X2960167Y-15112976D01*
X3093500Y-15312976D02*
X3074452Y-15303452D01*
X3064928Y-15284405D01*
X3064928Y-15112976D01*
X3322071Y-15312976D02*
X3322071Y-15112976D01*
X3388738Y-15255833D01*
X3455405Y-15112976D01*
X3455405Y-15312976D01*
X3636357Y-15312976D02*
X3636357Y-15208214D01*
X3626833Y-15189167D01*
X3607786Y-15179643D01*
X3569690Y-15179643D01*
X3550643Y-15189167D01*
X3636357Y-15303452D02*
X3617309Y-15312976D01*
X3569690Y-15312976D01*
X3550643Y-15303452D01*
X3541119Y-15284405D01*
X3541119Y-15265357D01*
X3550643Y-15246309D01*
X3569690Y-15236786D01*
X3617309Y-15236786D01*
X3636357Y-15227262D01*
X3731595Y-15179643D02*
X3731595Y-15379643D01*
X3731595Y-15189167D02*
X3750643Y-15179643D01*
X3788738Y-15179643D01*
X3807786Y-15189167D01*
X3817309Y-15198690D01*
X3826833Y-15217738D01*
X3826833Y-15274881D01*
X3817309Y-15293928D01*
X3807786Y-15303452D01*
X3788738Y-15312976D01*
X3750643Y-15312976D01*
X3731595Y-15303452D01*
X3912548Y-15293928D02*
X3922071Y-15303452D01*
X3912548Y-15312976D01*
X3903024Y-15303452D01*
X3912548Y-15293928D01*
X3912548Y-15312976D01*
X3912548Y-15189167D02*
X3922071Y-15198690D01*
X3912548Y-15208214D01*
X3903024Y-15198690D01*
X3912548Y-15189167D01*
X3912548Y-15208214D01*
D12*
X2173500Y-15587500D02*
X2283500Y-15697500D01*
X2283500Y-15587500D02*
X2173500Y-15697500D01*
D11*
X2645881Y-15732976D02*
X2531595Y-15732976D01*
X2588738Y-15732976D02*
X2588738Y-15532976D01*
X2569690Y-15561548D01*
X2550643Y-15580595D01*
X2531595Y-15590119D01*
X2731595Y-15713928D02*
X2741119Y-15723452D01*
X2731595Y-15732976D01*
X2722071Y-15723452D01*
X2731595Y-15713928D01*
X2731595Y-15732976D01*
X2931595Y-15732976D02*
X2817309Y-15732976D01*
X2874452Y-15732976D02*
X2874452Y-15532976D01*
X2855405Y-15561548D01*
X2836357Y-15580595D01*
X2817309Y-15590119D01*
X3055405Y-15532976D02*
X3074452Y-15532976D01*
X3093500Y-15542500D01*
X3103024Y-15552024D01*
X3112548Y-15571071D01*
X3122071Y-15609167D01*
X3122071Y-15656786D01*
X3112548Y-15694881D01*
X3103024Y-15713928D01*
X3093500Y-15723452D01*
X3074452Y-15732976D01*
X3055405Y-15732976D01*
X3036357Y-15723452D01*
X3026833Y-15713928D01*
X3017309Y-15694881D01*
X3007786Y-15656786D01*
X3007786Y-15609167D01*
X3017309Y-15571071D01*
X3026833Y-15552024D01*
X3036357Y-15542500D01*
X3055405Y-15532976D01*
X3245881Y-15532976D02*
X3264928Y-15532976D01*
X3283976Y-15542500D01*
X3293500Y-15552024D01*
X3303024Y-15571071D01*
X3312548Y-15609167D01*
X3312548Y-15656786D01*
X3303024Y-15694881D01*
X3293500Y-15713928D01*
X3283976Y-15723452D01*
X3264928Y-15732976D01*
X3245881Y-15732976D01*
X3226833Y-15723452D01*
X3217309Y-15713928D01*
X3207786Y-15694881D01*
X3198262Y-15656786D01*
X3198262Y-15609167D01*
X3207786Y-15571071D01*
X3217309Y-15552024D01*
X3226833Y-15542500D01*
X3245881Y-15532976D01*
X3398262Y-15732976D02*
X3398262Y-15599643D01*
X3398262Y-15618690D02*
X3407786Y-15609167D01*
X3426833Y-15599643D01*
X3455405Y-15599643D01*
X3474452Y-15609167D01*
X3483976Y-15628214D01*
X3483976Y-15732976D01*
X3483976Y-15628214D02*
X3493500Y-15609167D01*
X3512548Y-15599643D01*
X3541119Y-15599643D01*
X3560167Y-15609167D01*
X3569690Y-15628214D01*
X3569690Y-15732976D01*
X3664928Y-15732976D02*
X3664928Y-15599643D01*
X3664928Y-15618690D02*
X3674452Y-15609167D01*
X3693500Y-15599643D01*
X3722071Y-15599643D01*
X3741119Y-15609167D01*
X3750643Y-15628214D01*
X3750643Y-15732976D01*
X3750643Y-15628214D02*
X3760167Y-15609167D01*
X3779214Y-15599643D01*
X3807786Y-15599643D01*
X3826833Y-15609167D01*
X3836357Y-15628214D01*
X3836357Y-15732976D01*
X4226833Y-15523452D02*
X4055405Y-15780595D01*
X4483976Y-15532976D02*
X4503024Y-15532976D01*
X4522071Y-15542500D01*
X4531595Y-15552024D01*
X4541119Y-15571071D01*
X4550643Y-15609167D01*
X4550643Y-15656786D01*
X4541119Y-15694881D01*
X4531595Y-15713928D01*
X4522071Y-15723452D01*
X4503024Y-15732976D01*
X4483976Y-15732976D01*
X4464929Y-15723452D01*
X4455405Y-15713928D01*
X4445881Y-15694881D01*
X4436357Y-15656786D01*
X4436357Y-15609167D01*
X4445881Y-15571071D01*
X4455405Y-15552024D01*
X4464929Y-15542500D01*
X4483976Y-15532976D01*
X4636357Y-15713928D02*
X4645881Y-15723452D01*
X4636357Y-15732976D01*
X4626833Y-15723452D01*
X4636357Y-15713928D01*
X4636357Y-15732976D01*
X4769690Y-15532976D02*
X4788738Y-15532976D01*
X4807786Y-15542500D01*
X4817310Y-15552024D01*
X4826833Y-15571071D01*
X4836357Y-15609167D01*
X4836357Y-15656786D01*
X4826833Y-15694881D01*
X4817310Y-15713928D01*
X4807786Y-15723452D01*
X4788738Y-15732976D01*
X4769690Y-15732976D01*
X4750643Y-15723452D01*
X4741119Y-15713928D01*
X4731595Y-15694881D01*
X4722071Y-15656786D01*
X4722071Y-15609167D01*
X4731595Y-15571071D01*
X4741119Y-15552024D01*
X4750643Y-15542500D01*
X4769690Y-15532976D01*
X5007786Y-15599643D02*
X5007786Y-15732976D01*
X4960167Y-15523452D02*
X4912548Y-15666309D01*
X5036357Y-15666309D01*
X5093500Y-15532976D02*
X5217310Y-15532976D01*
X5150643Y-15609167D01*
X5179214Y-15609167D01*
X5198262Y-15618690D01*
X5207786Y-15628214D01*
X5217310Y-15647262D01*
X5217310Y-15694881D01*
X5207786Y-15713928D01*
X5198262Y-15723452D01*
X5179214Y-15732976D01*
X5122071Y-15732976D01*
X5103024Y-15723452D01*
X5093500Y-15713928D01*
X5283976Y-15532976D02*
X5407786Y-15532976D01*
X5341119Y-15609167D01*
X5369690Y-15609167D01*
X5388738Y-15618690D01*
X5398262Y-15628214D01*
X5407786Y-15647262D01*
X5407786Y-15694881D01*
X5398262Y-15713928D01*
X5388738Y-15723452D01*
X5369690Y-15732976D01*
X5312548Y-15732976D01*
X5293500Y-15723452D01*
X5283976Y-15713928D01*
X5483976Y-15532976D02*
X5483976Y-15571071D01*
X5560167Y-15532976D02*
X5560167Y-15571071D01*
X5855405Y-15809167D02*
X5845881Y-15799643D01*
X5826833Y-15771071D01*
X5817309Y-15752024D01*
X5807786Y-15723452D01*
X5798262Y-15675833D01*
X5798262Y-15637738D01*
X5807786Y-15590119D01*
X5817309Y-15561548D01*
X5826833Y-15542500D01*
X5845881Y-15513928D01*
X5855405Y-15504405D01*
X6017309Y-15599643D02*
X6017309Y-15732976D01*
X5969690Y-15523452D02*
X5922071Y-15666309D01*
X6045881Y-15666309D01*
X6150643Y-15618690D02*
X6131595Y-15609167D01*
X6122071Y-15599643D01*
X6112548Y-15580595D01*
X6112548Y-15571071D01*
X6122071Y-15552024D01*
X6131595Y-15542500D01*
X6150643Y-15532976D01*
X6188738Y-15532976D01*
X6207786Y-15542500D01*
X6217309Y-15552024D01*
X6226833Y-15571071D01*
X6226833Y-15580595D01*
X6217309Y-15599643D01*
X6207786Y-15609167D01*
X6188738Y-15618690D01*
X6150643Y-15618690D01*
X6131595Y-15628214D01*
X6122071Y-15637738D01*
X6112548Y-15656786D01*
X6112548Y-15694881D01*
X6122071Y-15713928D01*
X6131595Y-15723452D01*
X6150643Y-15732976D01*
X6188738Y-15732976D01*
X6207786Y-15723452D01*
X6217309Y-15713928D01*
X6226833Y-15694881D01*
X6226833Y-15656786D01*
X6217309Y-15637738D01*
X6207786Y-15628214D01*
X6188738Y-15618690D01*
X6464928Y-15732976D02*
X6464928Y-15532976D01*
X6550643Y-15732976D02*
X6550643Y-15628214D01*
X6541119Y-15609167D01*
X6522071Y-15599643D01*
X6493500Y-15599643D01*
X6474452Y-15609167D01*
X6464928Y-15618690D01*
X6674452Y-15732976D02*
X6655405Y-15723452D01*
X6645881Y-15713928D01*
X6636357Y-15694881D01*
X6636357Y-15637738D01*
X6645881Y-15618690D01*
X6655405Y-15609167D01*
X6674452Y-15599643D01*
X6703024Y-15599643D01*
X6722071Y-15609167D01*
X6731595Y-15618690D01*
X6741119Y-15637738D01*
X6741119Y-15694881D01*
X6731595Y-15713928D01*
X6722071Y-15723452D01*
X6703024Y-15732976D01*
X6674452Y-15732976D01*
X6855405Y-15732976D02*
X6836357Y-15723452D01*
X6826833Y-15704405D01*
X6826833Y-15532976D01*
X7007786Y-15723452D02*
X6988738Y-15732976D01*
X6950643Y-15732976D01*
X6931595Y-15723452D01*
X6922071Y-15704405D01*
X6922071Y-15628214D01*
X6931595Y-15609167D01*
X6950643Y-15599643D01*
X6988738Y-15599643D01*
X7007786Y-15609167D01*
X7017309Y-15628214D01*
X7017309Y-15647262D01*
X6922071Y-15666309D01*
X7093500Y-15723452D02*
X7112548Y-15732976D01*
X7150643Y-15732976D01*
X7169690Y-15723452D01*
X7179214Y-15704405D01*
X7179214Y-15694881D01*
X7169690Y-15675833D01*
X7150643Y-15666309D01*
X7122071Y-15666309D01*
X7103024Y-15656786D01*
X7093500Y-15637738D01*
X7093500Y-15628214D01*
X7103024Y-15609167D01*
X7122071Y-15599643D01*
X7150643Y-15599643D01*
X7169690Y-15609167D01*
X7245881Y-15809167D02*
X7255405Y-15799643D01*
X7274452Y-15771071D01*
X7283976Y-15752024D01*
X7293500Y-15723452D01*
X7303024Y-15675833D01*
X7303024Y-15637738D01*
X7293500Y-15590119D01*
X7283976Y-15561548D01*
X7274452Y-15542500D01*
X7255405Y-15513928D01*
X7245881Y-15504405D01*
X2283500Y-15906500D02*
G75*
G03*
X2283500Y-15906500I-100000J0D01*
G01*
X2522071Y-15796976D02*
X2645881Y-15796976D01*
X2579214Y-15873167D01*
X2607786Y-15873167D01*
X2626833Y-15882690D01*
X2636357Y-15892214D01*
X2645881Y-15911262D01*
X2645881Y-15958881D01*
X2636357Y-15977928D01*
X2626833Y-15987452D01*
X2607786Y-15996976D01*
X2550643Y-15996976D01*
X2531595Y-15987452D01*
X2522071Y-15977928D01*
X2731595Y-15977928D02*
X2741119Y-15987452D01*
X2731595Y-15996976D01*
X2722071Y-15987452D01*
X2731595Y-15977928D01*
X2731595Y-15996976D01*
X2864928Y-15796976D02*
X2883976Y-15796976D01*
X2903024Y-15806500D01*
X2912548Y-15816024D01*
X2922071Y-15835071D01*
X2931595Y-15873167D01*
X2931595Y-15920786D01*
X2922071Y-15958881D01*
X2912548Y-15977928D01*
X2903024Y-15987452D01*
X2883976Y-15996976D01*
X2864928Y-15996976D01*
X2845881Y-15987452D01*
X2836357Y-15977928D01*
X2826833Y-15958881D01*
X2817309Y-15920786D01*
X2817309Y-15873167D01*
X2826833Y-15835071D01*
X2836357Y-15816024D01*
X2845881Y-15806500D01*
X2864928Y-15796976D01*
X3112548Y-15796976D02*
X3017309Y-15796976D01*
X3007786Y-15892214D01*
X3017309Y-15882690D01*
X3036357Y-15873167D01*
X3083976Y-15873167D01*
X3103024Y-15882690D01*
X3112548Y-15892214D01*
X3122071Y-15911262D01*
X3122071Y-15958881D01*
X3112548Y-15977928D01*
X3103024Y-15987452D01*
X3083976Y-15996976D01*
X3036357Y-15996976D01*
X3017309Y-15987452D01*
X3007786Y-15977928D01*
X3245881Y-15796976D02*
X3264928Y-15796976D01*
X3283976Y-15806500D01*
X3293500Y-15816024D01*
X3303024Y-15835071D01*
X3312548Y-15873167D01*
X3312548Y-15920786D01*
X3303024Y-15958881D01*
X3293500Y-15977928D01*
X3283976Y-15987452D01*
X3264928Y-15996976D01*
X3245881Y-15996976D01*
X3226833Y-15987452D01*
X3217309Y-15977928D01*
X3207786Y-15958881D01*
X3198262Y-15920786D01*
X3198262Y-15873167D01*
X3207786Y-15835071D01*
X3217309Y-15816024D01*
X3226833Y-15806500D01*
X3245881Y-15796976D01*
X3398262Y-15996976D02*
X3398262Y-15863643D01*
X3398262Y-15882690D02*
X3407786Y-15873167D01*
X3426833Y-15863643D01*
X3455405Y-15863643D01*
X3474452Y-15873167D01*
X3483976Y-15892214D01*
X3483976Y-15996976D01*
X3483976Y-15892214D02*
X3493500Y-15873167D01*
X3512548Y-15863643D01*
X3541119Y-15863643D01*
X3560167Y-15873167D01*
X3569690Y-15892214D01*
X3569690Y-15996976D01*
X3664928Y-15996976D02*
X3664928Y-15863643D01*
X3664928Y-15882690D02*
X3674452Y-15873167D01*
X3693500Y-15863643D01*
X3722071Y-15863643D01*
X3741119Y-15873167D01*
X3750643Y-15892214D01*
X3750643Y-15996976D01*
X3750643Y-15892214D02*
X3760167Y-15873167D01*
X3779214Y-15863643D01*
X3807786Y-15863643D01*
X3826833Y-15873167D01*
X3836357Y-15892214D01*
X3836357Y-15996976D01*
X4226833Y-15787452D02*
X4055405Y-16044595D01*
X4483976Y-15796976D02*
X4503024Y-15796976D01*
X4522071Y-15806500D01*
X4531595Y-15816024D01*
X4541119Y-15835071D01*
X4550643Y-15873167D01*
X4550643Y-15920786D01*
X4541119Y-15958881D01*
X4531595Y-15977928D01*
X4522071Y-15987452D01*
X4503024Y-15996976D01*
X4483976Y-15996976D01*
X4464929Y-15987452D01*
X4455405Y-15977928D01*
X4445881Y-15958881D01*
X4436357Y-15920786D01*
X4436357Y-15873167D01*
X4445881Y-15835071D01*
X4455405Y-15816024D01*
X4464929Y-15806500D01*
X4483976Y-15796976D01*
X4636357Y-15977928D02*
X4645881Y-15987452D01*
X4636357Y-15996976D01*
X4626833Y-15987452D01*
X4636357Y-15977928D01*
X4636357Y-15996976D01*
X4836357Y-15996976D02*
X4722071Y-15996976D01*
X4779214Y-15996976D02*
X4779214Y-15796976D01*
X4760167Y-15825548D01*
X4741119Y-15844595D01*
X4722071Y-15854119D01*
X4912548Y-15816024D02*
X4922071Y-15806500D01*
X4941119Y-15796976D01*
X4988738Y-15796976D01*
X5007786Y-15806500D01*
X5017310Y-15816024D01*
X5026833Y-15835071D01*
X5026833Y-15854119D01*
X5017310Y-15882690D01*
X4903024Y-15996976D01*
X5026833Y-15996976D01*
X5150643Y-15796976D02*
X5169690Y-15796976D01*
X5188738Y-15806500D01*
X5198262Y-15816024D01*
X5207786Y-15835071D01*
X5217310Y-15873167D01*
X5217310Y-15920786D01*
X5207786Y-15958881D01*
X5198262Y-15977928D01*
X5188738Y-15987452D01*
X5169690Y-15996976D01*
X5150643Y-15996976D01*
X5131595Y-15987452D01*
X5122071Y-15977928D01*
X5112548Y-15958881D01*
X5103024Y-15920786D01*
X5103024Y-15873167D01*
X5112548Y-15835071D01*
X5122071Y-15816024D01*
X5131595Y-15806500D01*
X5150643Y-15796976D01*
X5407786Y-15996976D02*
X5293500Y-15996976D01*
X5350643Y-15996976D02*
X5350643Y-15796976D01*
X5331595Y-15825548D01*
X5312548Y-15844595D01*
X5293500Y-15854119D01*
X5483976Y-15796976D02*
X5483976Y-15835071D01*
X5560167Y-15796976D02*
X5560167Y-15835071D01*
X5855405Y-16073167D02*
X5845881Y-16063643D01*
X5826833Y-16035071D01*
X5817309Y-16016024D01*
X5807786Y-15987452D01*
X5798262Y-15939833D01*
X5798262Y-15901738D01*
X5807786Y-15854119D01*
X5817309Y-15825548D01*
X5826833Y-15806500D01*
X5845881Y-15777928D01*
X5855405Y-15768405D01*
X5922071Y-15816024D02*
X5931595Y-15806500D01*
X5950643Y-15796976D01*
X5998262Y-15796976D01*
X6017309Y-15806500D01*
X6026833Y-15816024D01*
X6036357Y-15835071D01*
X6036357Y-15854119D01*
X6026833Y-15882690D01*
X5912548Y-15996976D01*
X6036357Y-15996976D01*
X6207786Y-15796976D02*
X6169690Y-15796976D01*
X6150643Y-15806500D01*
X6141119Y-15816024D01*
X6122071Y-15844595D01*
X6112548Y-15882690D01*
X6112548Y-15958881D01*
X6122071Y-15977928D01*
X6131595Y-15987452D01*
X6150643Y-15996976D01*
X6188738Y-15996976D01*
X6207786Y-15987452D01*
X6217309Y-15977928D01*
X6226833Y-15958881D01*
X6226833Y-15911262D01*
X6217309Y-15892214D01*
X6207786Y-15882690D01*
X6188738Y-15873167D01*
X6150643Y-15873167D01*
X6131595Y-15882690D01*
X6122071Y-15892214D01*
X6112548Y-15911262D01*
X6464928Y-15996976D02*
X6464928Y-15796976D01*
X6550643Y-15996976D02*
X6550643Y-15892214D01*
X6541119Y-15873167D01*
X6522071Y-15863643D01*
X6493500Y-15863643D01*
X6474452Y-15873167D01*
X6464928Y-15882690D01*
X6674452Y-15996976D02*
X6655405Y-15987452D01*
X6645881Y-15977928D01*
X6636357Y-15958881D01*
X6636357Y-15901738D01*
X6645881Y-15882690D01*
X6655405Y-15873167D01*
X6674452Y-15863643D01*
X6703024Y-15863643D01*
X6722071Y-15873167D01*
X6731595Y-15882690D01*
X6741119Y-15901738D01*
X6741119Y-15958881D01*
X6731595Y-15977928D01*
X6722071Y-15987452D01*
X6703024Y-15996976D01*
X6674452Y-15996976D01*
X6855405Y-15996976D02*
X6836357Y-15987452D01*
X6826833Y-15968405D01*
X6826833Y-15796976D01*
X7007786Y-15987452D02*
X6988738Y-15996976D01*
X6950643Y-15996976D01*
X6931595Y-15987452D01*
X6922071Y-15968405D01*
X6922071Y-15892214D01*
X6931595Y-15873167D01*
X6950643Y-15863643D01*
X6988738Y-15863643D01*
X7007786Y-15873167D01*
X7017309Y-15892214D01*
X7017309Y-15911262D01*
X6922071Y-15930309D01*
X7093500Y-15987452D02*
X7112548Y-15996976D01*
X7150643Y-15996976D01*
X7169690Y-15987452D01*
X7179214Y-15968405D01*
X7179214Y-15958881D01*
X7169690Y-15939833D01*
X7150643Y-15930309D01*
X7122071Y-15930309D01*
X7103024Y-15920786D01*
X7093500Y-15901738D01*
X7093500Y-15892214D01*
X7103024Y-15873167D01*
X7122071Y-15863643D01*
X7150643Y-15863643D01*
X7169690Y-15873167D01*
X7245881Y-16073167D02*
X7255405Y-16063643D01*
X7274452Y-16035071D01*
X7283976Y-16016024D01*
X7293500Y-15987452D01*
X7303024Y-15939833D01*
X7303024Y-15901738D01*
X7293500Y-15854119D01*
X7283976Y-15825548D01*
X7274452Y-15806500D01*
X7255405Y-15777928D01*
X7245881Y-15768405D01*
M02*
