%TF.GenerationSoftware,KiCad,Pcbnew,(6.0.7)*%
%TF.CreationDate,2022-08-16T08:24:38+10:00*%
%TF.ProjectId,Flatbox-rev1_1,466c6174-626f-4782-9d72-6576315f312e,rev?*%
%TF.SameCoordinates,Original*%
%TF.FileFunction,Soldermask,Bot*%
%TF.FilePolarity,Negative*%
%FSLAX46Y46*%
G04 Gerber Fmt 4.6, Leading zero omitted, Abs format (unit mm)*
G04 Created by KiCad (PCBNEW (6.0.7)) date 2022-08-16 08:24:38*
%MOMM*%
%LPD*%
G01*
G04 APERTURE LIST*
G04 Aperture macros list*
%AMRoundRect*
0 Rectangle with rounded corners*
0 $1 Rounding radius*
0 $2 $3 $4 $5 $6 $7 $8 $9 X,Y pos of 4 corners*
0 Add a 4 corners polygon primitive as box body*
4,1,4,$2,$3,$4,$5,$6,$7,$8,$9,$2,$3,0*
0 Add four circle primitives for the rounded corners*
1,1,$1+$1,$2,$3*
1,1,$1+$1,$4,$5*
1,1,$1+$1,$6,$7*
1,1,$1+$1,$8,$9*
0 Add four rect primitives between the rounded corners*
20,1,$1+$1,$2,$3,$4,$5,0*
20,1,$1+$1,$4,$5,$6,$7,0*
20,1,$1+$1,$6,$7,$8,$9,0*
20,1,$1+$1,$8,$9,$2,$3,0*%
G04 Aperture macros list end*
%ADD10C,3.600000*%
%ADD11RoundRect,0.250000X-1.025000X-1.000000X1.025000X-1.000000X1.025000X1.000000X-1.025000X1.000000X0*%
%ADD12C,4.000000*%
%ADD13C,1.750000*%
%ADD14C,6.400000*%
%ADD15C,2.000000*%
%ADD16R,1.600000X1.600000*%
%ADD17C,1.600000*%
G04 APERTURE END LIST*
D10*
X34290000Y-86360000D03*
X40640000Y-83820000D03*
D11*
X31015000Y-86360000D03*
X43942000Y-83820000D03*
D12*
X38100000Y-88900000D03*
D13*
X33020000Y-88900000D03*
X43180000Y-88900000D03*
D10*
X127610000Y-127080000D03*
X133960000Y-124540000D03*
D11*
X124335000Y-127080000D03*
X137262000Y-124540000D03*
D12*
X131420000Y-129620000D03*
D13*
X126340000Y-129620000D03*
X136500000Y-129620000D03*
D10*
X224110000Y-82500000D03*
X230460000Y-79960000D03*
D11*
X220835000Y-82500000D03*
X233762000Y-79960000D03*
D12*
X227920000Y-85040000D03*
D13*
X222840000Y-85040000D03*
X233000000Y-85040000D03*
D10*
X194900000Y-82500000D03*
X201250000Y-79960000D03*
D11*
X191625000Y-82500000D03*
X204552000Y-79960000D03*
D12*
X198710000Y-85040000D03*
D13*
X193630000Y-85040000D03*
X203790000Y-85040000D03*
D10*
X166050000Y-82500000D03*
X172400000Y-79960000D03*
D11*
X162775000Y-82500000D03*
X175702000Y-79960000D03*
D12*
X169860000Y-85040000D03*
D13*
X164780000Y-85040000D03*
X174940000Y-85040000D03*
D10*
X139440000Y-93610000D03*
X145790000Y-91070000D03*
D11*
X136165000Y-93610000D03*
X149092000Y-91070000D03*
D12*
X143250000Y-96150000D03*
D13*
X138170000Y-96150000D03*
X148330000Y-96150000D03*
D10*
X229550000Y-51160000D03*
X235900000Y-48620000D03*
D11*
X226275000Y-51160000D03*
X239202000Y-48620000D03*
D12*
X233360000Y-53700000D03*
D13*
X228280000Y-53700000D03*
X238440000Y-53700000D03*
D10*
X200580000Y-50920000D03*
X206930000Y-48380000D03*
D11*
X197305000Y-50920000D03*
X210232000Y-48380000D03*
D12*
X204390000Y-53460000D03*
D13*
X199310000Y-53460000D03*
X209470000Y-53460000D03*
D10*
X171610000Y-51040000D03*
X177960000Y-48500000D03*
D11*
X168335000Y-51040000D03*
X181262000Y-48500000D03*
D12*
X175420000Y-53580000D03*
D13*
X170340000Y-53580000D03*
X180500000Y-53580000D03*
D10*
X145050000Y-62570000D03*
X151400000Y-60030000D03*
D11*
X141775000Y-62570000D03*
X154702000Y-60030000D03*
D12*
X148860000Y-65110000D03*
D13*
X143780000Y-65110000D03*
X153940000Y-65110000D03*
D10*
X110110000Y-73980000D03*
X116460000Y-71440000D03*
D11*
X106835000Y-73980000D03*
X119762000Y-71440000D03*
D12*
X113920000Y-76520000D03*
D13*
X108840000Y-76520000D03*
X119000000Y-76520000D03*
D10*
X83510000Y-62630000D03*
X89860000Y-60090000D03*
D11*
X80235000Y-62630000D03*
X93162000Y-60090000D03*
D12*
X87320000Y-65170000D03*
D13*
X82240000Y-65170000D03*
X92400000Y-65170000D03*
D10*
X54415000Y-62510000D03*
X60765000Y-59970000D03*
D11*
X51140000Y-62510000D03*
X64067000Y-59970000D03*
D12*
X58225000Y-65050000D03*
D13*
X53145000Y-65050000D03*
X63305000Y-65050000D03*
D14*
X29860000Y-37000000D03*
X29860000Y-143000000D03*
X243000000Y-143000000D03*
X243000000Y-37000000D03*
X150000000Y-37000000D03*
D15*
X88500000Y-36500000D03*
X88500000Y-43000000D03*
X93000000Y-36500000D03*
X93000000Y-43000000D03*
X65500000Y-43000000D03*
X65500000Y-36500000D03*
X70000000Y-36500000D03*
X70000000Y-43000000D03*
X98500000Y-43000000D03*
X98500000Y-36500000D03*
X103000000Y-36500000D03*
X103000000Y-43000000D03*
X55500000Y-36500000D03*
X55500000Y-43000000D03*
X60000000Y-43000000D03*
X60000000Y-36500000D03*
X75500000Y-36500000D03*
X75500000Y-43000000D03*
X80000000Y-36500000D03*
X80000000Y-43000000D03*
X108500000Y-36500000D03*
X108500000Y-43000000D03*
X113000000Y-36500000D03*
X113000000Y-43000000D03*
D14*
X133500000Y-78000000D03*
X150000000Y-143000000D03*
D16*
X118380000Y-31280000D03*
D17*
X118380000Y-33820000D03*
X118380000Y-36360000D03*
X118380000Y-38900000D03*
X118380000Y-41440000D03*
X118380000Y-43980000D03*
X118380000Y-46520000D03*
X118380000Y-49060000D03*
X118380000Y-51600000D03*
X118380000Y-54140000D03*
X118380000Y-56680000D03*
X118380000Y-59220000D03*
X133620000Y-59220000D03*
X133620000Y-56680000D03*
X133620000Y-54140000D03*
X133620000Y-51600000D03*
X133620000Y-49060000D03*
X133620000Y-46520000D03*
X133620000Y-43980000D03*
X133620000Y-41440000D03*
X133620000Y-38900000D03*
X133620000Y-36360000D03*
X133620000Y-33820000D03*
X133620000Y-31280000D03*
M02*
