%TF.GenerationSoftware,KiCad,Pcbnew,(6.0.7)*%
%TF.CreationDate,2022-08-16T08:24:49+10:00*%
%TF.ProjectId,Flatbox-rev1_1,466c6174-626f-4782-9d72-6576315f312e,rev?*%
%TF.SameCoordinates,Original*%
%TF.FileFunction,Drillmap*%
%TF.FilePolarity,Positive*%
%FSLAX45Y45*%
G04 Gerber Fmt 4.5, Leading zero omitted, Abs format (unit mm)*
G04 Created by KiCad (PCBNEW (6.0.7)) date 2022-08-16 08:24:49*
%MOMM*%
%LPD*%
G01*
G04 APERTURE LIST*
%ADD10C,0.050000*%
%ADD11C,0.200000*%
%ADD12C,0.175000*%
%ADD13C,0.400000*%
%ADD14C,0.640000*%
G04 APERTURE END LIST*
D10*
X25000000Y-3500000D02*
X25000000Y-14500000D01*
X24500000Y-15000000D02*
X2786000Y-15000000D01*
X2286000Y-14500000D02*
X2286000Y-3500000D01*
X2786000Y-3000000D02*
X24500000Y-3000000D01*
X2286000Y-14500000D02*
G75*
G03*
X2786000Y-15000000I500000J0D01*
G01*
X24500000Y-15000000D02*
G75*
G03*
X25000000Y-14500000I0J500000D01*
G01*
X25000000Y-3500000D02*
G75*
G03*
X24500000Y-3000000I-500000J0D01*
G01*
X2786000Y-3000000D02*
G75*
G03*
X2286000Y-3500000I0J-500000D01*
G01*
D11*
D12*
X3214500Y-8802500D02*
X3389500Y-8977500D01*
X3389500Y-8802500D02*
X3214500Y-8977500D01*
X4230500Y-8802500D02*
X4405500Y-8977500D01*
X4405500Y-8802500D02*
X4230500Y-8977500D01*
X5227000Y-6417500D02*
X5402000Y-6592500D01*
X5402000Y-6417500D02*
X5227000Y-6592500D01*
X6243000Y-6417500D02*
X6418000Y-6592500D01*
X6418000Y-6417500D02*
X6243000Y-6592500D01*
X8136500Y-6429500D02*
X8311500Y-6604500D01*
X8311500Y-6429500D02*
X8136500Y-6604500D01*
X9152500Y-6429500D02*
X9327500Y-6604500D01*
X9327500Y-6429500D02*
X9152500Y-6604500D01*
X10796500Y-7564500D02*
X10971500Y-7739500D01*
X10971500Y-7564500D02*
X10796500Y-7739500D01*
X11812500Y-7564500D02*
X11987500Y-7739500D01*
X11987500Y-7564500D02*
X11812500Y-7739500D01*
X12546500Y-12874500D02*
X12721500Y-13049500D01*
X12721500Y-12874500D02*
X12546500Y-13049500D01*
X13562500Y-12874500D02*
X13737500Y-13049500D01*
X13737500Y-12874500D02*
X13562500Y-13049500D01*
X13729500Y-9527500D02*
X13904500Y-9702500D01*
X13904500Y-9527500D02*
X13729500Y-9702500D01*
X14290500Y-6423500D02*
X14465500Y-6598500D01*
X14465500Y-6423500D02*
X14290500Y-6598500D01*
X14745500Y-9527500D02*
X14920500Y-9702500D01*
X14920500Y-9527500D02*
X14745500Y-9702500D01*
X15306500Y-6423500D02*
X15481500Y-6598500D01*
X15481500Y-6423500D02*
X15306500Y-6598500D01*
X16390500Y-8416500D02*
X16565500Y-8591500D01*
X16565500Y-8416500D02*
X16390500Y-8591500D01*
X16946500Y-5270500D02*
X17121500Y-5445500D01*
X17121500Y-5270500D02*
X16946500Y-5445500D01*
X17406500Y-8416500D02*
X17581500Y-8591500D01*
X17581500Y-8416500D02*
X17406500Y-8591500D01*
X17962500Y-5270500D02*
X18137500Y-5445500D01*
X18137500Y-5270500D02*
X17962500Y-5445500D01*
X19275500Y-8416500D02*
X19450500Y-8591500D01*
X19450500Y-8416500D02*
X19275500Y-8591500D01*
X19843500Y-5258500D02*
X20018500Y-5433500D01*
X20018500Y-5258500D02*
X19843500Y-5433500D01*
X20291500Y-8416500D02*
X20466500Y-8591500D01*
X20466500Y-8416500D02*
X20291500Y-8591500D01*
X20859500Y-5258500D02*
X21034500Y-5433500D01*
X21034500Y-5258500D02*
X20859500Y-5433500D01*
X22196500Y-8416500D02*
X22371500Y-8591500D01*
X22371500Y-8416500D02*
X22196500Y-8591500D01*
X22740500Y-5282500D02*
X22915500Y-5457500D01*
X22915500Y-5282500D02*
X22740500Y-5457500D01*
X23212500Y-8416500D02*
X23387500Y-8591500D01*
X23387500Y-8416500D02*
X23212500Y-8591500D01*
X23756500Y-5282500D02*
X23931500Y-5457500D01*
X23931500Y-5282500D02*
X23756500Y-5457500D01*
D13*
X4010000Y-8890000D02*
G75*
G03*
X4010000Y-8890000I-200000J0D01*
G01*
X6022500Y-6505000D02*
G75*
G03*
X6022500Y-6505000I-200000J0D01*
G01*
X8932000Y-6517000D02*
G75*
G03*
X8932000Y-6517000I-200000J0D01*
G01*
X11592000Y-7652000D02*
G75*
G03*
X11592000Y-7652000I-200000J0D01*
G01*
X13342000Y-12962000D02*
G75*
G03*
X13342000Y-12962000I-200000J0D01*
G01*
X14525000Y-9615000D02*
G75*
G03*
X14525000Y-9615000I-200000J0D01*
G01*
X15086000Y-6511000D02*
G75*
G03*
X15086000Y-6511000I-200000J0D01*
G01*
X17186000Y-8504000D02*
G75*
G03*
X17186000Y-8504000I-200000J0D01*
G01*
X17742000Y-5358000D02*
G75*
G03*
X17742000Y-5358000I-200000J0D01*
G01*
X20071000Y-8504000D02*
G75*
G03*
X20071000Y-8504000I-200000J0D01*
G01*
X20639000Y-5346000D02*
G75*
G03*
X20639000Y-5346000I-200000J0D01*
G01*
X22992000Y-8504000D02*
G75*
G03*
X22992000Y-8504000I-200000J0D01*
G01*
X23536000Y-5370000D02*
G75*
G03*
X23536000Y-5370000I-200000J0D01*
G01*
D14*
X2986000Y-3380000D02*
X2986000Y-4020000D01*
X2666000Y-3700000D02*
X3306000Y-3700000D01*
X2986000Y-13980000D02*
X2986000Y-14620000D01*
X2666000Y-14300000D02*
X3306000Y-14300000D01*
X13350000Y-7480000D02*
X13350000Y-8120000D01*
X13030000Y-7800000D02*
X13670000Y-7800000D01*
X15000000Y-3380000D02*
X15000000Y-4020000D01*
X14680000Y-3700000D02*
X15320000Y-3700000D01*
X15000000Y-13980000D02*
X15000000Y-14620000D01*
X14680000Y-14300000D02*
X15320000Y-14300000D01*
X24300000Y-3380000D02*
X24300000Y-4020000D01*
X23980000Y-3700000D02*
X24620000Y-3700000D01*
X24300000Y-13980000D02*
X24300000Y-14620000D01*
X23980000Y-14300000D02*
X24620000Y-14300000D01*
D11*
X2541119Y-15312976D02*
X2541119Y-15112976D01*
X2588738Y-15112976D01*
X2617310Y-15122500D01*
X2636357Y-15141548D01*
X2645881Y-15160595D01*
X2655405Y-15198690D01*
X2655405Y-15227262D01*
X2645881Y-15265357D01*
X2636357Y-15284405D01*
X2617310Y-15303452D01*
X2588738Y-15312976D01*
X2541119Y-15312976D01*
X2741119Y-15312976D02*
X2741119Y-15179643D01*
X2741119Y-15217738D02*
X2750643Y-15198690D01*
X2760167Y-15189167D01*
X2779214Y-15179643D01*
X2798262Y-15179643D01*
X2864928Y-15312976D02*
X2864928Y-15179643D01*
X2864928Y-15112976D02*
X2855405Y-15122500D01*
X2864928Y-15132024D01*
X2874452Y-15122500D01*
X2864928Y-15112976D01*
X2864928Y-15132024D01*
X2988738Y-15312976D02*
X2969690Y-15303452D01*
X2960167Y-15284405D01*
X2960167Y-15112976D01*
X3093500Y-15312976D02*
X3074452Y-15303452D01*
X3064928Y-15284405D01*
X3064928Y-15112976D01*
X3322071Y-15312976D02*
X3322071Y-15112976D01*
X3388738Y-15255833D01*
X3455405Y-15112976D01*
X3455405Y-15312976D01*
X3636357Y-15312976D02*
X3636357Y-15208214D01*
X3626833Y-15189167D01*
X3607786Y-15179643D01*
X3569690Y-15179643D01*
X3550643Y-15189167D01*
X3636357Y-15303452D02*
X3617309Y-15312976D01*
X3569690Y-15312976D01*
X3550643Y-15303452D01*
X3541119Y-15284405D01*
X3541119Y-15265357D01*
X3550643Y-15246309D01*
X3569690Y-15236786D01*
X3617309Y-15236786D01*
X3636357Y-15227262D01*
X3731595Y-15179643D02*
X3731595Y-15379643D01*
X3731595Y-15189167D02*
X3750643Y-15179643D01*
X3788738Y-15179643D01*
X3807786Y-15189167D01*
X3817309Y-15198690D01*
X3826833Y-15217738D01*
X3826833Y-15274881D01*
X3817309Y-15293928D01*
X3807786Y-15303452D01*
X3788738Y-15312976D01*
X3750643Y-15312976D01*
X3731595Y-15303452D01*
X3912548Y-15293928D02*
X3922071Y-15303452D01*
X3912548Y-15312976D01*
X3903024Y-15303452D01*
X3912548Y-15293928D01*
X3912548Y-15312976D01*
X3912548Y-15189167D02*
X3922071Y-15198690D01*
X3912548Y-15208214D01*
X3903024Y-15198690D01*
X3912548Y-15189167D01*
X3912548Y-15208214D01*
D12*
X2108500Y-15555000D02*
X2283500Y-15730000D01*
X2283500Y-15555000D02*
X2108500Y-15730000D01*
D11*
X2645881Y-15732976D02*
X2531595Y-15732976D01*
X2588738Y-15732976D02*
X2588738Y-15532976D01*
X2569690Y-15561548D01*
X2550643Y-15580595D01*
X2531595Y-15590119D01*
X2731595Y-15713928D02*
X2741119Y-15723452D01*
X2731595Y-15732976D01*
X2722071Y-15723452D01*
X2731595Y-15713928D01*
X2731595Y-15732976D01*
X2807786Y-15532976D02*
X2941119Y-15532976D01*
X2855405Y-15732976D01*
X3112548Y-15532976D02*
X3017309Y-15532976D01*
X3007786Y-15628214D01*
X3017309Y-15618690D01*
X3036357Y-15609167D01*
X3083976Y-15609167D01*
X3103024Y-15618690D01*
X3112548Y-15628214D01*
X3122071Y-15647262D01*
X3122071Y-15694881D01*
X3112548Y-15713928D01*
X3103024Y-15723452D01*
X3083976Y-15732976D01*
X3036357Y-15732976D01*
X3017309Y-15723452D01*
X3007786Y-15713928D01*
X3245881Y-15532976D02*
X3264928Y-15532976D01*
X3283976Y-15542500D01*
X3293500Y-15552024D01*
X3303024Y-15571071D01*
X3312548Y-15609167D01*
X3312548Y-15656786D01*
X3303024Y-15694881D01*
X3293500Y-15713928D01*
X3283976Y-15723452D01*
X3264928Y-15732976D01*
X3245881Y-15732976D01*
X3226833Y-15723452D01*
X3217309Y-15713928D01*
X3207786Y-15694881D01*
X3198262Y-15656786D01*
X3198262Y-15609167D01*
X3207786Y-15571071D01*
X3217309Y-15552024D01*
X3226833Y-15542500D01*
X3245881Y-15532976D01*
X3398262Y-15732976D02*
X3398262Y-15599643D01*
X3398262Y-15618690D02*
X3407786Y-15609167D01*
X3426833Y-15599643D01*
X3455405Y-15599643D01*
X3474452Y-15609167D01*
X3483976Y-15628214D01*
X3483976Y-15732976D01*
X3483976Y-15628214D02*
X3493500Y-15609167D01*
X3512548Y-15599643D01*
X3541119Y-15599643D01*
X3560167Y-15609167D01*
X3569690Y-15628214D01*
X3569690Y-15732976D01*
X3664928Y-15732976D02*
X3664928Y-15599643D01*
X3664928Y-15618690D02*
X3674452Y-15609167D01*
X3693500Y-15599643D01*
X3722071Y-15599643D01*
X3741119Y-15609167D01*
X3750643Y-15628214D01*
X3750643Y-15732976D01*
X3750643Y-15628214D02*
X3760167Y-15609167D01*
X3779214Y-15599643D01*
X3807786Y-15599643D01*
X3826833Y-15609167D01*
X3836357Y-15628214D01*
X3836357Y-15732976D01*
X4226833Y-15523452D02*
X4055405Y-15780595D01*
X4483976Y-15532976D02*
X4503024Y-15532976D01*
X4522071Y-15542500D01*
X4531595Y-15552024D01*
X4541119Y-15571071D01*
X4550643Y-15609167D01*
X4550643Y-15656786D01*
X4541119Y-15694881D01*
X4531595Y-15713928D01*
X4522071Y-15723452D01*
X4503024Y-15732976D01*
X4483976Y-15732976D01*
X4464929Y-15723452D01*
X4455405Y-15713928D01*
X4445881Y-15694881D01*
X4436357Y-15656786D01*
X4436357Y-15609167D01*
X4445881Y-15571071D01*
X4455405Y-15552024D01*
X4464929Y-15542500D01*
X4483976Y-15532976D01*
X4636357Y-15713928D02*
X4645881Y-15723452D01*
X4636357Y-15732976D01*
X4626833Y-15723452D01*
X4636357Y-15713928D01*
X4636357Y-15732976D01*
X4769690Y-15532976D02*
X4788738Y-15532976D01*
X4807786Y-15542500D01*
X4817310Y-15552024D01*
X4826833Y-15571071D01*
X4836357Y-15609167D01*
X4836357Y-15656786D01*
X4826833Y-15694881D01*
X4817310Y-15713928D01*
X4807786Y-15723452D01*
X4788738Y-15732976D01*
X4769690Y-15732976D01*
X4750643Y-15723452D01*
X4741119Y-15713928D01*
X4731595Y-15694881D01*
X4722071Y-15656786D01*
X4722071Y-15609167D01*
X4731595Y-15571071D01*
X4741119Y-15552024D01*
X4750643Y-15542500D01*
X4769690Y-15532976D01*
X5007786Y-15532976D02*
X4969690Y-15532976D01*
X4950643Y-15542500D01*
X4941119Y-15552024D01*
X4922071Y-15580595D01*
X4912548Y-15618690D01*
X4912548Y-15694881D01*
X4922071Y-15713928D01*
X4931595Y-15723452D01*
X4950643Y-15732976D01*
X4988738Y-15732976D01*
X5007786Y-15723452D01*
X5017310Y-15713928D01*
X5026833Y-15694881D01*
X5026833Y-15647262D01*
X5017310Y-15628214D01*
X5007786Y-15618690D01*
X4988738Y-15609167D01*
X4950643Y-15609167D01*
X4931595Y-15618690D01*
X4922071Y-15628214D01*
X4912548Y-15647262D01*
X5141119Y-15618690D02*
X5122071Y-15609167D01*
X5112548Y-15599643D01*
X5103024Y-15580595D01*
X5103024Y-15571071D01*
X5112548Y-15552024D01*
X5122071Y-15542500D01*
X5141119Y-15532976D01*
X5179214Y-15532976D01*
X5198262Y-15542500D01*
X5207786Y-15552024D01*
X5217310Y-15571071D01*
X5217310Y-15580595D01*
X5207786Y-15599643D01*
X5198262Y-15609167D01*
X5179214Y-15618690D01*
X5141119Y-15618690D01*
X5122071Y-15628214D01*
X5112548Y-15637738D01*
X5103024Y-15656786D01*
X5103024Y-15694881D01*
X5112548Y-15713928D01*
X5122071Y-15723452D01*
X5141119Y-15732976D01*
X5179214Y-15732976D01*
X5198262Y-15723452D01*
X5207786Y-15713928D01*
X5217310Y-15694881D01*
X5217310Y-15656786D01*
X5207786Y-15637738D01*
X5198262Y-15628214D01*
X5179214Y-15618690D01*
X5312548Y-15732976D02*
X5350643Y-15732976D01*
X5369690Y-15723452D01*
X5379214Y-15713928D01*
X5398262Y-15685357D01*
X5407786Y-15647262D01*
X5407786Y-15571071D01*
X5398262Y-15552024D01*
X5388738Y-15542500D01*
X5369690Y-15532976D01*
X5331595Y-15532976D01*
X5312548Y-15542500D01*
X5303024Y-15552024D01*
X5293500Y-15571071D01*
X5293500Y-15618690D01*
X5303024Y-15637738D01*
X5312548Y-15647262D01*
X5331595Y-15656786D01*
X5369690Y-15656786D01*
X5388738Y-15647262D01*
X5398262Y-15637738D01*
X5407786Y-15618690D01*
X5483976Y-15532976D02*
X5483976Y-15571071D01*
X5560167Y-15532976D02*
X5560167Y-15571071D01*
X5855405Y-15809167D02*
X5845881Y-15799643D01*
X5826833Y-15771071D01*
X5817309Y-15752024D01*
X5807786Y-15723452D01*
X5798262Y-15675833D01*
X5798262Y-15637738D01*
X5807786Y-15590119D01*
X5817309Y-15561548D01*
X5826833Y-15542500D01*
X5845881Y-15513928D01*
X5855405Y-15504405D01*
X5922071Y-15552024D02*
X5931595Y-15542500D01*
X5950643Y-15532976D01*
X5998262Y-15532976D01*
X6017309Y-15542500D01*
X6026833Y-15552024D01*
X6036357Y-15571071D01*
X6036357Y-15590119D01*
X6026833Y-15618690D01*
X5912548Y-15732976D01*
X6036357Y-15732976D01*
X6207786Y-15532976D02*
X6169690Y-15532976D01*
X6150643Y-15542500D01*
X6141119Y-15552024D01*
X6122071Y-15580595D01*
X6112548Y-15618690D01*
X6112548Y-15694881D01*
X6122071Y-15713928D01*
X6131595Y-15723452D01*
X6150643Y-15732976D01*
X6188738Y-15732976D01*
X6207786Y-15723452D01*
X6217309Y-15713928D01*
X6226833Y-15694881D01*
X6226833Y-15647262D01*
X6217309Y-15628214D01*
X6207786Y-15618690D01*
X6188738Y-15609167D01*
X6150643Y-15609167D01*
X6131595Y-15618690D01*
X6122071Y-15628214D01*
X6112548Y-15647262D01*
X6464928Y-15732976D02*
X6464928Y-15532976D01*
X6550643Y-15732976D02*
X6550643Y-15628214D01*
X6541119Y-15609167D01*
X6522071Y-15599643D01*
X6493500Y-15599643D01*
X6474452Y-15609167D01*
X6464928Y-15618690D01*
X6674452Y-15732976D02*
X6655405Y-15723452D01*
X6645881Y-15713928D01*
X6636357Y-15694881D01*
X6636357Y-15637738D01*
X6645881Y-15618690D01*
X6655405Y-15609167D01*
X6674452Y-15599643D01*
X6703024Y-15599643D01*
X6722071Y-15609167D01*
X6731595Y-15618690D01*
X6741119Y-15637738D01*
X6741119Y-15694881D01*
X6731595Y-15713928D01*
X6722071Y-15723452D01*
X6703024Y-15732976D01*
X6674452Y-15732976D01*
X6855405Y-15732976D02*
X6836357Y-15723452D01*
X6826833Y-15704405D01*
X6826833Y-15532976D01*
X7007786Y-15723452D02*
X6988738Y-15732976D01*
X6950643Y-15732976D01*
X6931595Y-15723452D01*
X6922071Y-15704405D01*
X6922071Y-15628214D01*
X6931595Y-15609167D01*
X6950643Y-15599643D01*
X6988738Y-15599643D01*
X7007786Y-15609167D01*
X7017309Y-15628214D01*
X7017309Y-15647262D01*
X6922071Y-15666309D01*
X7093500Y-15723452D02*
X7112548Y-15732976D01*
X7150643Y-15732976D01*
X7169690Y-15723452D01*
X7179214Y-15704405D01*
X7179214Y-15694881D01*
X7169690Y-15675833D01*
X7150643Y-15666309D01*
X7122071Y-15666309D01*
X7103024Y-15656786D01*
X7093500Y-15637738D01*
X7093500Y-15628214D01*
X7103024Y-15609167D01*
X7122071Y-15599643D01*
X7150643Y-15599643D01*
X7169690Y-15609167D01*
X7245881Y-15809167D02*
X7255405Y-15799643D01*
X7274452Y-15771071D01*
X7283976Y-15752024D01*
X7293500Y-15723452D01*
X7303024Y-15675833D01*
X7303024Y-15637738D01*
X7293500Y-15590119D01*
X7283976Y-15561548D01*
X7274452Y-15542500D01*
X7255405Y-15513928D01*
X7245881Y-15504405D01*
X7607786Y-15809167D02*
X7598262Y-15799643D01*
X7579214Y-15771071D01*
X7569690Y-15752024D01*
X7560167Y-15723452D01*
X7550643Y-15675833D01*
X7550643Y-15637738D01*
X7560167Y-15590119D01*
X7569690Y-15561548D01*
X7579214Y-15542500D01*
X7598262Y-15513928D01*
X7607786Y-15504405D01*
X7683976Y-15599643D02*
X7683976Y-15732976D01*
X7683976Y-15618690D02*
X7693500Y-15609167D01*
X7712548Y-15599643D01*
X7741119Y-15599643D01*
X7760167Y-15609167D01*
X7769690Y-15628214D01*
X7769690Y-15732976D01*
X7893500Y-15732976D02*
X7874452Y-15723452D01*
X7864928Y-15713928D01*
X7855405Y-15694881D01*
X7855405Y-15637738D01*
X7864928Y-15618690D01*
X7874452Y-15609167D01*
X7893500Y-15599643D01*
X7922071Y-15599643D01*
X7941119Y-15609167D01*
X7950643Y-15618690D01*
X7960167Y-15637738D01*
X7960167Y-15694881D01*
X7950643Y-15713928D01*
X7941119Y-15723452D01*
X7922071Y-15732976D01*
X7893500Y-15732976D01*
X8017309Y-15599643D02*
X8093500Y-15599643D01*
X8045881Y-15532976D02*
X8045881Y-15704405D01*
X8055405Y-15723452D01*
X8074452Y-15732976D01*
X8093500Y-15732976D01*
X8312548Y-15599643D02*
X8312548Y-15799643D01*
X8312548Y-15609167D02*
X8331595Y-15599643D01*
X8369690Y-15599643D01*
X8388738Y-15609167D01*
X8398262Y-15618690D01*
X8407786Y-15637738D01*
X8407786Y-15694881D01*
X8398262Y-15713928D01*
X8388738Y-15723452D01*
X8369690Y-15732976D01*
X8331595Y-15732976D01*
X8312548Y-15723452D01*
X8522071Y-15732976D02*
X8503024Y-15723452D01*
X8493500Y-15704405D01*
X8493500Y-15532976D01*
X8683976Y-15732976D02*
X8683976Y-15628214D01*
X8674452Y-15609167D01*
X8655405Y-15599643D01*
X8617310Y-15599643D01*
X8598262Y-15609167D01*
X8683976Y-15723452D02*
X8664929Y-15732976D01*
X8617310Y-15732976D01*
X8598262Y-15723452D01*
X8588738Y-15704405D01*
X8588738Y-15685357D01*
X8598262Y-15666309D01*
X8617310Y-15656786D01*
X8664929Y-15656786D01*
X8683976Y-15647262D01*
X8750643Y-15599643D02*
X8826833Y-15599643D01*
X8779214Y-15532976D02*
X8779214Y-15704405D01*
X8788738Y-15723452D01*
X8807786Y-15732976D01*
X8826833Y-15732976D01*
X8969690Y-15723452D02*
X8950643Y-15732976D01*
X8912548Y-15732976D01*
X8893500Y-15723452D01*
X8883976Y-15704405D01*
X8883976Y-15628214D01*
X8893500Y-15609167D01*
X8912548Y-15599643D01*
X8950643Y-15599643D01*
X8969690Y-15609167D01*
X8979214Y-15628214D01*
X8979214Y-15647262D01*
X8883976Y-15666309D01*
X9150643Y-15732976D02*
X9150643Y-15532976D01*
X9150643Y-15723452D02*
X9131595Y-15732976D01*
X9093500Y-15732976D01*
X9074452Y-15723452D01*
X9064929Y-15713928D01*
X9055405Y-15694881D01*
X9055405Y-15637738D01*
X9064929Y-15618690D01*
X9074452Y-15609167D01*
X9093500Y-15599643D01*
X9131595Y-15599643D01*
X9150643Y-15609167D01*
X9226833Y-15809167D02*
X9236357Y-15799643D01*
X9255405Y-15771071D01*
X9264929Y-15752024D01*
X9274452Y-15723452D01*
X9283976Y-15675833D01*
X9283976Y-15637738D01*
X9274452Y-15590119D01*
X9264929Y-15561548D01*
X9255405Y-15542500D01*
X9236357Y-15513928D01*
X9226833Y-15504405D01*
X2283500Y-15937500D02*
G75*
G03*
X2283500Y-15937500I-100000J0D01*
G01*
X2626833Y-15894643D02*
X2626833Y-16027976D01*
X2579214Y-15818452D02*
X2531595Y-15961309D01*
X2655405Y-15961309D01*
X2731595Y-16008928D02*
X2741119Y-16018452D01*
X2731595Y-16027976D01*
X2722071Y-16018452D01*
X2731595Y-16008928D01*
X2731595Y-16027976D01*
X2864928Y-15827976D02*
X2883976Y-15827976D01*
X2903024Y-15837500D01*
X2912548Y-15847024D01*
X2922071Y-15866071D01*
X2931595Y-15904167D01*
X2931595Y-15951786D01*
X2922071Y-15989881D01*
X2912548Y-16008928D01*
X2903024Y-16018452D01*
X2883976Y-16027976D01*
X2864928Y-16027976D01*
X2845881Y-16018452D01*
X2836357Y-16008928D01*
X2826833Y-15989881D01*
X2817309Y-15951786D01*
X2817309Y-15904167D01*
X2826833Y-15866071D01*
X2836357Y-15847024D01*
X2845881Y-15837500D01*
X2864928Y-15827976D01*
X3055405Y-15827976D02*
X3074452Y-15827976D01*
X3093500Y-15837500D01*
X3103024Y-15847024D01*
X3112548Y-15866071D01*
X3122071Y-15904167D01*
X3122071Y-15951786D01*
X3112548Y-15989881D01*
X3103024Y-16008928D01*
X3093500Y-16018452D01*
X3074452Y-16027976D01*
X3055405Y-16027976D01*
X3036357Y-16018452D01*
X3026833Y-16008928D01*
X3017309Y-15989881D01*
X3007786Y-15951786D01*
X3007786Y-15904167D01*
X3017309Y-15866071D01*
X3026833Y-15847024D01*
X3036357Y-15837500D01*
X3055405Y-15827976D01*
X3245881Y-15827976D02*
X3264928Y-15827976D01*
X3283976Y-15837500D01*
X3293500Y-15847024D01*
X3303024Y-15866071D01*
X3312548Y-15904167D01*
X3312548Y-15951786D01*
X3303024Y-15989881D01*
X3293500Y-16008928D01*
X3283976Y-16018452D01*
X3264928Y-16027976D01*
X3245881Y-16027976D01*
X3226833Y-16018452D01*
X3217309Y-16008928D01*
X3207786Y-15989881D01*
X3198262Y-15951786D01*
X3198262Y-15904167D01*
X3207786Y-15866071D01*
X3217309Y-15847024D01*
X3226833Y-15837500D01*
X3245881Y-15827976D01*
X3398262Y-16027976D02*
X3398262Y-15894643D01*
X3398262Y-15913690D02*
X3407786Y-15904167D01*
X3426833Y-15894643D01*
X3455405Y-15894643D01*
X3474452Y-15904167D01*
X3483976Y-15923214D01*
X3483976Y-16027976D01*
X3483976Y-15923214D02*
X3493500Y-15904167D01*
X3512548Y-15894643D01*
X3541119Y-15894643D01*
X3560167Y-15904167D01*
X3569690Y-15923214D01*
X3569690Y-16027976D01*
X3664928Y-16027976D02*
X3664928Y-15894643D01*
X3664928Y-15913690D02*
X3674452Y-15904167D01*
X3693500Y-15894643D01*
X3722071Y-15894643D01*
X3741119Y-15904167D01*
X3750643Y-15923214D01*
X3750643Y-16027976D01*
X3750643Y-15923214D02*
X3760167Y-15904167D01*
X3779214Y-15894643D01*
X3807786Y-15894643D01*
X3826833Y-15904167D01*
X3836357Y-15923214D01*
X3836357Y-16027976D01*
X4226833Y-15818452D02*
X4055405Y-16075595D01*
X4483976Y-15827976D02*
X4503024Y-15827976D01*
X4522071Y-15837500D01*
X4531595Y-15847024D01*
X4541119Y-15866071D01*
X4550643Y-15904167D01*
X4550643Y-15951786D01*
X4541119Y-15989881D01*
X4531595Y-16008928D01*
X4522071Y-16018452D01*
X4503024Y-16027976D01*
X4483976Y-16027976D01*
X4464929Y-16018452D01*
X4455405Y-16008928D01*
X4445881Y-15989881D01*
X4436357Y-15951786D01*
X4436357Y-15904167D01*
X4445881Y-15866071D01*
X4455405Y-15847024D01*
X4464929Y-15837500D01*
X4483976Y-15827976D01*
X4636357Y-16008928D02*
X4645881Y-16018452D01*
X4636357Y-16027976D01*
X4626833Y-16018452D01*
X4636357Y-16008928D01*
X4636357Y-16027976D01*
X4836357Y-16027976D02*
X4722071Y-16027976D01*
X4779214Y-16027976D02*
X4779214Y-15827976D01*
X4760167Y-15856548D01*
X4741119Y-15875595D01*
X4722071Y-15885119D01*
X5017310Y-15827976D02*
X4922071Y-15827976D01*
X4912548Y-15923214D01*
X4922071Y-15913690D01*
X4941119Y-15904167D01*
X4988738Y-15904167D01*
X5007786Y-15913690D01*
X5017310Y-15923214D01*
X5026833Y-15942262D01*
X5026833Y-15989881D01*
X5017310Y-16008928D01*
X5007786Y-16018452D01*
X4988738Y-16027976D01*
X4941119Y-16027976D01*
X4922071Y-16018452D01*
X4912548Y-16008928D01*
X5093500Y-15827976D02*
X5226833Y-15827976D01*
X5141119Y-16027976D01*
X5398262Y-15827976D02*
X5303024Y-15827976D01*
X5293500Y-15923214D01*
X5303024Y-15913690D01*
X5322071Y-15904167D01*
X5369690Y-15904167D01*
X5388738Y-15913690D01*
X5398262Y-15923214D01*
X5407786Y-15942262D01*
X5407786Y-15989881D01*
X5398262Y-16008928D01*
X5388738Y-16018452D01*
X5369690Y-16027976D01*
X5322071Y-16027976D01*
X5303024Y-16018452D01*
X5293500Y-16008928D01*
X5483976Y-15827976D02*
X5483976Y-15866071D01*
X5560167Y-15827976D02*
X5560167Y-15866071D01*
X5855405Y-16104167D02*
X5845881Y-16094643D01*
X5826833Y-16066071D01*
X5817309Y-16047024D01*
X5807786Y-16018452D01*
X5798262Y-15970833D01*
X5798262Y-15932738D01*
X5807786Y-15885119D01*
X5817309Y-15856548D01*
X5826833Y-15837500D01*
X5845881Y-15808928D01*
X5855405Y-15799405D01*
X6036357Y-16027976D02*
X5922071Y-16027976D01*
X5979214Y-16027976D02*
X5979214Y-15827976D01*
X5960167Y-15856548D01*
X5941119Y-15875595D01*
X5922071Y-15885119D01*
X6103024Y-15827976D02*
X6226833Y-15827976D01*
X6160167Y-15904167D01*
X6188738Y-15904167D01*
X6207786Y-15913690D01*
X6217309Y-15923214D01*
X6226833Y-15942262D01*
X6226833Y-15989881D01*
X6217309Y-16008928D01*
X6207786Y-16018452D01*
X6188738Y-16027976D01*
X6131595Y-16027976D01*
X6112548Y-16018452D01*
X6103024Y-16008928D01*
X6464928Y-16027976D02*
X6464928Y-15827976D01*
X6550643Y-16027976D02*
X6550643Y-15923214D01*
X6541119Y-15904167D01*
X6522071Y-15894643D01*
X6493500Y-15894643D01*
X6474452Y-15904167D01*
X6464928Y-15913690D01*
X6674452Y-16027976D02*
X6655405Y-16018452D01*
X6645881Y-16008928D01*
X6636357Y-15989881D01*
X6636357Y-15932738D01*
X6645881Y-15913690D01*
X6655405Y-15904167D01*
X6674452Y-15894643D01*
X6703024Y-15894643D01*
X6722071Y-15904167D01*
X6731595Y-15913690D01*
X6741119Y-15932738D01*
X6741119Y-15989881D01*
X6731595Y-16008928D01*
X6722071Y-16018452D01*
X6703024Y-16027976D01*
X6674452Y-16027976D01*
X6855405Y-16027976D02*
X6836357Y-16018452D01*
X6826833Y-15999405D01*
X6826833Y-15827976D01*
X7007786Y-16018452D02*
X6988738Y-16027976D01*
X6950643Y-16027976D01*
X6931595Y-16018452D01*
X6922071Y-15999405D01*
X6922071Y-15923214D01*
X6931595Y-15904167D01*
X6950643Y-15894643D01*
X6988738Y-15894643D01*
X7007786Y-15904167D01*
X7017309Y-15923214D01*
X7017309Y-15942262D01*
X6922071Y-15961309D01*
X7093500Y-16018452D02*
X7112548Y-16027976D01*
X7150643Y-16027976D01*
X7169690Y-16018452D01*
X7179214Y-15999405D01*
X7179214Y-15989881D01*
X7169690Y-15970833D01*
X7150643Y-15961309D01*
X7122071Y-15961309D01*
X7103024Y-15951786D01*
X7093500Y-15932738D01*
X7093500Y-15923214D01*
X7103024Y-15904167D01*
X7122071Y-15894643D01*
X7150643Y-15894643D01*
X7169690Y-15904167D01*
X7245881Y-16104167D02*
X7255405Y-16094643D01*
X7274452Y-16066071D01*
X7283976Y-16047024D01*
X7293500Y-16018452D01*
X7303024Y-15970833D01*
X7303024Y-15932738D01*
X7293500Y-15885119D01*
X7283976Y-15856548D01*
X7274452Y-15837500D01*
X7255405Y-15808928D01*
X7245881Y-15799405D01*
X7607786Y-16104167D02*
X7598262Y-16094643D01*
X7579214Y-16066071D01*
X7569690Y-16047024D01*
X7560167Y-16018452D01*
X7550643Y-15970833D01*
X7550643Y-15932738D01*
X7560167Y-15885119D01*
X7569690Y-15856548D01*
X7579214Y-15837500D01*
X7598262Y-15808928D01*
X7607786Y-15799405D01*
X7683976Y-15894643D02*
X7683976Y-16027976D01*
X7683976Y-15913690D02*
X7693500Y-15904167D01*
X7712548Y-15894643D01*
X7741119Y-15894643D01*
X7760167Y-15904167D01*
X7769690Y-15923214D01*
X7769690Y-16027976D01*
X7893500Y-16027976D02*
X7874452Y-16018452D01*
X7864928Y-16008928D01*
X7855405Y-15989881D01*
X7855405Y-15932738D01*
X7864928Y-15913690D01*
X7874452Y-15904167D01*
X7893500Y-15894643D01*
X7922071Y-15894643D01*
X7941119Y-15904167D01*
X7950643Y-15913690D01*
X7960167Y-15932738D01*
X7960167Y-15989881D01*
X7950643Y-16008928D01*
X7941119Y-16018452D01*
X7922071Y-16027976D01*
X7893500Y-16027976D01*
X8017309Y-15894643D02*
X8093500Y-15894643D01*
X8045881Y-15827976D02*
X8045881Y-15999405D01*
X8055405Y-16018452D01*
X8074452Y-16027976D01*
X8093500Y-16027976D01*
X8312548Y-15894643D02*
X8312548Y-16094643D01*
X8312548Y-15904167D02*
X8331595Y-15894643D01*
X8369690Y-15894643D01*
X8388738Y-15904167D01*
X8398262Y-15913690D01*
X8407786Y-15932738D01*
X8407786Y-15989881D01*
X8398262Y-16008928D01*
X8388738Y-16018452D01*
X8369690Y-16027976D01*
X8331595Y-16027976D01*
X8312548Y-16018452D01*
X8522071Y-16027976D02*
X8503024Y-16018452D01*
X8493500Y-15999405D01*
X8493500Y-15827976D01*
X8683976Y-16027976D02*
X8683976Y-15923214D01*
X8674452Y-15904167D01*
X8655405Y-15894643D01*
X8617310Y-15894643D01*
X8598262Y-15904167D01*
X8683976Y-16018452D02*
X8664929Y-16027976D01*
X8617310Y-16027976D01*
X8598262Y-16018452D01*
X8588738Y-15999405D01*
X8588738Y-15980357D01*
X8598262Y-15961309D01*
X8617310Y-15951786D01*
X8664929Y-15951786D01*
X8683976Y-15942262D01*
X8750643Y-15894643D02*
X8826833Y-15894643D01*
X8779214Y-15827976D02*
X8779214Y-15999405D01*
X8788738Y-16018452D01*
X8807786Y-16027976D01*
X8826833Y-16027976D01*
X8969690Y-16018452D02*
X8950643Y-16027976D01*
X8912548Y-16027976D01*
X8893500Y-16018452D01*
X8883976Y-15999405D01*
X8883976Y-15923214D01*
X8893500Y-15904167D01*
X8912548Y-15894643D01*
X8950643Y-15894643D01*
X8969690Y-15904167D01*
X8979214Y-15923214D01*
X8979214Y-15942262D01*
X8883976Y-15961309D01*
X9150643Y-16027976D02*
X9150643Y-15827976D01*
X9150643Y-16018452D02*
X9131595Y-16027976D01*
X9093500Y-16027976D01*
X9074452Y-16018452D01*
X9064929Y-16008928D01*
X9055405Y-15989881D01*
X9055405Y-15932738D01*
X9064929Y-15913690D01*
X9074452Y-15904167D01*
X9093500Y-15894643D01*
X9131595Y-15894643D01*
X9150643Y-15904167D01*
X9226833Y-16104167D02*
X9236357Y-16094643D01*
X9255405Y-16066071D01*
X9264929Y-16047024D01*
X9274452Y-16018452D01*
X9283976Y-15970833D01*
X9283976Y-15932738D01*
X9274452Y-15885119D01*
X9264929Y-15856548D01*
X9255405Y-15837500D01*
X9236357Y-15808928D01*
X9226833Y-15799405D01*
X2183500Y-16157500D02*
X2183500Y-16357500D01*
X2083500Y-16257500D02*
X2283500Y-16257500D01*
X2626833Y-16147976D02*
X2588738Y-16147976D01*
X2569690Y-16157500D01*
X2560167Y-16167024D01*
X2541119Y-16195595D01*
X2531595Y-16233690D01*
X2531595Y-16309881D01*
X2541119Y-16328928D01*
X2550643Y-16338452D01*
X2569690Y-16347976D01*
X2607786Y-16347976D01*
X2626833Y-16338452D01*
X2636357Y-16328928D01*
X2645881Y-16309881D01*
X2645881Y-16262262D01*
X2636357Y-16243214D01*
X2626833Y-16233690D01*
X2607786Y-16224167D01*
X2569690Y-16224167D01*
X2550643Y-16233690D01*
X2541119Y-16243214D01*
X2531595Y-16262262D01*
X2731595Y-16328928D02*
X2741119Y-16338452D01*
X2731595Y-16347976D01*
X2722071Y-16338452D01*
X2731595Y-16328928D01*
X2731595Y-16347976D01*
X2912548Y-16214643D02*
X2912548Y-16347976D01*
X2864928Y-16138452D02*
X2817309Y-16281309D01*
X2941119Y-16281309D01*
X3055405Y-16147976D02*
X3074452Y-16147976D01*
X3093500Y-16157500D01*
X3103024Y-16167024D01*
X3112548Y-16186071D01*
X3122071Y-16224167D01*
X3122071Y-16271786D01*
X3112548Y-16309881D01*
X3103024Y-16328928D01*
X3093500Y-16338452D01*
X3074452Y-16347976D01*
X3055405Y-16347976D01*
X3036357Y-16338452D01*
X3026833Y-16328928D01*
X3017309Y-16309881D01*
X3007786Y-16271786D01*
X3007786Y-16224167D01*
X3017309Y-16186071D01*
X3026833Y-16167024D01*
X3036357Y-16157500D01*
X3055405Y-16147976D01*
X3245881Y-16147976D02*
X3264928Y-16147976D01*
X3283976Y-16157500D01*
X3293500Y-16167024D01*
X3303024Y-16186071D01*
X3312548Y-16224167D01*
X3312548Y-16271786D01*
X3303024Y-16309881D01*
X3293500Y-16328928D01*
X3283976Y-16338452D01*
X3264928Y-16347976D01*
X3245881Y-16347976D01*
X3226833Y-16338452D01*
X3217309Y-16328928D01*
X3207786Y-16309881D01*
X3198262Y-16271786D01*
X3198262Y-16224167D01*
X3207786Y-16186071D01*
X3217309Y-16167024D01*
X3226833Y-16157500D01*
X3245881Y-16147976D01*
X3398262Y-16347976D02*
X3398262Y-16214643D01*
X3398262Y-16233690D02*
X3407786Y-16224167D01*
X3426833Y-16214643D01*
X3455405Y-16214643D01*
X3474452Y-16224167D01*
X3483976Y-16243214D01*
X3483976Y-16347976D01*
X3483976Y-16243214D02*
X3493500Y-16224167D01*
X3512548Y-16214643D01*
X3541119Y-16214643D01*
X3560167Y-16224167D01*
X3569690Y-16243214D01*
X3569690Y-16347976D01*
X3664928Y-16347976D02*
X3664928Y-16214643D01*
X3664928Y-16233690D02*
X3674452Y-16224167D01*
X3693500Y-16214643D01*
X3722071Y-16214643D01*
X3741119Y-16224167D01*
X3750643Y-16243214D01*
X3750643Y-16347976D01*
X3750643Y-16243214D02*
X3760167Y-16224167D01*
X3779214Y-16214643D01*
X3807786Y-16214643D01*
X3826833Y-16224167D01*
X3836357Y-16243214D01*
X3836357Y-16347976D01*
X4226833Y-16138452D02*
X4055405Y-16395595D01*
X4483976Y-16147976D02*
X4503024Y-16147976D01*
X4522071Y-16157500D01*
X4531595Y-16167024D01*
X4541119Y-16186071D01*
X4550643Y-16224167D01*
X4550643Y-16271786D01*
X4541119Y-16309881D01*
X4531595Y-16328928D01*
X4522071Y-16338452D01*
X4503024Y-16347976D01*
X4483976Y-16347976D01*
X4464929Y-16338452D01*
X4455405Y-16328928D01*
X4445881Y-16309881D01*
X4436357Y-16271786D01*
X4436357Y-16224167D01*
X4445881Y-16186071D01*
X4455405Y-16167024D01*
X4464929Y-16157500D01*
X4483976Y-16147976D01*
X4636357Y-16328928D02*
X4645881Y-16338452D01*
X4636357Y-16347976D01*
X4626833Y-16338452D01*
X4636357Y-16328928D01*
X4636357Y-16347976D01*
X4722071Y-16167024D02*
X4731595Y-16157500D01*
X4750643Y-16147976D01*
X4798262Y-16147976D01*
X4817310Y-16157500D01*
X4826833Y-16167024D01*
X4836357Y-16186071D01*
X4836357Y-16205119D01*
X4826833Y-16233690D01*
X4712548Y-16347976D01*
X4836357Y-16347976D01*
X5017310Y-16147976D02*
X4922071Y-16147976D01*
X4912548Y-16243214D01*
X4922071Y-16233690D01*
X4941119Y-16224167D01*
X4988738Y-16224167D01*
X5007786Y-16233690D01*
X5017310Y-16243214D01*
X5026833Y-16262262D01*
X5026833Y-16309881D01*
X5017310Y-16328928D01*
X5007786Y-16338452D01*
X4988738Y-16347976D01*
X4941119Y-16347976D01*
X4922071Y-16338452D01*
X4912548Y-16328928D01*
X5103024Y-16167024D02*
X5112548Y-16157500D01*
X5131595Y-16147976D01*
X5179214Y-16147976D01*
X5198262Y-16157500D01*
X5207786Y-16167024D01*
X5217310Y-16186071D01*
X5217310Y-16205119D01*
X5207786Y-16233690D01*
X5093500Y-16347976D01*
X5217310Y-16347976D01*
X5341119Y-16147976D02*
X5360167Y-16147976D01*
X5379214Y-16157500D01*
X5388738Y-16167024D01*
X5398262Y-16186071D01*
X5407786Y-16224167D01*
X5407786Y-16271786D01*
X5398262Y-16309881D01*
X5388738Y-16328928D01*
X5379214Y-16338452D01*
X5360167Y-16347976D01*
X5341119Y-16347976D01*
X5322071Y-16338452D01*
X5312548Y-16328928D01*
X5303024Y-16309881D01*
X5293500Y-16271786D01*
X5293500Y-16224167D01*
X5303024Y-16186071D01*
X5312548Y-16167024D01*
X5322071Y-16157500D01*
X5341119Y-16147976D01*
X5483976Y-16147976D02*
X5483976Y-16186071D01*
X5560167Y-16147976D02*
X5560167Y-16186071D01*
X5855405Y-16424167D02*
X5845881Y-16414643D01*
X5826833Y-16386071D01*
X5817309Y-16367024D01*
X5807786Y-16338452D01*
X5798262Y-16290833D01*
X5798262Y-16252738D01*
X5807786Y-16205119D01*
X5817309Y-16176548D01*
X5826833Y-16157500D01*
X5845881Y-16128928D01*
X5855405Y-16119405D01*
X5912548Y-16147976D02*
X6045881Y-16147976D01*
X5960167Y-16347976D01*
X6274452Y-16347976D02*
X6274452Y-16147976D01*
X6360167Y-16347976D02*
X6360167Y-16243214D01*
X6350643Y-16224167D01*
X6331595Y-16214643D01*
X6303024Y-16214643D01*
X6283976Y-16224167D01*
X6274452Y-16233690D01*
X6483976Y-16347976D02*
X6464928Y-16338452D01*
X6455405Y-16328928D01*
X6445881Y-16309881D01*
X6445881Y-16252738D01*
X6455405Y-16233690D01*
X6464928Y-16224167D01*
X6483976Y-16214643D01*
X6512548Y-16214643D01*
X6531595Y-16224167D01*
X6541119Y-16233690D01*
X6550643Y-16252738D01*
X6550643Y-16309881D01*
X6541119Y-16328928D01*
X6531595Y-16338452D01*
X6512548Y-16347976D01*
X6483976Y-16347976D01*
X6664928Y-16347976D02*
X6645881Y-16338452D01*
X6636357Y-16319405D01*
X6636357Y-16147976D01*
X6817309Y-16338452D02*
X6798262Y-16347976D01*
X6760167Y-16347976D01*
X6741119Y-16338452D01*
X6731595Y-16319405D01*
X6731595Y-16243214D01*
X6741119Y-16224167D01*
X6760167Y-16214643D01*
X6798262Y-16214643D01*
X6817309Y-16224167D01*
X6826833Y-16243214D01*
X6826833Y-16262262D01*
X6731595Y-16281309D01*
X6903024Y-16338452D02*
X6922071Y-16347976D01*
X6960167Y-16347976D01*
X6979214Y-16338452D01*
X6988738Y-16319405D01*
X6988738Y-16309881D01*
X6979214Y-16290833D01*
X6960167Y-16281309D01*
X6931595Y-16281309D01*
X6912548Y-16271786D01*
X6903024Y-16252738D01*
X6903024Y-16243214D01*
X6912548Y-16224167D01*
X6931595Y-16214643D01*
X6960167Y-16214643D01*
X6979214Y-16224167D01*
X7055405Y-16424167D02*
X7064928Y-16414643D01*
X7083976Y-16386071D01*
X7093500Y-16367024D01*
X7103024Y-16338452D01*
X7112548Y-16290833D01*
X7112548Y-16252738D01*
X7103024Y-16205119D01*
X7093500Y-16176548D01*
X7083976Y-16157500D01*
X7064928Y-16128928D01*
X7055405Y-16119405D01*
X7417309Y-16424167D02*
X7407786Y-16414643D01*
X7388738Y-16386071D01*
X7379214Y-16367024D01*
X7369690Y-16338452D01*
X7360167Y-16290833D01*
X7360167Y-16252738D01*
X7369690Y-16205119D01*
X7379214Y-16176548D01*
X7388738Y-16157500D01*
X7407786Y-16128928D01*
X7417309Y-16119405D01*
X7493500Y-16214643D02*
X7493500Y-16347976D01*
X7493500Y-16233690D02*
X7503024Y-16224167D01*
X7522071Y-16214643D01*
X7550643Y-16214643D01*
X7569690Y-16224167D01*
X7579214Y-16243214D01*
X7579214Y-16347976D01*
X7703024Y-16347976D02*
X7683976Y-16338452D01*
X7674452Y-16328928D01*
X7664928Y-16309881D01*
X7664928Y-16252738D01*
X7674452Y-16233690D01*
X7683976Y-16224167D01*
X7703024Y-16214643D01*
X7731595Y-16214643D01*
X7750643Y-16224167D01*
X7760167Y-16233690D01*
X7769690Y-16252738D01*
X7769690Y-16309881D01*
X7760167Y-16328928D01*
X7750643Y-16338452D01*
X7731595Y-16347976D01*
X7703024Y-16347976D01*
X7826833Y-16214643D02*
X7903024Y-16214643D01*
X7855405Y-16147976D02*
X7855405Y-16319405D01*
X7864928Y-16338452D01*
X7883976Y-16347976D01*
X7903024Y-16347976D01*
X8122071Y-16214643D02*
X8122071Y-16414643D01*
X8122071Y-16224167D02*
X8141119Y-16214643D01*
X8179214Y-16214643D01*
X8198262Y-16224167D01*
X8207786Y-16233690D01*
X8217309Y-16252738D01*
X8217309Y-16309881D01*
X8207786Y-16328928D01*
X8198262Y-16338452D01*
X8179214Y-16347976D01*
X8141119Y-16347976D01*
X8122071Y-16338452D01*
X8331595Y-16347976D02*
X8312548Y-16338452D01*
X8303024Y-16319405D01*
X8303024Y-16147976D01*
X8493500Y-16347976D02*
X8493500Y-16243214D01*
X8483976Y-16224167D01*
X8464929Y-16214643D01*
X8426833Y-16214643D01*
X8407786Y-16224167D01*
X8493500Y-16338452D02*
X8474452Y-16347976D01*
X8426833Y-16347976D01*
X8407786Y-16338452D01*
X8398262Y-16319405D01*
X8398262Y-16300357D01*
X8407786Y-16281309D01*
X8426833Y-16271786D01*
X8474452Y-16271786D01*
X8493500Y-16262262D01*
X8560167Y-16214643D02*
X8636357Y-16214643D01*
X8588738Y-16147976D02*
X8588738Y-16319405D01*
X8598262Y-16338452D01*
X8617310Y-16347976D01*
X8636357Y-16347976D01*
X8779214Y-16338452D02*
X8760167Y-16347976D01*
X8722071Y-16347976D01*
X8703024Y-16338452D01*
X8693500Y-16319405D01*
X8693500Y-16243214D01*
X8703024Y-16224167D01*
X8722071Y-16214643D01*
X8760167Y-16214643D01*
X8779214Y-16224167D01*
X8788738Y-16243214D01*
X8788738Y-16262262D01*
X8693500Y-16281309D01*
X8960167Y-16347976D02*
X8960167Y-16147976D01*
X8960167Y-16338452D02*
X8941119Y-16347976D01*
X8903024Y-16347976D01*
X8883976Y-16338452D01*
X8874452Y-16328928D01*
X8864929Y-16309881D01*
X8864929Y-16252738D01*
X8874452Y-16233690D01*
X8883976Y-16224167D01*
X8903024Y-16214643D01*
X8941119Y-16214643D01*
X8960167Y-16224167D01*
X9036357Y-16424167D02*
X9045881Y-16414643D01*
X9064929Y-16386071D01*
X9074452Y-16367024D01*
X9083976Y-16338452D01*
X9093500Y-16290833D01*
X9093500Y-16252738D01*
X9083976Y-16205119D01*
X9074452Y-16176548D01*
X9064929Y-16157500D01*
X9045881Y-16128928D01*
X9036357Y-16119405D01*
M02*
