%TF.GenerationSoftware,KiCad,Pcbnew,(6.0.7)*%
%TF.CreationDate,2022-08-16T08:24:38+10:00*%
%TF.ProjectId,Flatbox-rev1_1,466c6174-626f-4782-9d72-6576315f312e,rev?*%
%TF.SameCoordinates,Original*%
%TF.FileFunction,Soldermask,Top*%
%TF.FilePolarity,Negative*%
%FSLAX46Y46*%
G04 Gerber Fmt 4.6, Leading zero omitted, Abs format (unit mm)*
G04 Created by KiCad (PCBNEW (6.0.7)) date 2022-08-16 08:24:38*
%MOMM*%
%LPD*%
G01*
G04 APERTURE LIST*
%ADD10C,3.100000*%
%ADD11C,4.000000*%
%ADD12C,1.750000*%
%ADD13C,6.400000*%
%ADD14C,2.000000*%
%ADD15R,1.600000X1.600000*%
%ADD16C,1.600000*%
G04 APERTURE END LIST*
D10*
X34290000Y-86360000D03*
X40640000Y-83820000D03*
D11*
X38100000Y-88900000D03*
D12*
X33020000Y-88900000D03*
X43180000Y-88900000D03*
D10*
X127610000Y-127080000D03*
X133960000Y-124540000D03*
D11*
X131420000Y-129620000D03*
D12*
X126340000Y-129620000D03*
X136500000Y-129620000D03*
D10*
X224110000Y-82500000D03*
X230460000Y-79960000D03*
D11*
X227920000Y-85040000D03*
D12*
X222840000Y-85040000D03*
X233000000Y-85040000D03*
D10*
X194900000Y-82500000D03*
X201250000Y-79960000D03*
D11*
X198710000Y-85040000D03*
D12*
X193630000Y-85040000D03*
X203790000Y-85040000D03*
D10*
X166050000Y-82500000D03*
X172400000Y-79960000D03*
D11*
X169860000Y-85040000D03*
D12*
X164780000Y-85040000D03*
X174940000Y-85040000D03*
D10*
X139440000Y-93610000D03*
X145790000Y-91070000D03*
D11*
X143250000Y-96150000D03*
D12*
X138170000Y-96150000D03*
X148330000Y-96150000D03*
D10*
X229550000Y-51160000D03*
X235900000Y-48620000D03*
D11*
X233360000Y-53700000D03*
D12*
X228280000Y-53700000D03*
X238440000Y-53700000D03*
D10*
X200580000Y-50920000D03*
X206930000Y-48380000D03*
D11*
X204390000Y-53460000D03*
D12*
X199310000Y-53460000D03*
X209470000Y-53460000D03*
D10*
X171610000Y-51040000D03*
X177960000Y-48500000D03*
D11*
X175420000Y-53580000D03*
D12*
X170340000Y-53580000D03*
X180500000Y-53580000D03*
D10*
X145050000Y-62570000D03*
X151400000Y-60030000D03*
D11*
X148860000Y-65110000D03*
D12*
X143780000Y-65110000D03*
X153940000Y-65110000D03*
D10*
X110110000Y-73980000D03*
X116460000Y-71440000D03*
D11*
X113920000Y-76520000D03*
D12*
X108840000Y-76520000D03*
X119000000Y-76520000D03*
D10*
X83510000Y-62630000D03*
X89860000Y-60090000D03*
D11*
X87320000Y-65170000D03*
D12*
X82240000Y-65170000D03*
X92400000Y-65170000D03*
D10*
X54415000Y-62510000D03*
X60765000Y-59970000D03*
D11*
X58225000Y-65050000D03*
D12*
X53145000Y-65050000D03*
X63305000Y-65050000D03*
D13*
X29860000Y-37000000D03*
X29860000Y-143000000D03*
X243000000Y-143000000D03*
X243000000Y-37000000D03*
X150000000Y-37000000D03*
D14*
X88500000Y-36500000D03*
X88500000Y-43000000D03*
X93000000Y-36500000D03*
X93000000Y-43000000D03*
X65500000Y-43000000D03*
X65500000Y-36500000D03*
X70000000Y-36500000D03*
X70000000Y-43000000D03*
X98500000Y-43000000D03*
X98500000Y-36500000D03*
X103000000Y-36500000D03*
X103000000Y-43000000D03*
X55500000Y-36500000D03*
X55500000Y-43000000D03*
X60000000Y-43000000D03*
X60000000Y-36500000D03*
X75500000Y-36500000D03*
X75500000Y-43000000D03*
X80000000Y-36500000D03*
X80000000Y-43000000D03*
X108500000Y-36500000D03*
X108500000Y-43000000D03*
X113000000Y-36500000D03*
X113000000Y-43000000D03*
D13*
X133500000Y-78000000D03*
X150000000Y-143000000D03*
D15*
X118380000Y-31280000D03*
D16*
X118380000Y-33820000D03*
X118380000Y-36360000D03*
X118380000Y-38900000D03*
X118380000Y-41440000D03*
X118380000Y-43980000D03*
X118380000Y-46520000D03*
X118380000Y-49060000D03*
X118380000Y-51600000D03*
X118380000Y-54140000D03*
X118380000Y-56680000D03*
X118380000Y-59220000D03*
X133620000Y-59220000D03*
X133620000Y-56680000D03*
X133620000Y-54140000D03*
X133620000Y-51600000D03*
X133620000Y-49060000D03*
X133620000Y-46520000D03*
X133620000Y-43980000D03*
X133620000Y-41440000D03*
X133620000Y-38900000D03*
X133620000Y-36360000D03*
X133620000Y-33820000D03*
X133620000Y-31280000D03*
M02*
