%TF.GenerationSoftware,KiCad,Pcbnew,(6.0.7)*%
%TF.CreationDate,2022-08-15T09:31:34+10:00*%
%TF.ProjectId,Flatbox-rev1_1,466c6174-626f-4782-9d72-6576315f312e,rev?*%
%TF.SameCoordinates,Original*%
%TF.FileFunction,Copper,L2,Bot*%
%TF.FilePolarity,Positive*%
%FSLAX46Y46*%
G04 Gerber Fmt 4.6, Leading zero omitted, Abs format (unit mm)*
G04 Created by KiCad (PCBNEW (6.0.7)) date 2022-08-15 09:31:34*
%MOMM*%
%LPD*%
G01*
G04 APERTURE LIST*
%TA.AperFunction,SMDPad,CuDef*%
%ADD10R,2.600000X2.600000*%
%TD*%
%TA.AperFunction,ComponentPad*%
%ADD11C,2.032000*%
%TD*%
%TA.AperFunction,ComponentPad*%
%ADD12R,1.600000X1.600000*%
%TD*%
%TA.AperFunction,ComponentPad*%
%ADD13C,1.600000*%
%TD*%
%TA.AperFunction,ComponentPad*%
%ADD14C,2.000000*%
%TD*%
%TA.AperFunction,Conductor*%
%ADD15C,0.254000*%
%TD*%
%TA.AperFunction,Conductor*%
%ADD16C,0.381000*%
%TD*%
G04 APERTURE END LIST*
D10*
X34825000Y-82950000D03*
D11*
X33100000Y-92700000D03*
X38100000Y-94800000D03*
D10*
X46375000Y-85150000D03*
D12*
X118380000Y-31280000D03*
D13*
X118380000Y-33820000D03*
X118380000Y-36360000D03*
X118380000Y-38900000D03*
X118380000Y-41440000D03*
X118380000Y-43980000D03*
X118380000Y-46520000D03*
X118380000Y-49060000D03*
X118380000Y-51600000D03*
X118380000Y-54140000D03*
X118380000Y-56680000D03*
X118380000Y-59220000D03*
X133620000Y-59220000D03*
X133620000Y-56680000D03*
X133620000Y-54140000D03*
X133620000Y-51600000D03*
X133620000Y-49060000D03*
X133620000Y-46520000D03*
X133620000Y-43980000D03*
X133620000Y-41440000D03*
X133620000Y-38900000D03*
X133620000Y-36360000D03*
X133620000Y-33820000D03*
X133620000Y-31280000D03*
D14*
X113000000Y-43000000D03*
X108500000Y-43000000D03*
X113000000Y-36500000D03*
X108500000Y-36500000D03*
X103000000Y-43000000D03*
X98500000Y-43000000D03*
X103000000Y-36500000D03*
X98500000Y-36500000D03*
X93000000Y-43000000D03*
X88500000Y-43000000D03*
X93000000Y-36500000D03*
X88500000Y-36500000D03*
X80000000Y-43000000D03*
X75500000Y-43000000D03*
X80000000Y-36500000D03*
X75500000Y-36500000D03*
X70000000Y-43000000D03*
X65500000Y-43000000D03*
X70000000Y-36500000D03*
X65500000Y-36500000D03*
X60000000Y-43000000D03*
X55500000Y-43000000D03*
X60000000Y-36500000D03*
X55500000Y-36500000D03*
D10*
X236195000Y-81290000D03*
D11*
X227920000Y-90940000D03*
X222920000Y-88840000D03*
D10*
X224645000Y-79090000D03*
X195435000Y-79090000D03*
D11*
X193710000Y-88840000D03*
X198710000Y-90940000D03*
D10*
X206985000Y-81290000D03*
X178135000Y-81290000D03*
D11*
X169860000Y-90940000D03*
X164860000Y-88840000D03*
D10*
X166585000Y-79090000D03*
X151525000Y-92400000D03*
D11*
X143250000Y-102050000D03*
X138250000Y-99950000D03*
D10*
X139975000Y-90200000D03*
X230085000Y-47750000D03*
D11*
X228360000Y-57500000D03*
X233360000Y-59600000D03*
D10*
X241635000Y-49950000D03*
X212665000Y-49710000D03*
D11*
X204390000Y-59360000D03*
X199390000Y-57260000D03*
D10*
X201115000Y-47510000D03*
X183695000Y-49830000D03*
D11*
X175420000Y-59480000D03*
X170420000Y-57380000D03*
D10*
X172145000Y-47630000D03*
X157135000Y-61360000D03*
D11*
X148860000Y-71010000D03*
X143860000Y-68910000D03*
D10*
X145585000Y-59160000D03*
X139695000Y-125870000D03*
D11*
X131420000Y-135520000D03*
X126420000Y-133420000D03*
D10*
X128145000Y-123670000D03*
X122195000Y-72770000D03*
D11*
X113920000Y-82420000D03*
X108920000Y-80320000D03*
D10*
X110645000Y-70570000D03*
X95595000Y-61420000D03*
D11*
X87320000Y-71070000D03*
X82320000Y-68970000D03*
D10*
X84045000Y-59220000D03*
X66500000Y-61300000D03*
D11*
X58225000Y-70950000D03*
X53225000Y-68850000D03*
D10*
X54950000Y-59100000D03*
D15*
X38100000Y-94800000D02*
X34825000Y-91525000D01*
X34825000Y-91525000D02*
X34825000Y-82950000D01*
D16*
X25000000Y-90000000D02*
X25000000Y-78000000D01*
X25000000Y-78000000D02*
X60000000Y-43000000D01*
X27700000Y-92700000D02*
X25000000Y-90000000D01*
X33100000Y-92700000D02*
X27700000Y-92700000D01*
X37400000Y-97000000D02*
X33100000Y-92700000D01*
X39000000Y-97000000D02*
X37400000Y-97000000D01*
X46375000Y-89625000D02*
X39000000Y-97000000D01*
X46375000Y-85150000D02*
X46375000Y-89625000D01*
X46375000Y-71625000D02*
X46375000Y-85150000D01*
X49150000Y-68850000D02*
X46375000Y-71625000D01*
X53225000Y-68850000D02*
X49150000Y-68850000D01*
D15*
X172145000Y-56205000D02*
X175420000Y-59480000D01*
X145585000Y-67735000D02*
X148860000Y-71010000D01*
X172145000Y-47630000D02*
X172145000Y-56205000D01*
X139975000Y-98775000D02*
X143250000Y-102050000D01*
X139975000Y-90200000D02*
X139975000Y-98775000D01*
X195435000Y-87665000D02*
X198710000Y-90940000D01*
X195435000Y-79090000D02*
X195435000Y-87665000D01*
X166585000Y-79090000D02*
X166585000Y-87665000D01*
X166585000Y-87665000D02*
X169860000Y-90940000D01*
X145585000Y-59160000D02*
X145585000Y-67735000D01*
X65500000Y-43000000D02*
X65500000Y-36500000D01*
X98500000Y-43000000D02*
X98500000Y-36500000D01*
X224645000Y-87665000D02*
X227920000Y-90940000D01*
X55500000Y-43000000D02*
X55500000Y-36500000D01*
X75500000Y-43000000D02*
X75500000Y-36500000D01*
X108500000Y-43000000D02*
X108500000Y-36500000D01*
X224645000Y-79090000D02*
X224645000Y-87665000D01*
X88500000Y-43000000D02*
X88500000Y-36500000D01*
D16*
X86250000Y-72900000D02*
X88800000Y-72900000D01*
X168920000Y-92900000D02*
X171300000Y-92900000D01*
X232510000Y-61650000D02*
X235450000Y-61650000D01*
X148050000Y-73100000D02*
X150400000Y-73100000D01*
X143860000Y-68910000D02*
X148050000Y-73100000D01*
X132600000Y-137500000D02*
X139695000Y-130405000D01*
X115400000Y-84250000D02*
X122195000Y-77455000D01*
X126420000Y-133420000D02*
X130500000Y-137500000D01*
X157135000Y-66365000D02*
X157135000Y-61360000D01*
X200350000Y-93050000D02*
X206985000Y-86415000D01*
X82320000Y-68970000D02*
X86250000Y-72900000D01*
X112850000Y-84250000D02*
X115400000Y-84250000D01*
X206985000Y-86415000D02*
X206985000Y-81290000D01*
X57175000Y-72800000D02*
X59400000Y-72800000D01*
X151525000Y-97475000D02*
X151525000Y-92400000D01*
X197920000Y-93050000D02*
X200350000Y-93050000D01*
X122195000Y-77455000D02*
X122195000Y-72770000D01*
X108920000Y-80320000D02*
X112850000Y-84250000D01*
X144900000Y-104100000D02*
X151525000Y-97475000D01*
X150400000Y-73100000D02*
X157135000Y-66365000D01*
X193710000Y-88840000D02*
X197920000Y-93050000D01*
X53225000Y-68850000D02*
X57175000Y-72800000D01*
X164860000Y-88840000D02*
X168920000Y-92900000D01*
X229800000Y-92900000D02*
X236195000Y-86505000D01*
X95595000Y-66105000D02*
X95595000Y-61420000D01*
X226980000Y-92900000D02*
X229800000Y-92900000D01*
X138250000Y-99950000D02*
X142400000Y-104100000D01*
X139695000Y-130405000D02*
X139695000Y-125870000D01*
X222920000Y-88840000D02*
X226980000Y-92900000D01*
X241635000Y-55465000D02*
X241635000Y-49950000D01*
X142400000Y-104100000D02*
X144900000Y-104100000D01*
X235450000Y-61650000D02*
X241635000Y-55465000D01*
X228360000Y-57500000D02*
X232510000Y-61650000D01*
X171300000Y-92900000D02*
X178135000Y-86065000D01*
X88800000Y-72900000D02*
X95595000Y-66105000D01*
X178135000Y-86065000D02*
X178135000Y-81290000D01*
X236195000Y-86505000D02*
X236195000Y-81290000D01*
X130500000Y-137500000D02*
X132600000Y-137500000D01*
X59400000Y-72800000D02*
X66500000Y-65700000D01*
X98100000Y-69500000D02*
X108920000Y-80320000D01*
X118380000Y-36360000D02*
X124240000Y-36360000D01*
X126780000Y-33820000D02*
X133620000Y-33820000D01*
X124240000Y-36360000D02*
X126780000Y-33820000D01*
X155085000Y-88840000D02*
X151525000Y-92400000D01*
X191960000Y-49830000D02*
X196831401Y-54701401D01*
X118380000Y-36360000D02*
X118380000Y-38900000D01*
X142050000Y-67100000D02*
X143860000Y-68910000D01*
X224500000Y-69595000D02*
X236195000Y-81290000D01*
X117100000Y-38900000D02*
X113000000Y-43000000D01*
X118380000Y-38900000D02*
X117100000Y-38900000D01*
X235585000Y-43900000D02*
X241635000Y-49950000D01*
X218475000Y-43900000D02*
X235585000Y-43900000D01*
X212665000Y-49710000D02*
X218475000Y-43900000D01*
X190090000Y-88840000D02*
X182540000Y-81290000D01*
X174640000Y-61600000D02*
X176600000Y-61600000D01*
X71300000Y-61300000D02*
X78970000Y-68970000D01*
X224500000Y-61360000D02*
X224500000Y-69595000D01*
X134550000Y-114900000D02*
X139695000Y-120045000D01*
X82100000Y-34400000D02*
X80000000Y-36500000D01*
X90900000Y-34400000D02*
X82100000Y-34400000D01*
X161945000Y-56550000D02*
X169590000Y-56550000D01*
X66500000Y-61300000D02*
X71300000Y-61300000D01*
X222920000Y-88840000D02*
X219340000Y-88840000D01*
X78970000Y-68970000D02*
X82320000Y-68970000D01*
X170420000Y-57380000D02*
X174640000Y-61600000D01*
X203630000Y-61500000D02*
X205700000Y-61500000D01*
X157135000Y-61360000D02*
X161945000Y-56550000D01*
X193710000Y-88840000D02*
X190090000Y-88840000D01*
X212665000Y-54535000D02*
X212665000Y-49710000D01*
X127865000Y-67100000D02*
X142050000Y-67100000D01*
X211790000Y-81290000D02*
X206985000Y-81290000D01*
X164860000Y-88840000D02*
X155085000Y-88840000D01*
X134550000Y-103650000D02*
X134550000Y-114900000D01*
X95100000Y-45100000D02*
X93000000Y-43000000D01*
X138250000Y-99950000D02*
X134550000Y-103650000D01*
X196831401Y-54701401D02*
X199390000Y-57260000D01*
X182540000Y-81290000D02*
X178135000Y-81290000D01*
X97270000Y-61420000D02*
X98100000Y-62250000D01*
X100900000Y-45100000D02*
X95100000Y-45100000D01*
X77900000Y-45100000D02*
X72100000Y-45100000D01*
X80000000Y-43000000D02*
X77900000Y-45100000D01*
X199390000Y-57260000D02*
X203630000Y-61500000D01*
X228360000Y-57500000D02*
X224500000Y-61360000D01*
X219340000Y-88840000D02*
X211790000Y-81290000D01*
X183695000Y-49830000D02*
X191960000Y-49830000D01*
X98100000Y-62250000D02*
X98100000Y-69500000D01*
X95595000Y-61420000D02*
X97270000Y-61420000D01*
X183695000Y-54505000D02*
X183695000Y-49830000D01*
X205700000Y-61500000D02*
X212665000Y-54535000D01*
X169590000Y-56550000D02*
X170420000Y-57380000D01*
X139695000Y-120045000D02*
X139695000Y-125870000D01*
X176600000Y-61600000D02*
X183695000Y-54505000D01*
X72100000Y-45100000D02*
X70000000Y-43000000D01*
X122195000Y-72770000D02*
X127865000Y-67100000D01*
X103000000Y-43000000D02*
X100900000Y-45100000D01*
X93000000Y-36500000D02*
X90900000Y-34400000D01*
X105100000Y-34400000D02*
X103000000Y-36500000D01*
X113000000Y-36500000D02*
X110900000Y-34400000D01*
X110900000Y-34400000D02*
X105100000Y-34400000D01*
X62100000Y-34400000D02*
X60000000Y-36500000D01*
X70000000Y-36500000D02*
X67900000Y-34400000D01*
D15*
X54950000Y-67675000D02*
X58225000Y-70950000D01*
D16*
X67900000Y-34400000D02*
X62100000Y-34400000D01*
D15*
X54950000Y-59100000D02*
X54950000Y-67675000D01*
X110645000Y-79145000D02*
X113920000Y-82420000D01*
X110645000Y-70570000D02*
X110645000Y-79145000D01*
X128145000Y-132245000D02*
X131420000Y-135520000D01*
X84045000Y-59220000D02*
X84045000Y-67795000D01*
X230085000Y-56325000D02*
X233360000Y-59600000D01*
X230085000Y-47750000D02*
X230085000Y-56325000D01*
X201115000Y-47510000D02*
X201115000Y-56085000D01*
X84045000Y-67795000D02*
X87320000Y-71070000D01*
X201115000Y-56085000D02*
X204390000Y-59360000D01*
X128145000Y-123670000D02*
X128145000Y-132245000D01*
D16*
X93000000Y-36500000D02*
X93000000Y-43000000D01*
X66500000Y-65700000D02*
X66500000Y-61300000D01*
X113000000Y-36500000D02*
X113000000Y-43000000D01*
X103000000Y-36500000D02*
X103000000Y-43000000D01*
X80000000Y-36500000D02*
X80000000Y-43000000D01*
X70000000Y-36500000D02*
X70000000Y-43000000D01*
X60000000Y-36500000D02*
X60000000Y-43000000D01*
M02*
