%TF.GenerationSoftware,KiCad,Pcbnew,(6.0.7)*%
%TF.CreationDate,2022-08-15T09:31:34+10:00*%
%TF.ProjectId,Flatbox-rev1_1,466c6174-626f-4782-9d72-6576315f312e,rev?*%
%TF.SameCoordinates,Original*%
%TF.FileFunction,Soldermask,Bot*%
%TF.FilePolarity,Negative*%
%FSLAX46Y46*%
G04 Gerber Fmt 4.6, Leading zero omitted, Abs format (unit mm)*
G04 Created by KiCad (PCBNEW (6.0.7)) date 2022-08-15 09:31:34*
%MOMM*%
%LPD*%
G01*
G04 APERTURE LIST*
%ADD10C,6.400000*%
%ADD11C,1.701800*%
%ADD12R,2.600000X2.600000*%
%ADD13C,3.000000*%
%ADD14C,3.429000*%
%ADD15C,2.032000*%
%ADD16R,1.600000X1.600000*%
%ADD17C,1.600000*%
%ADD18C,2.000000*%
G04 APERTURE END LIST*
D10*
X133500000Y-78000000D03*
D11*
X32600000Y-88900000D03*
X43600000Y-88900000D03*
D12*
X34825000Y-82950000D03*
D13*
X43100000Y-85150000D03*
D14*
X38100000Y-88900000D03*
D15*
X33100000Y-92700000D03*
X38100000Y-94800000D03*
D13*
X38100000Y-82950000D03*
D12*
X46375000Y-85150000D03*
D16*
X118380000Y-31280000D03*
D17*
X118380000Y-33820000D03*
X118380000Y-36360000D03*
X118380000Y-38900000D03*
X118380000Y-41440000D03*
X118380000Y-43980000D03*
X118380000Y-46520000D03*
X118380000Y-49060000D03*
X118380000Y-51600000D03*
X118380000Y-54140000D03*
X118380000Y-56680000D03*
X118380000Y-59220000D03*
X133620000Y-59220000D03*
X133620000Y-56680000D03*
X133620000Y-54140000D03*
X133620000Y-51600000D03*
X133620000Y-49060000D03*
X133620000Y-46520000D03*
X133620000Y-43980000D03*
X133620000Y-41440000D03*
X133620000Y-38900000D03*
X133620000Y-36360000D03*
X133620000Y-33820000D03*
X133620000Y-31280000D03*
D18*
X113000000Y-43000000D03*
X108500000Y-43000000D03*
X113000000Y-36500000D03*
X108500000Y-36500000D03*
X103000000Y-43000000D03*
X98500000Y-43000000D03*
X103000000Y-36500000D03*
X98500000Y-36500000D03*
X93000000Y-43000000D03*
X88500000Y-43000000D03*
X93000000Y-36500000D03*
X88500000Y-36500000D03*
X80000000Y-43000000D03*
X75500000Y-43000000D03*
X80000000Y-36500000D03*
X75500000Y-36500000D03*
X70000000Y-43000000D03*
X65500000Y-43000000D03*
X70000000Y-36500000D03*
X65500000Y-36500000D03*
X60000000Y-43000000D03*
X55500000Y-43000000D03*
X60000000Y-36500000D03*
X55500000Y-36500000D03*
D10*
X150000000Y-143000000D03*
X150000000Y-37000000D03*
X243000000Y-37000000D03*
X243000000Y-143000000D03*
X29860000Y-143000000D03*
X29860000Y-37000000D03*
D12*
X236195000Y-81290000D03*
D13*
X227920000Y-79090000D03*
D15*
X227920000Y-90940000D03*
X222920000Y-88840000D03*
D14*
X227920000Y-85040000D03*
D13*
X232920000Y-81290000D03*
D12*
X224645000Y-79090000D03*
D11*
X233420000Y-85040000D03*
X222420000Y-85040000D03*
X193210000Y-85040000D03*
X204210000Y-85040000D03*
D12*
X195435000Y-79090000D03*
D13*
X203710000Y-81290000D03*
D14*
X198710000Y-85040000D03*
D15*
X193710000Y-88840000D03*
X198710000Y-90940000D03*
D13*
X198710000Y-79090000D03*
D12*
X206985000Y-81290000D03*
X178135000Y-81290000D03*
D13*
X169860000Y-79090000D03*
D15*
X169860000Y-90940000D03*
X164860000Y-88840000D03*
D14*
X169860000Y-85040000D03*
D13*
X174860000Y-81290000D03*
D12*
X166585000Y-79090000D03*
D11*
X175360000Y-85040000D03*
X164360000Y-85040000D03*
D12*
X151525000Y-92400000D03*
D13*
X143250000Y-90200000D03*
D15*
X143250000Y-102050000D03*
X138250000Y-99950000D03*
D14*
X143250000Y-96150000D03*
D13*
X148250000Y-92400000D03*
D12*
X139975000Y-90200000D03*
D11*
X148750000Y-96150000D03*
X137750000Y-96150000D03*
X227860000Y-53700000D03*
X238860000Y-53700000D03*
D12*
X230085000Y-47750000D03*
D13*
X238360000Y-49950000D03*
D14*
X233360000Y-53700000D03*
D15*
X228360000Y-57500000D03*
X233360000Y-59600000D03*
D13*
X233360000Y-47750000D03*
D12*
X241635000Y-49950000D03*
X212665000Y-49710000D03*
D13*
X204390000Y-47510000D03*
D15*
X204390000Y-59360000D03*
X199390000Y-57260000D03*
D14*
X204390000Y-53460000D03*
D13*
X209390000Y-49710000D03*
D12*
X201115000Y-47510000D03*
D11*
X209890000Y-53460000D03*
X198890000Y-53460000D03*
D12*
X183695000Y-49830000D03*
D13*
X175420000Y-47630000D03*
D15*
X175420000Y-59480000D03*
X170420000Y-57380000D03*
D14*
X175420000Y-53580000D03*
D13*
X180420000Y-49830000D03*
D12*
X172145000Y-47630000D03*
D11*
X180920000Y-53580000D03*
X169920000Y-53580000D03*
D12*
X157135000Y-61360000D03*
D13*
X148860000Y-59160000D03*
D15*
X148860000Y-71010000D03*
X143860000Y-68910000D03*
D14*
X148860000Y-65110000D03*
D13*
X153860000Y-61360000D03*
D12*
X145585000Y-59160000D03*
D11*
X154360000Y-65110000D03*
X143360000Y-65110000D03*
D12*
X139695000Y-125870000D03*
D13*
X131420000Y-123670000D03*
D15*
X131420000Y-135520000D03*
X126420000Y-133420000D03*
D14*
X131420000Y-129620000D03*
D13*
X136420000Y-125870000D03*
D12*
X128145000Y-123670000D03*
D11*
X136920000Y-129620000D03*
X125920000Y-129620000D03*
D12*
X122195000Y-72770000D03*
D13*
X113920000Y-70570000D03*
D15*
X113920000Y-82420000D03*
X108920000Y-80320000D03*
D14*
X113920000Y-76520000D03*
D13*
X118920000Y-72770000D03*
D12*
X110645000Y-70570000D03*
D11*
X119420000Y-76520000D03*
X108420000Y-76520000D03*
D12*
X95595000Y-61420000D03*
D13*
X87320000Y-59220000D03*
D15*
X87320000Y-71070000D03*
X82320000Y-68970000D03*
D14*
X87320000Y-65170000D03*
D13*
X92320000Y-61420000D03*
D12*
X84045000Y-59220000D03*
D11*
X92820000Y-65170000D03*
X81820000Y-65170000D03*
D12*
X66500000Y-61300000D03*
D13*
X58225000Y-59100000D03*
D15*
X58225000Y-70950000D03*
X53225000Y-68850000D03*
D14*
X58225000Y-65050000D03*
D13*
X63225000Y-61300000D03*
D12*
X54950000Y-59100000D03*
D11*
X63725000Y-65050000D03*
X52725000Y-65050000D03*
M02*
