%TF.GenerationSoftware,KiCad,Pcbnew,(6.0.7)*%
%TF.CreationDate,2022-08-15T09:32:31+10:00*%
%TF.ProjectId,Flatbox-rev1_1_goldenratio,466c6174-626f-4782-9d72-6576315f315f,rev?*%
%TF.SameCoordinates,Original*%
%TF.FileFunction,Soldermask,Top*%
%TF.FilePolarity,Negative*%
%FSLAX46Y46*%
G04 Gerber Fmt 4.6, Leading zero omitted, Abs format (unit mm)*
G04 Created by KiCad (PCBNEW (6.0.7)) date 2022-08-15 09:32:31*
%MOMM*%
%LPD*%
G01*
G04 APERTURE LIST*
%ADD10C,3.429000*%
%ADD11C,1.701800*%
%ADD12C,3.000000*%
%ADD13C,2.032000*%
%ADD14C,6.400000*%
%ADD15C,2.000000*%
%ADD16R,1.600000X1.600000*%
%ADD17C,1.600000*%
G04 APERTURE END LIST*
D10*
X105680000Y-56210000D03*
D11*
X111180000Y-56210000D03*
D12*
X105680000Y-50260000D03*
X110680000Y-52460000D03*
D11*
X100180000Y-56210000D03*
D13*
X105680000Y-62110000D03*
X100680000Y-60010000D03*
D12*
X137280000Y-63810000D03*
D10*
X132280000Y-67560000D03*
D11*
X126780000Y-67560000D03*
D12*
X132280000Y-61610000D03*
D11*
X137780000Y-67560000D03*
D13*
X132280000Y-73460000D03*
X127280000Y-71360000D03*
D10*
X149780000Y-120660000D03*
D12*
X154780000Y-116910000D03*
D11*
X144280000Y-120660000D03*
X155280000Y-120660000D03*
D12*
X149780000Y-114710000D03*
D13*
X149780000Y-126560000D03*
X144780000Y-124460000D03*
D11*
X161720000Y-56150000D03*
X172720000Y-56150000D03*
D10*
X167220000Y-56150000D03*
D12*
X167220000Y-50200000D03*
X172220000Y-52400000D03*
D13*
X167220000Y-62050000D03*
X162220000Y-59950000D03*
D11*
X199280000Y-44620000D03*
X188280000Y-44620000D03*
D12*
X193780000Y-38670000D03*
D10*
X193780000Y-44620000D03*
D12*
X198780000Y-40870000D03*
D13*
X193780000Y-50520000D03*
X188780000Y-48420000D03*
D12*
X222750000Y-38550000D03*
D11*
X228250000Y-44500000D03*
D10*
X222750000Y-44500000D03*
D11*
X217250000Y-44500000D03*
D12*
X227750000Y-40750000D03*
D13*
X222750000Y-50400000D03*
X217750000Y-48300000D03*
D12*
X256720000Y-40990000D03*
X251720000Y-38790000D03*
D11*
X246220000Y-44740000D03*
X257220000Y-44740000D03*
D10*
X251720000Y-44740000D03*
D13*
X251720000Y-50640000D03*
X246720000Y-48540000D03*
D12*
X161610000Y-81240000D03*
X166610000Y-83440000D03*
D10*
X161610000Y-87190000D03*
D11*
X156110000Y-87190000D03*
X167110000Y-87190000D03*
D13*
X161610000Y-93090000D03*
X156610000Y-90990000D03*
D10*
X188220000Y-76080000D03*
D11*
X193720000Y-76080000D03*
X182720000Y-76080000D03*
D12*
X193220000Y-72330000D03*
X188220000Y-70130000D03*
D13*
X188220000Y-81980000D03*
X183220000Y-79880000D03*
D10*
X217070000Y-76080000D03*
D12*
X217070000Y-70130000D03*
D11*
X211570000Y-76080000D03*
D12*
X222070000Y-72330000D03*
D11*
X222570000Y-76080000D03*
D13*
X217070000Y-81980000D03*
X212070000Y-79880000D03*
D11*
X240780000Y-76080000D03*
D12*
X251280000Y-72330000D03*
D10*
X246280000Y-76080000D03*
D11*
X251780000Y-76080000D03*
D12*
X246280000Y-70130000D03*
D13*
X246280000Y-81980000D03*
X241280000Y-79880000D03*
D14*
X48220000Y-28040000D03*
X48220000Y-182790000D03*
X277480000Y-182785000D03*
X277480000Y-28035000D03*
D11*
X71085000Y-56090000D03*
X82085000Y-56090000D03*
D12*
X81585000Y-52340000D03*
D10*
X76585000Y-56090000D03*
D12*
X76585000Y-50140000D03*
D13*
X76585000Y-61990000D03*
X71585000Y-59890000D03*
D14*
X168360000Y-28040000D03*
D15*
X106860000Y-27540000D03*
X106860000Y-34040000D03*
X111360000Y-27540000D03*
X111360000Y-34040000D03*
X83860000Y-34040000D03*
X83860000Y-27540000D03*
X88360000Y-27540000D03*
X88360000Y-34040000D03*
X116860000Y-34040000D03*
X116860000Y-27540000D03*
X121360000Y-27540000D03*
X121360000Y-34040000D03*
X73860000Y-27540000D03*
X73860000Y-34040000D03*
X78360000Y-34040000D03*
X78360000Y-27540000D03*
X93860000Y-27540000D03*
X93860000Y-34040000D03*
X98360000Y-27540000D03*
X98360000Y-34040000D03*
X126860000Y-27540000D03*
X126860000Y-34040000D03*
X131360000Y-27540000D03*
X131360000Y-34040000D03*
D14*
X151860000Y-69040000D03*
X168360000Y-182790000D03*
D16*
X136740000Y-22320000D03*
D17*
X136740000Y-24860000D03*
X136740000Y-27400000D03*
X136740000Y-29940000D03*
X136740000Y-32480000D03*
X136740000Y-35020000D03*
X136740000Y-37560000D03*
X136740000Y-40100000D03*
X136740000Y-42640000D03*
X136740000Y-45180000D03*
X136740000Y-47720000D03*
X136740000Y-50260000D03*
X151980000Y-50260000D03*
X151980000Y-47720000D03*
X151980000Y-45180000D03*
X151980000Y-42640000D03*
X151980000Y-40100000D03*
X151980000Y-37560000D03*
X151980000Y-35020000D03*
X151980000Y-32480000D03*
X151980000Y-29940000D03*
X151980000Y-27400000D03*
X151980000Y-24860000D03*
X151980000Y-22320000D03*
D10*
X56460000Y-79940000D03*
D11*
X50960000Y-79940000D03*
X61960000Y-79940000D03*
D12*
X56460000Y-73990000D03*
X61460000Y-76190000D03*
D13*
X56460000Y-85840000D03*
X51460000Y-83740000D03*
M02*
