%TF.GenerationSoftware,KiCad,Pcbnew,(6.0.7)*%
%TF.CreationDate,2022-08-15T09:32:31+10:00*%
%TF.ProjectId,Flatbox-rev1_1_goldenratio,466c6174-626f-4782-9d72-6576315f315f,rev?*%
%TF.SameCoordinates,Original*%
%TF.FileFunction,Copper,L2,Bot*%
%TF.FilePolarity,Positive*%
%FSLAX46Y46*%
G04 Gerber Fmt 4.6, Leading zero omitted, Abs format (unit mm)*
G04 Created by KiCad (PCBNEW (6.0.7)) date 2022-08-15 09:32:31*
%MOMM*%
%LPD*%
G01*
G04 APERTURE LIST*
%TA.AperFunction,SMDPad,CuDef*%
%ADD10R,2.600000X2.600000*%
%TD*%
%TA.AperFunction,ComponentPad*%
%ADD11C,2.032000*%
%TD*%
%TA.AperFunction,ComponentPad*%
%ADD12C,2.000000*%
%TD*%
%TA.AperFunction,ComponentPad*%
%ADD13R,1.600000X1.600000*%
%TD*%
%TA.AperFunction,ComponentPad*%
%ADD14C,1.600000*%
%TD*%
%TA.AperFunction,Conductor*%
%ADD15C,0.381000*%
%TD*%
%TA.AperFunction,Conductor*%
%ADD16C,0.254000*%
%TD*%
G04 APERTURE END LIST*
D10*
X102405000Y-50260000D03*
D11*
X105680000Y-62110000D03*
X100680000Y-60010000D03*
D10*
X113955000Y-52460000D03*
D11*
X132280000Y-73460000D03*
D10*
X129005000Y-61610000D03*
D11*
X127280000Y-71360000D03*
D10*
X140555000Y-63810000D03*
X146505000Y-114710000D03*
D11*
X149780000Y-126560000D03*
D10*
X158055000Y-116910000D03*
D11*
X144780000Y-124460000D03*
X167220000Y-62050000D03*
D10*
X163945000Y-50200000D03*
D11*
X162220000Y-59950000D03*
D10*
X175495000Y-52400000D03*
X190505000Y-38670000D03*
D11*
X193780000Y-50520000D03*
D10*
X202055000Y-40870000D03*
D11*
X188780000Y-48420000D03*
X222750000Y-50400000D03*
D10*
X219475000Y-38550000D03*
D11*
X217750000Y-48300000D03*
D10*
X231025000Y-40750000D03*
D11*
X251720000Y-50640000D03*
D10*
X248445000Y-38790000D03*
D11*
X246720000Y-48540000D03*
D10*
X259995000Y-40990000D03*
X158335000Y-81240000D03*
D11*
X161610000Y-93090000D03*
X156610000Y-90990000D03*
D10*
X169885000Y-83440000D03*
D11*
X188220000Y-81980000D03*
D10*
X184945000Y-70130000D03*
X196495000Y-72330000D03*
D11*
X183220000Y-79880000D03*
X217070000Y-81980000D03*
D10*
X213795000Y-70130000D03*
X225345000Y-72330000D03*
D11*
X212070000Y-79880000D03*
D10*
X243005000Y-70130000D03*
D11*
X246280000Y-81980000D03*
D10*
X254555000Y-72330000D03*
D11*
X241280000Y-79880000D03*
X76585000Y-61990000D03*
D10*
X73310000Y-50140000D03*
D11*
X71585000Y-59890000D03*
D10*
X84860000Y-52340000D03*
D12*
X106860000Y-27540000D03*
X106860000Y-34040000D03*
X111360000Y-27540000D03*
X111360000Y-34040000D03*
X83860000Y-34040000D03*
X83860000Y-27540000D03*
X88360000Y-27540000D03*
X88360000Y-34040000D03*
X116860000Y-34040000D03*
X116860000Y-27540000D03*
X121360000Y-27540000D03*
X121360000Y-34040000D03*
X73860000Y-27540000D03*
X73860000Y-34040000D03*
X78360000Y-34040000D03*
X78360000Y-27540000D03*
X93860000Y-27540000D03*
X93860000Y-34040000D03*
X98360000Y-27540000D03*
X98360000Y-34040000D03*
X126860000Y-27540000D03*
X126860000Y-34040000D03*
X131360000Y-27540000D03*
X131360000Y-34040000D03*
D13*
X136740000Y-22320000D03*
D14*
X136740000Y-24860000D03*
X136740000Y-27400000D03*
X136740000Y-29940000D03*
X136740000Y-32480000D03*
X136740000Y-35020000D03*
X136740000Y-37560000D03*
X136740000Y-40100000D03*
X136740000Y-42640000D03*
X136740000Y-45180000D03*
X136740000Y-47720000D03*
X136740000Y-50260000D03*
X151980000Y-50260000D03*
X151980000Y-47720000D03*
X151980000Y-45180000D03*
X151980000Y-42640000D03*
X151980000Y-40100000D03*
X151980000Y-37560000D03*
X151980000Y-35020000D03*
X151980000Y-32480000D03*
X151980000Y-29940000D03*
X151980000Y-27400000D03*
X151980000Y-24860000D03*
X151980000Y-22320000D03*
D10*
X53185000Y-73990000D03*
D11*
X56460000Y-85840000D03*
X51460000Y-83740000D03*
D10*
X64735000Y-76190000D03*
D15*
X248160000Y-83940000D02*
X254555000Y-77545000D01*
X88360000Y-27540000D02*
X88360000Y-34040000D01*
X246720000Y-48540000D02*
X242860000Y-52400000D01*
X46060000Y-83740000D02*
X43360000Y-81040000D01*
X175495000Y-52400000D02*
X180305000Y-47590000D01*
X121360000Y-27540000D02*
X121360000Y-34040000D01*
X113955000Y-57145000D02*
X113955000Y-52460000D01*
X253945000Y-34940000D02*
X259995000Y-40990000D01*
X119260000Y-36140000D02*
X113460000Y-36140000D01*
X121360000Y-34040000D02*
X119260000Y-36140000D01*
X129260000Y-25440000D02*
X123460000Y-25440000D01*
X90460000Y-36140000D02*
X88360000Y-34040000D01*
X241280000Y-79880000D02*
X237700000Y-79880000D01*
X194960000Y-52640000D02*
X202055000Y-45545000D01*
X67510000Y-59890000D02*
X64735000Y-62665000D01*
X237700000Y-79880000D02*
X230150000Y-72330000D01*
X77760000Y-63840000D02*
X84860000Y-56740000D01*
X148860000Y-128540000D02*
X150960000Y-128540000D01*
X250870000Y-52690000D02*
X253810000Y-52690000D01*
X43360000Y-81040000D02*
X43360000Y-69040000D01*
X187950000Y-47590000D02*
X188780000Y-48420000D01*
X140555000Y-63810000D02*
X146225000Y-58140000D01*
X51460000Y-83740000D02*
X46060000Y-83740000D01*
X145140000Y-24860000D02*
X151980000Y-24860000D01*
X75535000Y-63840000D02*
X77760000Y-63840000D01*
X116460000Y-53290000D02*
X116460000Y-60540000D01*
X189660000Y-83940000D02*
X196495000Y-77105000D01*
X162220000Y-59950000D02*
X166410000Y-64140000D01*
X156610000Y-90990000D02*
X160760000Y-95140000D01*
X84860000Y-52340000D02*
X89660000Y-52340000D01*
X200900000Y-72330000D02*
X196495000Y-72330000D01*
X160410000Y-58140000D02*
X162220000Y-59950000D01*
X131360000Y-27540000D02*
X131360000Y-34040000D01*
X100680000Y-60010000D02*
X104610000Y-63940000D01*
X127280000Y-71360000D02*
X131210000Y-75290000D01*
X136740000Y-27400000D02*
X136740000Y-29940000D01*
X142600000Y-27400000D02*
X145140000Y-24860000D01*
X152910000Y-94690000D02*
X152910000Y-105940000D01*
X116460000Y-60540000D02*
X127280000Y-71360000D01*
X98360000Y-27540000D02*
X98360000Y-34040000D01*
X55760000Y-88040000D02*
X51460000Y-83740000D01*
X123460000Y-25440000D02*
X121360000Y-27540000D01*
X196495000Y-77105000D02*
X196495000Y-72330000D01*
X158055000Y-121445000D02*
X158055000Y-116910000D01*
X156610000Y-90990000D02*
X152910000Y-94690000D01*
X86260000Y-25440000D02*
X80460000Y-25440000D01*
X221990000Y-52540000D02*
X224060000Y-52540000D01*
X166410000Y-64140000D02*
X168760000Y-64140000D01*
X168760000Y-64140000D02*
X175495000Y-57405000D01*
X212070000Y-79880000D02*
X208450000Y-79880000D01*
X187280000Y-83940000D02*
X189660000Y-83940000D01*
X98360000Y-34040000D02*
X96260000Y-36140000D01*
X193000000Y-52640000D02*
X194960000Y-52640000D01*
X104610000Y-63940000D02*
X107160000Y-63940000D01*
X144780000Y-124460000D02*
X148860000Y-128540000D01*
X136740000Y-27400000D02*
X142600000Y-27400000D01*
X208450000Y-79880000D02*
X200900000Y-72330000D01*
X242860000Y-52400000D02*
X242860000Y-60635000D01*
X111360000Y-27540000D02*
X109260000Y-25440000D01*
X133760000Y-75290000D02*
X140555000Y-68495000D01*
X146225000Y-58140000D02*
X160410000Y-58140000D01*
X231025000Y-45575000D02*
X231025000Y-40750000D01*
X180305000Y-47590000D02*
X187950000Y-47590000D01*
X230150000Y-72330000D02*
X225345000Y-72330000D01*
X100460000Y-25440000D02*
X98360000Y-27540000D01*
X80460000Y-25440000D02*
X78360000Y-27540000D01*
X152910000Y-105940000D02*
X158055000Y-111085000D01*
X96260000Y-36140000D02*
X90460000Y-36140000D01*
X113460000Y-36140000D02*
X111360000Y-34040000D01*
X43360000Y-69040000D02*
X78360000Y-34040000D01*
X246720000Y-48540000D02*
X250870000Y-52690000D01*
X89660000Y-52340000D02*
X97330000Y-60010000D01*
X163260000Y-95140000D02*
X169885000Y-88515000D01*
X215191401Y-45741401D02*
X217750000Y-48300000D01*
X218710000Y-84090000D02*
X225345000Y-77455000D01*
X212070000Y-79880000D02*
X216280000Y-84090000D01*
X107160000Y-63940000D02*
X113955000Y-57145000D01*
X57360000Y-88040000D02*
X55760000Y-88040000D01*
X173445000Y-79880000D02*
X169885000Y-83440000D01*
X175495000Y-57405000D02*
X175495000Y-52400000D01*
X254555000Y-77545000D02*
X254555000Y-72330000D01*
X259995000Y-46505000D02*
X259995000Y-40990000D01*
X136740000Y-29940000D02*
X135460000Y-29940000D01*
X88360000Y-27540000D02*
X86260000Y-25440000D01*
X210320000Y-40870000D02*
X215191401Y-45741401D01*
X140555000Y-68495000D02*
X140555000Y-63810000D01*
X71585000Y-59890000D02*
X67510000Y-59890000D01*
X202055000Y-45545000D02*
X202055000Y-40870000D01*
X183220000Y-79880000D02*
X187280000Y-83940000D01*
X78360000Y-27540000D02*
X78360000Y-34040000D01*
X245340000Y-83940000D02*
X248160000Y-83940000D01*
X97330000Y-60010000D02*
X100680000Y-60010000D01*
X169885000Y-88515000D02*
X169885000Y-83440000D01*
X231025000Y-40750000D02*
X236835000Y-34940000D01*
X64735000Y-76190000D02*
X64735000Y-80665000D01*
X64735000Y-62665000D02*
X64735000Y-76190000D01*
X236835000Y-34940000D02*
X253945000Y-34940000D01*
X131360000Y-27540000D02*
X129260000Y-25440000D01*
X183220000Y-79880000D02*
X173445000Y-79880000D01*
X202055000Y-40870000D02*
X210320000Y-40870000D01*
X115630000Y-52460000D02*
X116460000Y-53290000D01*
X241280000Y-79880000D02*
X245340000Y-83940000D01*
X109260000Y-25440000D02*
X100460000Y-25440000D01*
X113955000Y-52460000D02*
X115630000Y-52460000D01*
X216280000Y-84090000D02*
X218710000Y-84090000D01*
X224060000Y-52540000D02*
X231025000Y-45575000D01*
X71585000Y-59890000D02*
X75535000Y-63840000D01*
X150960000Y-128540000D02*
X158055000Y-121445000D01*
X225345000Y-77455000D02*
X225345000Y-72330000D01*
X158055000Y-111085000D02*
X158055000Y-116910000D01*
X111360000Y-27540000D02*
X111360000Y-34040000D01*
X242860000Y-60635000D02*
X254555000Y-72330000D01*
X84860000Y-56740000D02*
X84860000Y-52340000D01*
X160760000Y-95140000D02*
X163260000Y-95140000D01*
X131210000Y-75290000D02*
X133760000Y-75290000D01*
X253810000Y-52690000D02*
X259995000Y-46505000D01*
X188780000Y-48420000D02*
X193000000Y-52640000D01*
X135460000Y-29940000D02*
X131360000Y-34040000D01*
X64735000Y-80665000D02*
X57360000Y-88040000D01*
X217750000Y-48300000D02*
X221990000Y-52540000D01*
D16*
X73310000Y-50140000D02*
X73310000Y-58715000D01*
X73310000Y-58715000D02*
X76585000Y-61990000D01*
X102405000Y-58835000D02*
X105680000Y-62110000D01*
X102405000Y-50260000D02*
X102405000Y-58835000D01*
X129005000Y-70185000D02*
X132280000Y-73460000D01*
X129005000Y-61610000D02*
X129005000Y-70185000D01*
X146505000Y-123285000D02*
X149780000Y-126560000D01*
X146505000Y-114710000D02*
X146505000Y-123285000D01*
X248445000Y-47365000D02*
X251720000Y-50640000D01*
X248445000Y-38790000D02*
X248445000Y-47365000D01*
X219475000Y-38550000D02*
X219475000Y-47125000D01*
X219475000Y-47125000D02*
X222750000Y-50400000D01*
X190505000Y-47245000D02*
X193780000Y-50520000D01*
X190505000Y-38670000D02*
X190505000Y-47245000D01*
X163945000Y-58775000D02*
X167220000Y-62050000D01*
X163945000Y-50200000D02*
X163945000Y-58775000D01*
X184945000Y-78705000D02*
X188220000Y-81980000D01*
X184945000Y-70130000D02*
X184945000Y-78705000D01*
X158335000Y-89815000D02*
X161610000Y-93090000D01*
X158335000Y-81240000D02*
X158335000Y-89815000D01*
X213795000Y-78705000D02*
X217070000Y-81980000D01*
X213795000Y-70130000D02*
X213795000Y-78705000D01*
X243005000Y-78705000D02*
X246280000Y-81980000D01*
X243005000Y-70130000D02*
X243005000Y-78705000D01*
X56460000Y-85840000D02*
X53185000Y-82565000D01*
X73860000Y-34040000D02*
X73860000Y-27540000D01*
X53185000Y-82565000D02*
X53185000Y-73990000D01*
X83860000Y-34040000D02*
X83860000Y-27540000D01*
X93860000Y-34040000D02*
X93860000Y-27540000D01*
X106860000Y-34040000D02*
X106860000Y-27540000D01*
X116860000Y-34040000D02*
X116860000Y-27540000D01*
X126860000Y-34040000D02*
X126860000Y-27540000D01*
M02*
