%TF.GenerationSoftware,KiCad,Pcbnew,(6.0.7)*%
%TF.CreationDate,2022-08-14T15:20:51+10:00*%
%TF.ProjectId,Flatbox-rev1_1,466c6174-626f-4782-9d72-6576315f312e,rev?*%
%TF.SameCoordinates,Original*%
%TF.FileFunction,Copper,L1,Top*%
%TF.FilePolarity,Positive*%
%FSLAX46Y46*%
G04 Gerber Fmt 4.6, Leading zero omitted, Abs format (unit mm)*
G04 Created by KiCad (PCBNEW (6.0.7)) date 2022-08-14 15:20:51*
%MOMM*%
%LPD*%
G01*
G04 APERTURE LIST*
%TA.AperFunction,ComponentPad*%
%ADD10C,2.032000*%
%TD*%
%TA.AperFunction,ComponentPad*%
%ADD11C,2.000000*%
%TD*%
%TA.AperFunction,ComponentPad*%
%ADD12R,1.600000X1.600000*%
%TD*%
%TA.AperFunction,ComponentPad*%
%ADD13C,1.600000*%
%TD*%
%TA.AperFunction,Conductor*%
%ADD14C,0.254000*%
%TD*%
G04 APERTURE END LIST*
D10*
X102407600Y-76048400D03*
X97407600Y-73948400D03*
X129007600Y-87398400D03*
X124007600Y-85298400D03*
X146507600Y-140498400D03*
X141507600Y-138398400D03*
X163947600Y-75988400D03*
X158947600Y-73888400D03*
X185507600Y-62358400D03*
X190507600Y-64458400D03*
X219477600Y-64338400D03*
X214477600Y-62238400D03*
X248447600Y-64578400D03*
X243447600Y-62478400D03*
X158337600Y-107028400D03*
X153337600Y-104928400D03*
X184947600Y-95918400D03*
X179947600Y-93818400D03*
X213797600Y-95918400D03*
X208797600Y-93818400D03*
X243007600Y-95918400D03*
X238007600Y-93818400D03*
X73312600Y-75928400D03*
X68312600Y-73828400D03*
D11*
X103587600Y-41478400D03*
X103587600Y-47978400D03*
X108087600Y-41478400D03*
X108087600Y-47978400D03*
X80587600Y-41478400D03*
X80587600Y-47978400D03*
X85087600Y-47978400D03*
X85087600Y-41478400D03*
X113587600Y-41478400D03*
X113587600Y-47978400D03*
X118087600Y-47978400D03*
X118087600Y-41478400D03*
D10*
X53187600Y-99778400D03*
X48187600Y-97678400D03*
D11*
X90587600Y-47978400D03*
X90587600Y-41478400D03*
X95087600Y-41478400D03*
X95087600Y-47978400D03*
X123587600Y-41478400D03*
X123587600Y-47978400D03*
X128087600Y-41478400D03*
X128087600Y-47978400D03*
D12*
X133467600Y-36258400D03*
D13*
X133467600Y-38798400D03*
X133467600Y-41338400D03*
X133467600Y-43878400D03*
X133467600Y-46418400D03*
X133467600Y-48958400D03*
X133467600Y-51498400D03*
X133467600Y-54038400D03*
X133467600Y-56578400D03*
X133467600Y-59118400D03*
X133467600Y-61658400D03*
X133467600Y-64198400D03*
X148707600Y-64198400D03*
X148707600Y-61658400D03*
X148707600Y-59118400D03*
X148707600Y-56578400D03*
X148707600Y-54038400D03*
X148707600Y-51498400D03*
X148707600Y-48958400D03*
X148707600Y-46418400D03*
X148707600Y-43878400D03*
X148707600Y-41338400D03*
X148707600Y-38798400D03*
X148707600Y-36258400D03*
D14*
X133467600Y-56578400D02*
X92237600Y-56578400D01*
X83837600Y-81878400D02*
X79262600Y-81878400D01*
X92237600Y-56578400D02*
X87387600Y-61428400D01*
X79262600Y-81878400D02*
X73312600Y-75928400D01*
X87387600Y-61428400D02*
X87387600Y-78328400D01*
X87387600Y-78328400D02*
X83837600Y-81878400D01*
X107787600Y-81428400D02*
X102407600Y-76048400D01*
X109287600Y-81428400D02*
X107787600Y-81428400D01*
X131597600Y-59118400D02*
X109287600Y-81428400D01*
X133467600Y-59118400D02*
X131597600Y-59118400D01*
X116237600Y-75778400D02*
X116237600Y-90278400D01*
X119087600Y-93128400D02*
X123277600Y-93128400D01*
X116237600Y-90278400D02*
X119087600Y-93128400D01*
X123277600Y-93128400D02*
X129007600Y-87398400D01*
X133467600Y-61658400D02*
X130357600Y-61658400D01*
X130357600Y-61658400D02*
X116237600Y-75778400D01*
X141233590Y-107782410D02*
X129287600Y-119728400D01*
X129287600Y-119728400D02*
X129287600Y-145478400D01*
X133467600Y-64198400D02*
X141233590Y-71964390D01*
X129287600Y-145478400D02*
X132537600Y-148728400D01*
X141233590Y-71964390D02*
X141233590Y-107782410D01*
X138277600Y-148728400D02*
X146507600Y-140498400D01*
X132537600Y-148728400D02*
X138277600Y-148728400D01*
X234887600Y-66528400D02*
X238487600Y-70128400D01*
X242897600Y-70128400D02*
X248447600Y-64578400D01*
X225537600Y-43378400D02*
X234887600Y-52728400D01*
X148707600Y-46418400D02*
X153867600Y-51578400D01*
X168462600Y-51578400D02*
X176662600Y-43378400D01*
X238487600Y-70128400D02*
X242897600Y-70128400D01*
X176662600Y-43378400D02*
X225537600Y-43378400D01*
X234887600Y-52728400D02*
X234887600Y-66528400D01*
X153867600Y-51578400D02*
X168462600Y-51578400D01*
X213437600Y-70828400D02*
X219477600Y-64788400D01*
X148707600Y-51498400D02*
X150387600Y-53178400D01*
X219477600Y-64788400D02*
X219477600Y-64338400D01*
X205987600Y-67828400D02*
X208987600Y-70828400D01*
X169287600Y-53178400D02*
X177487600Y-44978400D01*
X150387600Y-53178400D02*
X169287600Y-53178400D01*
X177487600Y-44978400D02*
X199337600Y-44978400D01*
X208987600Y-70828400D02*
X213437600Y-70828400D01*
X199337600Y-44978400D02*
X205987600Y-51628400D01*
X205987600Y-51628400D02*
X205987600Y-67828400D01*
X177737600Y-66728400D02*
X181037600Y-70028400D01*
X148707600Y-56578400D02*
X172087600Y-56578400D01*
X172087600Y-56578400D02*
X177737600Y-62228400D01*
X184937600Y-70028400D02*
X190507600Y-64458400D01*
X181037600Y-70028400D02*
X184937600Y-70028400D01*
X177737600Y-62228400D02*
X177737600Y-66728400D01*
X156937600Y-81328400D02*
X158607600Y-81328400D01*
X158607600Y-81328400D02*
X163947600Y-75988400D01*
X148707600Y-61658400D02*
X151487600Y-64438400D01*
X151487600Y-75878400D02*
X156937600Y-81328400D01*
X151487600Y-64438400D02*
X151487600Y-75878400D01*
X171737600Y-97928400D02*
X175487600Y-101678400D01*
X176837600Y-77928400D02*
X171737600Y-83028400D01*
X171737600Y-83028400D02*
X171737600Y-97928400D01*
X179187600Y-101678400D02*
X184947600Y-95918400D01*
X148707600Y-59118400D02*
X150347600Y-57478400D01*
X176837600Y-62703400D02*
X176837600Y-77928400D01*
X175487600Y-101678400D02*
X179187600Y-101678400D01*
X150347600Y-57478400D02*
X171612600Y-57478400D01*
X171612600Y-57478400D02*
X176837600Y-62703400D01*
X148707600Y-64198400D02*
X148707600Y-64908400D01*
X142037600Y-107778400D02*
X147287600Y-113028400D01*
X148707600Y-64908400D02*
X142037600Y-71578400D01*
X152337600Y-113028400D02*
X158337600Y-107028400D01*
X147287600Y-113028400D02*
X152337600Y-113028400D01*
X142037600Y-71578400D02*
X142037600Y-107778400D01*
X148767600Y-53978400D02*
X169687600Y-53978400D01*
X148707600Y-54038400D02*
X148767600Y-53978400D01*
X177887600Y-45778400D02*
X197437600Y-45778400D01*
X199337600Y-97678400D02*
X203687600Y-102028400D01*
X203687600Y-102028400D02*
X207687600Y-102028400D01*
X199337600Y-84778400D02*
X199337600Y-97678400D01*
X203787600Y-80328400D02*
X199337600Y-84778400D01*
X197437600Y-45778400D02*
X203787600Y-52128400D01*
X203787600Y-52128400D02*
X203787600Y-80328400D01*
X169687600Y-53978400D02*
X177887600Y-45778400D01*
X207687600Y-102028400D02*
X213797600Y-95918400D01*
X236947600Y-101978400D02*
X243007600Y-95918400D01*
X152127600Y-52378400D02*
X168887600Y-52378400D01*
X229087600Y-98728400D02*
X232337600Y-101978400D01*
X177087600Y-44178400D02*
X223687600Y-44178400D01*
X233087600Y-53578400D02*
X233087600Y-80228400D01*
X168887600Y-52378400D02*
X177087600Y-44178400D01*
X148707600Y-48958400D02*
X152127600Y-52378400D01*
X229087600Y-84228400D02*
X229087600Y-98728400D01*
X232337600Y-101978400D02*
X236947600Y-101978400D01*
X233087600Y-80228400D02*
X229087600Y-84228400D01*
X223687600Y-44178400D02*
X233087600Y-53578400D01*
X69240400Y-95148400D02*
X64610400Y-99778400D01*
X57200800Y-64719200D02*
X57200800Y-76098400D01*
X133207600Y-53778400D02*
X68141600Y-53778400D01*
X68141600Y-53778400D02*
X57200800Y-64719200D01*
X69240400Y-88138000D02*
X69240400Y-95148400D01*
X57200800Y-76098400D02*
X69240400Y-88138000D01*
X64610400Y-99778400D02*
X53187600Y-99778400D01*
X133467600Y-54038400D02*
X133207600Y-53778400D01*
X81587599Y-48978399D02*
X80587600Y-47978400D01*
X131987600Y-52978400D02*
X85587600Y-52978400D01*
X85587600Y-52978400D02*
X81587599Y-48978399D01*
X133467600Y-51498400D02*
X131987600Y-52978400D01*
X130287600Y-52178400D02*
X94787600Y-52178400D01*
X94787600Y-52178400D02*
X91587599Y-48978399D01*
X91587599Y-48978399D02*
X90587600Y-47978400D01*
X133467600Y-48958400D02*
X133467600Y-48998400D01*
X133467600Y-48998400D02*
X130287600Y-52178400D01*
X131487600Y-48228400D02*
X131487600Y-49578400D01*
X133297600Y-46418400D02*
X131487600Y-48228400D01*
X133467600Y-46418400D02*
X133297600Y-46418400D01*
X131487600Y-49578400D02*
X129687600Y-51378400D01*
X106987600Y-51378400D02*
X103587600Y-47978400D01*
X129687600Y-51378400D02*
X106987600Y-51378400D01*
X130537600Y-49078400D02*
X129037600Y-50578400D01*
X130537600Y-41728400D02*
X130537600Y-49078400D01*
X129037600Y-50578400D02*
X116187600Y-50578400D01*
X116187600Y-50578400D02*
X113587600Y-47978400D01*
X133467600Y-38798400D02*
X130537600Y-41728400D01*
X128807600Y-36258400D02*
X123587600Y-41478400D01*
X133467600Y-36258400D02*
X128807600Y-36258400D01*
M02*
