%TF.GenerationSoftware,KiCad,Pcbnew,(6.0.7)*%
%TF.CreationDate,2022-08-14T15:20:51+10:00*%
%TF.ProjectId,Flatbox-rev1_1,466c6174-626f-4782-9d72-6576315f312e,rev?*%
%TF.SameCoordinates,Original*%
%TF.FileFunction,Soldermask,Top*%
%TF.FilePolarity,Negative*%
%FSLAX46Y46*%
G04 Gerber Fmt 4.6, Leading zero omitted, Abs format (unit mm)*
G04 Created by KiCad (PCBNEW (6.0.7)) date 2022-08-14 15:20:51*
%MOMM*%
%LPD*%
G01*
G04 APERTURE LIST*
%ADD10C,3.000000*%
%ADD11C,1.701800*%
%ADD12C,3.429000*%
%ADD13C,2.032000*%
%ADD14C,6.400000*%
%ADD15C,2.000000*%
%ADD16R,1.600000X1.600000*%
%ADD17C,1.600000*%
G04 APERTURE END LIST*
D10*
X102407600Y-64198400D03*
D11*
X96907600Y-70148400D03*
X107907600Y-70148400D03*
D10*
X107407600Y-66398400D03*
D12*
X102407600Y-70148400D03*
D13*
X102407600Y-76048400D03*
X97407600Y-73948400D03*
D11*
X134507600Y-81498400D03*
X123507600Y-81498400D03*
D10*
X129007600Y-75548400D03*
X134007600Y-77748400D03*
D12*
X129007600Y-81498400D03*
D13*
X129007600Y-87398400D03*
X124007600Y-85298400D03*
D10*
X146507600Y-128648400D03*
X151507600Y-130848400D03*
D11*
X152007600Y-134598400D03*
X141007600Y-134598400D03*
D12*
X146507600Y-134598400D03*
D13*
X146507600Y-140498400D03*
X141507600Y-138398400D03*
D11*
X158447600Y-70088400D03*
D12*
X163947600Y-70088400D03*
D10*
X168947600Y-66338400D03*
X163947600Y-64138400D03*
D11*
X169447600Y-70088400D03*
D13*
X163947600Y-75988400D03*
X158947600Y-73888400D03*
X185507600Y-62358400D03*
X190507600Y-64458400D03*
D10*
X195507600Y-54808400D03*
D12*
X190507600Y-58558400D03*
D10*
X190507600Y-52608400D03*
D11*
X196007600Y-58558400D03*
X185007600Y-58558400D03*
D10*
X219477600Y-52488400D03*
X224477600Y-54688400D03*
D11*
X213977600Y-58438400D03*
D12*
X219477600Y-58438400D03*
D11*
X224977600Y-58438400D03*
D13*
X219477600Y-64338400D03*
X214477600Y-62238400D03*
D10*
X253447600Y-54928400D03*
D12*
X248447600Y-58678400D03*
D11*
X253947600Y-58678400D03*
X242947600Y-58678400D03*
D10*
X248447600Y-52728400D03*
D13*
X248447600Y-64578400D03*
X243447600Y-62478400D03*
D12*
X158337600Y-101128400D03*
D10*
X158337600Y-95178400D03*
D11*
X152837600Y-101128400D03*
X163837600Y-101128400D03*
D10*
X163337600Y-97378400D03*
D13*
X158337600Y-107028400D03*
X153337600Y-104928400D03*
D10*
X189947600Y-86268400D03*
X184947600Y-84068400D03*
D11*
X179447600Y-90018400D03*
D12*
X184947600Y-90018400D03*
D11*
X190447600Y-90018400D03*
D13*
X184947600Y-95918400D03*
X179947600Y-93818400D03*
D12*
X213797600Y-90018400D03*
D10*
X218797600Y-86268400D03*
X213797600Y-84068400D03*
D11*
X208297600Y-90018400D03*
X219297600Y-90018400D03*
D13*
X213797600Y-95918400D03*
X208797600Y-93818400D03*
D10*
X243007600Y-84068400D03*
D11*
X248507600Y-90018400D03*
X237507600Y-90018400D03*
D10*
X248007600Y-86268400D03*
D12*
X243007600Y-90018400D03*
D13*
X243007600Y-95918400D03*
X238007600Y-93818400D03*
D14*
X38403134Y-41978400D03*
X38403134Y-147978400D03*
X258087600Y-147978400D03*
X258087600Y-41978400D03*
D11*
X67812600Y-70028400D03*
D10*
X78312600Y-66278400D03*
X73312600Y-64078400D03*
D11*
X78812600Y-70028400D03*
D12*
X73312600Y-70028400D03*
D13*
X73312600Y-75928400D03*
X68312600Y-73828400D03*
D14*
X160087600Y-41978400D03*
D15*
X103587600Y-41478400D03*
X103587600Y-47978400D03*
X108087600Y-41478400D03*
X108087600Y-47978400D03*
X80587600Y-41478400D03*
X80587600Y-47978400D03*
X85087600Y-47978400D03*
X85087600Y-41478400D03*
X113587600Y-41478400D03*
X113587600Y-47978400D03*
X118087600Y-47978400D03*
X118087600Y-41478400D03*
D10*
X53187600Y-87928400D03*
X58187600Y-90128400D03*
D12*
X53187600Y-93878400D03*
D11*
X47687600Y-93878400D03*
X58687600Y-93878400D03*
D13*
X53187600Y-99778400D03*
X48187600Y-97678400D03*
D15*
X90587600Y-47978400D03*
X90587600Y-41478400D03*
X95087600Y-41478400D03*
X95087600Y-47978400D03*
X123587600Y-41478400D03*
X123587600Y-47978400D03*
X128087600Y-41478400D03*
X128087600Y-47978400D03*
D14*
X148587600Y-82978400D03*
X165087600Y-147978400D03*
D16*
X133467600Y-36258400D03*
D17*
X133467600Y-38798400D03*
X133467600Y-41338400D03*
X133467600Y-43878400D03*
X133467600Y-46418400D03*
X133467600Y-48958400D03*
X133467600Y-51498400D03*
X133467600Y-54038400D03*
X133467600Y-56578400D03*
X133467600Y-59118400D03*
X133467600Y-61658400D03*
X133467600Y-64198400D03*
X148707600Y-64198400D03*
X148707600Y-61658400D03*
X148707600Y-59118400D03*
X148707600Y-56578400D03*
X148707600Y-54038400D03*
X148707600Y-51498400D03*
X148707600Y-48958400D03*
X148707600Y-46418400D03*
X148707600Y-43878400D03*
X148707600Y-41338400D03*
X148707600Y-38798400D03*
X148707600Y-36258400D03*
M02*
