%TF.GenerationSoftware,KiCad,Pcbnew,(6.0.7)*%
%TF.CreationDate,2022-08-14T15:20:51+10:00*%
%TF.ProjectId,Flatbox-rev1_1,466c6174-626f-4782-9d72-6576315f312e,rev?*%
%TF.SameCoordinates,Original*%
%TF.FileFunction,Legend,Top*%
%TF.FilePolarity,Positive*%
%FSLAX46Y46*%
G04 Gerber Fmt 4.6, Leading zero omitted, Abs format (unit mm)*
G04 Created by KiCad (PCBNEW (6.0.7)) date 2022-08-14 15:20:51*
%MOMM*%
%LPD*%
G01*
G04 APERTURE LIST*
%ADD10C,0.200000*%
%ADD11C,0.300000*%
%ADD12C,1.000000*%
%ADD13C,0.150000*%
%ADD14C,0.120000*%
%ADD15R,1.600000X1.600000*%
%ADD16C,1.600000*%
%ADD17C,3.000000*%
%ADD18C,1.701800*%
%ADD19C,3.429000*%
%ADD20C,2.032000*%
%ADD21C,6.400000*%
%ADD22C,2.000000*%
G04 APERTURE END LIST*
D10*
X231013521Y-90015821D02*
X231020192Y-89613987D01*
X231040101Y-89214339D01*
X231073091Y-88817152D01*
X231119003Y-88422699D01*
X231177680Y-88031254D01*
X231248965Y-87643091D01*
X231332698Y-87258483D01*
X231428724Y-86877705D01*
X231536884Y-86501030D01*
X231657020Y-86128733D01*
X231788975Y-85761087D01*
X231932590Y-85398366D01*
X232087710Y-85040843D01*
X232254175Y-84688794D01*
X232431827Y-84342491D01*
X232620511Y-84002208D01*
X232820066Y-83668220D01*
X233030337Y-83340800D01*
X233251165Y-83020222D01*
X233482393Y-82706759D01*
X233723862Y-82400687D01*
X233975416Y-82102278D01*
X234236896Y-81811807D01*
X234508144Y-81529547D01*
X234789004Y-81255772D01*
X235079318Y-80990756D01*
X235378927Y-80734773D01*
X235687674Y-80488097D01*
X236005402Y-80251002D01*
X236331952Y-80023761D01*
X236667167Y-79806649D01*
X237010890Y-79599939D01*
X190942252Y-79599939D02*
X191285974Y-79806649D01*
X191621189Y-80023761D01*
X191947739Y-80251002D01*
X192265467Y-80488097D01*
X192574214Y-80734773D01*
X192873823Y-80990756D01*
X193164137Y-81255772D01*
X193444997Y-81529547D01*
X193716245Y-81811807D01*
X193977725Y-82102278D01*
X194229279Y-82400687D01*
X194470748Y-82706759D01*
X194701976Y-83020222D01*
X194922804Y-83340800D01*
X195133075Y-83668220D01*
X195332630Y-84002208D01*
X195521314Y-84342491D01*
X195698966Y-84688794D01*
X195865431Y-85040843D01*
X196020551Y-85398366D01*
X196164166Y-85761087D01*
X196296121Y-86128733D01*
X196416257Y-86501030D01*
X196524417Y-86877705D01*
X196620443Y-87258483D01*
X196704176Y-87643091D01*
X196775461Y-88031254D01*
X196834138Y-88422699D01*
X196880050Y-88817152D01*
X196913040Y-89214339D01*
X196932949Y-89613987D01*
X196939621Y-90015821D01*
X152340077Y-111547708D02*
X151996354Y-111340997D01*
X151661139Y-111123885D01*
X151334589Y-110896644D01*
X151016861Y-110659549D01*
X150708114Y-110412873D01*
X150408505Y-110156890D01*
X150118192Y-109891874D01*
X149837332Y-109618100D01*
X149566083Y-109335840D01*
X149304603Y-109045368D01*
X149053049Y-108746959D01*
X148811580Y-108440887D01*
X148580353Y-108127425D01*
X148359525Y-107806847D01*
X148149254Y-107479427D01*
X147949698Y-107145438D01*
X147761015Y-106805156D01*
X147583362Y-106458853D01*
X147416897Y-106106803D01*
X147261778Y-105749281D01*
X147118162Y-105386559D01*
X146986207Y-105018913D01*
X146866071Y-104646616D01*
X146757911Y-104269941D01*
X146661886Y-103889163D01*
X146578152Y-103504555D01*
X146506868Y-103116392D01*
X146448190Y-102724947D01*
X146402278Y-102330494D01*
X146369288Y-101933307D01*
X146349379Y-101533659D01*
X146342708Y-101131826D01*
X96405314Y-80564812D02*
X96061591Y-80358101D01*
X95726376Y-80140989D01*
X95399826Y-79913748D01*
X95082098Y-79676653D01*
X94773351Y-79429977D01*
X94473742Y-79173994D01*
X94183428Y-78908978D01*
X93902568Y-78635203D01*
X93631320Y-78352943D01*
X93369840Y-78062472D01*
X93118286Y-77764063D01*
X92876817Y-77457991D01*
X92645589Y-77144528D01*
X92424761Y-76823950D01*
X92214490Y-76496530D01*
X92014935Y-76162542D01*
X91826251Y-75822259D01*
X91648599Y-75475956D01*
X91482134Y-75123907D01*
X91327014Y-74766384D01*
X91183399Y-74403663D01*
X91051444Y-74036017D01*
X90931308Y-73663720D01*
X90823148Y-73287045D01*
X90727122Y-72906267D01*
X90643389Y-72521659D01*
X90572104Y-72133496D01*
X90513427Y-71742051D01*
X90467515Y-71347598D01*
X90434525Y-70950411D01*
X90414616Y-70550763D01*
X90407945Y-70148930D01*
X255002997Y-90015821D02*
X254996325Y-90417654D01*
X254976416Y-90817302D01*
X254943426Y-91214489D01*
X254897514Y-91608942D01*
X254838837Y-92000387D01*
X254767552Y-92388550D01*
X254683819Y-92773157D01*
X254587793Y-93153935D01*
X254479633Y-93530610D01*
X254359497Y-93902907D01*
X254227542Y-94270554D01*
X254083927Y-94633275D01*
X253928807Y-94990797D01*
X253762342Y-95342847D01*
X253584690Y-95689150D01*
X253396006Y-96029433D01*
X253196451Y-96363421D01*
X252986180Y-96690841D01*
X252765352Y-97011419D01*
X252534124Y-97324881D01*
X252292655Y-97630954D01*
X252041101Y-97929363D01*
X251779621Y-98219834D01*
X251508373Y-98502094D01*
X251227513Y-98775869D01*
X250937199Y-99040885D01*
X250637590Y-99296867D01*
X250328843Y-99543543D01*
X250011115Y-99780639D01*
X249684565Y-100007880D01*
X249349350Y-100224992D01*
X249005628Y-100431703D01*
X225472798Y-68857539D02*
X225122403Y-69052662D01*
X224767279Y-69235197D01*
X224407739Y-69405143D01*
X224044099Y-69562501D01*
X223676675Y-69707270D01*
X223305782Y-69839450D01*
X222931734Y-69959042D01*
X222554849Y-70066046D01*
X222175440Y-70160460D01*
X221793824Y-70242286D01*
X221410316Y-70311524D01*
X221025231Y-70368172D01*
X220638884Y-70412232D01*
X220251591Y-70443704D01*
X219863667Y-70462587D01*
X219475429Y-70468881D01*
X219087190Y-70462587D01*
X218699266Y-70443704D01*
X218311973Y-70412232D01*
X217925626Y-70368172D01*
X217540541Y-70311524D01*
X217157033Y-70242286D01*
X216775417Y-70160460D01*
X216396008Y-70066046D01*
X216019123Y-69959042D01*
X215645075Y-69839450D01*
X215274182Y-69707270D01*
X214906758Y-69562501D01*
X214543118Y-69405143D01*
X214183578Y-69235197D01*
X213828454Y-69052662D01*
X213478060Y-68857539D01*
X139001345Y-147627812D02*
X138571365Y-147369227D01*
X138152027Y-147097630D01*
X137743529Y-146813364D01*
X137346068Y-146516769D01*
X136959841Y-146208190D01*
X136585045Y-145887968D01*
X136221877Y-145556447D01*
X135870536Y-145213968D01*
X135531217Y-144860875D01*
X135204118Y-144497510D01*
X134889438Y-144124215D01*
X134587372Y-143741334D01*
X134298117Y-143349208D01*
X134021873Y-142948181D01*
X133758835Y-142538595D01*
X133509200Y-142120793D01*
X133273167Y-141695116D01*
X133050932Y-141261908D01*
X132842693Y-140821512D01*
X132648647Y-140374269D01*
X132468991Y-139920523D01*
X132303922Y-139460616D01*
X132153637Y-138994891D01*
X132018335Y-138523690D01*
X131898212Y-138047355D01*
X131793465Y-137566231D01*
X131704292Y-137080658D01*
X131630890Y-136590980D01*
X131573456Y-136097539D01*
X131532188Y-135600677D01*
X131507282Y-135100738D01*
X131498937Y-134598065D01*
X184505523Y-48144036D02*
X184855917Y-47948912D01*
X185211041Y-47766377D01*
X185570581Y-47596431D01*
X185934221Y-47439073D01*
X186301645Y-47294304D01*
X186672538Y-47162124D01*
X187046586Y-47042532D01*
X187423471Y-46935529D01*
X187802880Y-46841114D01*
X188184496Y-46759288D01*
X188568004Y-46690051D01*
X188953089Y-46633402D01*
X189339436Y-46589342D01*
X189726729Y-46557871D01*
X190114653Y-46538988D01*
X190502892Y-46532694D01*
X190891130Y-46538988D01*
X191279054Y-46557871D01*
X191666347Y-46589342D01*
X192052694Y-46633402D01*
X192437779Y-46690051D01*
X192821287Y-46759288D01*
X193202903Y-46841114D01*
X193582312Y-46935529D01*
X193959197Y-47042532D01*
X194333245Y-47162124D01*
X194704138Y-47294304D01*
X195071562Y-47439073D01*
X195435202Y-47596431D01*
X195794742Y-47766377D01*
X196149866Y-47948912D01*
X196500261Y-48144036D01*
X254445329Y-48262284D02*
X254789051Y-48468994D01*
X255124266Y-48686106D01*
X255450816Y-48913347D01*
X255768544Y-49150443D01*
X256077291Y-49397119D01*
X256376900Y-49653101D01*
X256667214Y-49918117D01*
X256948074Y-50191892D01*
X257219322Y-50474152D01*
X257480802Y-50764623D01*
X257732356Y-51063032D01*
X257973825Y-51369105D01*
X258205053Y-51682567D01*
X258425881Y-52003145D01*
X258636152Y-52330565D01*
X258835707Y-52664554D01*
X259024391Y-53004836D01*
X259202043Y-53351139D01*
X259368508Y-53703189D01*
X259523628Y-54060711D01*
X259667243Y-54423432D01*
X259799198Y-54791079D01*
X259919334Y-55163376D01*
X260027494Y-55540051D01*
X260123520Y-55920829D01*
X260207253Y-56305436D01*
X260278538Y-56693599D01*
X260337215Y-57085044D01*
X260383127Y-57479497D01*
X260416117Y-57876684D01*
X260436026Y-58276332D01*
X260442698Y-58678166D01*
X139001345Y-121568318D02*
X139439670Y-121324228D01*
X139883913Y-121095886D01*
X140333679Y-120883291D01*
X140788574Y-120686445D01*
X141248204Y-120505346D01*
X141712173Y-120339995D01*
X142180087Y-120190391D01*
X142651552Y-120056536D01*
X143126173Y-119938428D01*
X143603555Y-119836068D01*
X144083305Y-119749455D01*
X144565028Y-119678590D01*
X145048328Y-119623473D01*
X145532812Y-119584104D01*
X146018085Y-119560482D01*
X146503753Y-119552609D01*
X146989420Y-119560482D01*
X147474693Y-119584104D01*
X147959177Y-119623473D01*
X148442477Y-119678590D01*
X148924200Y-119749455D01*
X149403950Y-119836068D01*
X149881332Y-119938428D01*
X150355953Y-120056536D01*
X150827418Y-120190391D01*
X151295332Y-120339995D01*
X151759301Y-120505346D01*
X152218931Y-120686445D01*
X152673826Y-120883291D01*
X153123592Y-121095886D01*
X153567835Y-121324228D01*
X154006161Y-121568318D01*
X248447960Y-70705390D02*
X247830712Y-70689740D01*
X247221567Y-70643294D01*
X246621279Y-70566809D01*
X246030602Y-70461039D01*
X245450288Y-70326741D01*
X244881092Y-70164669D01*
X244323767Y-69975581D01*
X243779067Y-69760231D01*
X243247745Y-69519375D01*
X242730556Y-69253768D01*
X242228252Y-68964168D01*
X241741588Y-68651328D01*
X241271317Y-68316006D01*
X240818193Y-67958956D01*
X240382969Y-67580935D01*
X239966400Y-67182697D01*
X239569238Y-66764999D01*
X239192237Y-66328597D01*
X238836152Y-65874245D01*
X238501735Y-65402701D01*
X238189741Y-64914718D01*
X237900922Y-64411054D01*
X237636033Y-63892464D01*
X237395828Y-63359704D01*
X237181060Y-62813528D01*
X236992482Y-62254694D01*
X236830848Y-61683956D01*
X236696912Y-61102071D01*
X236591428Y-60509793D01*
X236515149Y-59907879D01*
X236468829Y-59297085D01*
X236453222Y-58678166D01*
X79309246Y-80446562D02*
X78958852Y-80641685D01*
X78603727Y-80824220D01*
X78244187Y-80994166D01*
X77880547Y-81151524D01*
X77513123Y-81296293D01*
X77142230Y-81428473D01*
X76768183Y-81548065D01*
X76391297Y-81655069D01*
X76011889Y-81749483D01*
X75630273Y-81831309D01*
X75246764Y-81900547D01*
X74861679Y-81957195D01*
X74475332Y-82001255D01*
X74088040Y-82032727D01*
X73700116Y-82051610D01*
X73311877Y-82057904D01*
X72923638Y-82051610D01*
X72535714Y-82032727D01*
X72148422Y-82001255D01*
X71762075Y-81957195D01*
X71376990Y-81900547D01*
X70993481Y-81831309D01*
X70611865Y-81749483D01*
X70232457Y-81655069D01*
X69855571Y-81548065D01*
X69481524Y-81428473D01*
X69110631Y-81296293D01*
X68743207Y-81151524D01*
X68379567Y-80994166D01*
X68020027Y-80824220D01*
X67664902Y-80641685D01*
X67314509Y-80446562D01*
X157953284Y-80509268D02*
X157609561Y-80302557D01*
X157274346Y-80085445D01*
X156947796Y-79858204D01*
X156630068Y-79621109D01*
X156321321Y-79374433D01*
X156021712Y-79118450D01*
X155731398Y-78853434D01*
X155450538Y-78579659D01*
X155179290Y-78297399D01*
X154917810Y-78006928D01*
X154666256Y-77708519D01*
X154424787Y-77402447D01*
X154193559Y-77088984D01*
X153972731Y-76768406D01*
X153762460Y-76440986D01*
X153562905Y-76106998D01*
X153374221Y-75766715D01*
X153196569Y-75420412D01*
X153030104Y-75068363D01*
X152874984Y-74710840D01*
X152731369Y-74348119D01*
X152599414Y-73980473D01*
X152479278Y-73608176D01*
X152371118Y-73231501D01*
X152275092Y-72850723D01*
X152191359Y-72466115D01*
X152120074Y-72077952D01*
X152061397Y-71686507D01*
X152015485Y-71292054D01*
X151982495Y-70894867D01*
X151962586Y-70495219D01*
X151955915Y-70093386D01*
X169948022Y-80509268D02*
X169597627Y-80704391D01*
X169242503Y-80886926D01*
X168882963Y-81056872D01*
X168519323Y-81214230D01*
X168151899Y-81358999D01*
X167781006Y-81491179D01*
X167406958Y-81610771D01*
X167030073Y-81717775D01*
X166650664Y-81812189D01*
X166269048Y-81894015D01*
X165885540Y-81963253D01*
X165500455Y-82019901D01*
X165114108Y-82063961D01*
X164726815Y-82095433D01*
X164338891Y-82114316D01*
X163950653Y-82120610D01*
X163562414Y-82114316D01*
X163174490Y-82095433D01*
X162787197Y-82063961D01*
X162400850Y-82019901D01*
X162015765Y-81963253D01*
X161632257Y-81894015D01*
X161250641Y-81812189D01*
X160871232Y-81717775D01*
X160494347Y-81610771D01*
X160120299Y-81491179D01*
X159749406Y-81358999D01*
X159381982Y-81214230D01*
X159018342Y-81056872D01*
X158658802Y-80886926D01*
X158303678Y-80704391D01*
X157953284Y-80509268D01*
X225793899Y-90015821D02*
X225787227Y-90417654D01*
X225767318Y-90817302D01*
X225734328Y-91214489D01*
X225688416Y-91608942D01*
X225629739Y-92000387D01*
X225558454Y-92388550D01*
X225474721Y-92773157D01*
X225378695Y-93153935D01*
X225270535Y-93530610D01*
X225150399Y-93902907D01*
X225018444Y-94270554D01*
X224874829Y-94633275D01*
X224719709Y-94990797D01*
X224553244Y-95342847D01*
X224375592Y-95689150D01*
X224186908Y-96029433D01*
X223987353Y-96363421D01*
X223777082Y-96690841D01*
X223556254Y-97011419D01*
X223325026Y-97324881D01*
X223083557Y-97630954D01*
X222832003Y-97929363D01*
X222570523Y-98219834D01*
X222299275Y-98502094D01*
X222018415Y-98775869D01*
X221728101Y-99040885D01*
X221428492Y-99296867D01*
X221119745Y-99543543D01*
X220802017Y-99780639D01*
X220475467Y-100007880D01*
X220140252Y-100224992D01*
X219796530Y-100431703D01*
X90407945Y-70148930D02*
X90414616Y-69747096D01*
X90434525Y-69347448D01*
X90467515Y-68950261D01*
X90513427Y-68555808D01*
X90572104Y-68164363D01*
X90643389Y-67776200D01*
X90727122Y-67391593D01*
X90823148Y-67010815D01*
X90931308Y-66634140D01*
X91051444Y-66261843D01*
X91183399Y-65894196D01*
X91327014Y-65531475D01*
X91482134Y-65173953D01*
X91648599Y-64821903D01*
X91826251Y-64475600D01*
X92014935Y-64135318D01*
X92214490Y-63801329D01*
X92424761Y-63473909D01*
X92645589Y-63153331D01*
X92876817Y-62839869D01*
X93118286Y-62533796D01*
X93369840Y-62235387D01*
X93631320Y-61944916D01*
X93902568Y-61662656D01*
X94183428Y-61388881D01*
X94473742Y-61123865D01*
X94773351Y-60867883D01*
X95082098Y-60621207D01*
X95399826Y-60384111D01*
X95726376Y-60156870D01*
X96061591Y-59939758D01*
X96405314Y-59733048D01*
X207801792Y-100431703D02*
X207458069Y-100224992D01*
X207122854Y-100007880D01*
X206796304Y-99780639D01*
X206478576Y-99543543D01*
X206169829Y-99296867D01*
X205870220Y-99040885D01*
X205579907Y-98775869D01*
X205299047Y-98502094D01*
X205027798Y-98219834D01*
X204766318Y-97929363D01*
X204514764Y-97630954D01*
X204273295Y-97324881D01*
X204042068Y-97011419D01*
X203821240Y-96690841D01*
X203610969Y-96363421D01*
X203411413Y-96029433D01*
X203222730Y-95689150D01*
X203045077Y-95342847D01*
X202878612Y-94990797D01*
X202723493Y-94633275D01*
X202579877Y-94270554D01*
X202447922Y-93902907D01*
X202327786Y-93530610D01*
X202219626Y-93153935D01*
X202123601Y-92773157D01*
X202039867Y-92388550D01*
X201968583Y-92000387D01*
X201909905Y-91608942D01*
X201863993Y-91214489D01*
X201831003Y-90817302D01*
X201811094Y-90417654D01*
X201804423Y-90015821D01*
X67314509Y-59614798D02*
X67664902Y-59419674D01*
X68020027Y-59237139D01*
X68379567Y-59067193D01*
X68743207Y-58909835D01*
X69110631Y-58765066D01*
X69481524Y-58632886D01*
X69855571Y-58513294D01*
X70232457Y-58406290D01*
X70611865Y-58311876D01*
X70993481Y-58230050D01*
X71376990Y-58160812D01*
X71762075Y-58104164D01*
X72148422Y-58060104D01*
X72535714Y-58028632D01*
X72923638Y-58009749D01*
X73311877Y-58003455D01*
X73700116Y-58009749D01*
X74088040Y-58028632D01*
X74475332Y-58060104D01*
X74861679Y-58104164D01*
X75246764Y-58160812D01*
X75630273Y-58230050D01*
X76011889Y-58311876D01*
X76391297Y-58406290D01*
X76768183Y-58513294D01*
X77142230Y-58632886D01*
X77513123Y-58765066D01*
X77880547Y-58909835D01*
X78244187Y-59067193D01*
X78603727Y-59237139D01*
X78958852Y-59419674D01*
X79309246Y-59614798D01*
X170332184Y-101131826D02*
X170325512Y-101533659D01*
X170305603Y-101933307D01*
X170272613Y-102330494D01*
X170226701Y-102724947D01*
X170168024Y-103116392D01*
X170096739Y-103504555D01*
X170013006Y-103889163D01*
X169916980Y-104269941D01*
X169808820Y-104646616D01*
X169688684Y-105018913D01*
X169556729Y-105386559D01*
X169413114Y-105749281D01*
X169257994Y-106106803D01*
X169091529Y-106458853D01*
X168913877Y-106805156D01*
X168725193Y-107145438D01*
X168525638Y-107479427D01*
X168315367Y-107806847D01*
X168094539Y-108127425D01*
X167863311Y-108440887D01*
X167621842Y-108746959D01*
X167370288Y-109045368D01*
X167108808Y-109335840D01*
X166837560Y-109618100D01*
X166556700Y-109891874D01*
X166266386Y-110156890D01*
X165966777Y-110412873D01*
X165658030Y-110659549D01*
X165340302Y-110896644D01*
X165013752Y-111123885D01*
X164678537Y-111340997D01*
X164334815Y-111547708D01*
X213478060Y-48025776D02*
X213828454Y-47830652D01*
X214183578Y-47648117D01*
X214543118Y-47478171D01*
X214906758Y-47320813D01*
X215274182Y-47176044D01*
X215645075Y-47043864D01*
X216019123Y-46924272D01*
X216396008Y-46817268D01*
X216775417Y-46722854D01*
X217157033Y-46641028D01*
X217540541Y-46571790D01*
X217925626Y-46515142D01*
X218311973Y-46471082D01*
X218699266Y-46439610D01*
X219087190Y-46420727D01*
X219475429Y-46414433D01*
X219863667Y-46420727D01*
X220251591Y-46439610D01*
X220638884Y-46471082D01*
X221025231Y-46515142D01*
X221410316Y-46571790D01*
X221793824Y-46641028D01*
X222175440Y-46722854D01*
X222554849Y-46817268D01*
X222931734Y-46924272D01*
X223305782Y-47043864D01*
X223676675Y-47176044D01*
X224044099Y-47320813D01*
X224407739Y-47478171D01*
X224767279Y-47648117D01*
X225122403Y-47830652D01*
X225472798Y-48025776D01*
X196500261Y-68975800D02*
X196149866Y-69170923D01*
X195794742Y-69353458D01*
X195435202Y-69523404D01*
X195071562Y-69680762D01*
X194704138Y-69825531D01*
X194333245Y-69957711D01*
X193959197Y-70077303D01*
X193582312Y-70184307D01*
X193202903Y-70278721D01*
X192821287Y-70360547D01*
X192437779Y-70429785D01*
X192052694Y-70486433D01*
X191666347Y-70530493D01*
X191279054Y-70561965D01*
X190891130Y-70580848D01*
X190502892Y-70587142D01*
X190114653Y-70580848D01*
X189726729Y-70561965D01*
X189339436Y-70530493D01*
X188953089Y-70486433D01*
X188568004Y-70429785D01*
X188184496Y-70360547D01*
X187802880Y-70278721D01*
X187423471Y-70184307D01*
X187046586Y-70077303D01*
X186672538Y-69957711D01*
X186301645Y-69825531D01*
X185934221Y-69680762D01*
X185570581Y-69523404D01*
X185211041Y-69353458D01*
X184855917Y-69170923D01*
X184505523Y-68975800D01*
X202497630Y-58559918D02*
X202497630Y-58559918D01*
X108400052Y-80564812D02*
X108049657Y-80759935D01*
X107694533Y-80942470D01*
X107334993Y-81112416D01*
X106971353Y-81269774D01*
X106603929Y-81414543D01*
X106233036Y-81546723D01*
X105858988Y-81666315D01*
X105482103Y-81773319D01*
X105102694Y-81867733D01*
X104721078Y-81949559D01*
X104337570Y-82018797D01*
X103952485Y-82075445D01*
X103566138Y-82119505D01*
X103178845Y-82150977D01*
X102790921Y-82169860D01*
X102402683Y-82176154D01*
X102014444Y-82169860D01*
X101626520Y-82150977D01*
X101239227Y-82119505D01*
X100852880Y-82075445D01*
X100467795Y-82018797D01*
X100084287Y-81949559D01*
X99702671Y-81867733D01*
X99323262Y-81773319D01*
X98946377Y-81666315D01*
X98572329Y-81546723D01*
X98201436Y-81414543D01*
X97834012Y-81269774D01*
X97470372Y-81112416D01*
X97110832Y-80942470D01*
X96755708Y-80759935D01*
X96405314Y-80564812D01*
X225472798Y-48025776D02*
X225816520Y-48232486D01*
X226151735Y-48449598D01*
X226478285Y-48676839D01*
X226796013Y-48913934D01*
X227104760Y-49160610D01*
X227404369Y-49416593D01*
X227694683Y-49681609D01*
X227975543Y-49955383D01*
X228246791Y-50237643D01*
X228508271Y-50528115D01*
X228759825Y-50826524D01*
X229001294Y-51132596D01*
X229232522Y-51446058D01*
X229453350Y-51766636D01*
X229663621Y-52094056D01*
X229863176Y-52428045D01*
X230051860Y-52768327D01*
X230229512Y-53114630D01*
X230395977Y-53466680D01*
X230551097Y-53824202D01*
X230694712Y-54186924D01*
X230826667Y-54554570D01*
X230946803Y-54926867D01*
X231054963Y-55303542D01*
X231150989Y-55684320D01*
X231234722Y-56068928D01*
X231306007Y-56457091D01*
X231364684Y-56848536D01*
X231410596Y-57242989D01*
X231443586Y-57640176D01*
X231463495Y-58039824D01*
X231470167Y-58441658D01*
X154006161Y-147627812D02*
X153567835Y-147871901D01*
X153123592Y-148100243D01*
X152673826Y-148312838D01*
X152218931Y-148509684D01*
X151759301Y-148690783D01*
X151295332Y-148856134D01*
X150827418Y-149005738D01*
X150355953Y-149139593D01*
X149881332Y-149257701D01*
X149403950Y-149360061D01*
X148924200Y-149446674D01*
X148442477Y-149517539D01*
X147959177Y-149572656D01*
X147474693Y-149612025D01*
X146989420Y-149635647D01*
X146503753Y-149643521D01*
X146018085Y-149635647D01*
X145532812Y-149612025D01*
X145048328Y-149572656D01*
X144565028Y-149517539D01*
X144083305Y-149446674D01*
X143603555Y-149360061D01*
X143126173Y-149257701D01*
X142651552Y-149139593D01*
X142180087Y-149005738D01*
X141712173Y-148856134D01*
X141248204Y-148690783D01*
X140788574Y-148509684D01*
X140333679Y-148312838D01*
X139883913Y-148100243D01*
X139439670Y-147871901D01*
X139001345Y-147627812D01*
X164334815Y-90715946D02*
X164678537Y-90922656D01*
X165013752Y-91139768D01*
X165340302Y-91367009D01*
X165658030Y-91604104D01*
X165966777Y-91850780D01*
X166266386Y-92106762D01*
X166556700Y-92371778D01*
X166837560Y-92645553D01*
X167108808Y-92927813D01*
X167370288Y-93218284D01*
X167621842Y-93516693D01*
X167863311Y-93822765D01*
X168094539Y-94136227D01*
X168315367Y-94456805D01*
X168525638Y-94784225D01*
X168725193Y-95118214D01*
X168913877Y-95458496D01*
X169091529Y-95804799D01*
X169257994Y-96156849D01*
X169413114Y-96514371D01*
X169556729Y-96877092D01*
X169688684Y-97244739D01*
X169808820Y-97617036D01*
X169916980Y-97993711D01*
X170013006Y-98374489D01*
X170096739Y-98759096D01*
X170168024Y-99147259D01*
X170226701Y-99538704D01*
X170272613Y-99933157D01*
X170305603Y-100330344D01*
X170325512Y-100729992D01*
X170332184Y-101131826D01*
X201804423Y-90015821D02*
X201811094Y-89613987D01*
X201831003Y-89214339D01*
X201863993Y-88817152D01*
X201909905Y-88422699D01*
X201968583Y-88031254D01*
X202039867Y-87643091D01*
X202123601Y-87258483D01*
X202219626Y-86877705D01*
X202327786Y-86501030D01*
X202447922Y-86128733D01*
X202579877Y-85761087D01*
X202723493Y-85398366D01*
X202878612Y-85040843D01*
X203045077Y-84688794D01*
X203222730Y-84342491D01*
X203411413Y-84002208D01*
X203610969Y-83668220D01*
X203821240Y-83340800D01*
X204042068Y-83020222D01*
X204273295Y-82706759D01*
X204514764Y-82400687D01*
X204766318Y-82102278D01*
X205027798Y-81811807D01*
X205299047Y-81529547D01*
X205579907Y-81255772D01*
X205870220Y-80990756D01*
X206169829Y-80734773D01*
X206478576Y-80488097D01*
X206796304Y-80251002D01*
X207122854Y-80023761D01*
X207458069Y-79806649D01*
X207801792Y-79599939D01*
X67314509Y-80446562D02*
X66970786Y-80239851D01*
X66635571Y-80022739D01*
X66309021Y-79795498D01*
X65991293Y-79558402D01*
X65682546Y-79311726D01*
X65382937Y-79055744D01*
X65092623Y-78790728D01*
X64811763Y-78516953D01*
X64540515Y-78234693D01*
X64279035Y-77944222D01*
X64027481Y-77645813D01*
X63786012Y-77339740D01*
X63554784Y-77026278D01*
X63333956Y-76705700D01*
X63123685Y-76378280D01*
X62924130Y-76044292D01*
X62735446Y-75704009D01*
X62557794Y-75357706D01*
X62391329Y-75005656D01*
X62236209Y-74648134D01*
X62092594Y-74285413D01*
X61960639Y-73917766D01*
X61840503Y-73545469D01*
X61732343Y-73168794D01*
X61636317Y-72788016D01*
X61552584Y-72403409D01*
X61481299Y-72015246D01*
X61422622Y-71623801D01*
X61376710Y-71229348D01*
X61343720Y-70832161D01*
X61323811Y-70432513D01*
X61317140Y-70030680D01*
X172950145Y-90015821D02*
X172956816Y-89613987D01*
X172976725Y-89214339D01*
X173009715Y-88817152D01*
X173055627Y-88422699D01*
X173114304Y-88031254D01*
X173185589Y-87643091D01*
X173269322Y-87258483D01*
X173365348Y-86877705D01*
X173473508Y-86501030D01*
X173593644Y-86128733D01*
X173725599Y-85761087D01*
X173869214Y-85398366D01*
X174024334Y-85040843D01*
X174190799Y-84688794D01*
X174368451Y-84342491D01*
X174557135Y-84002208D01*
X174756690Y-83668220D01*
X174966961Y-83340800D01*
X175187789Y-83020222D01*
X175419017Y-82706759D01*
X175660486Y-82400687D01*
X175912040Y-82102278D01*
X176173520Y-81811807D01*
X176444768Y-81529547D01*
X176725628Y-81255772D01*
X177015942Y-80990756D01*
X177315551Y-80734773D01*
X177624298Y-80488097D01*
X177942026Y-80251002D01*
X178268576Y-80023761D01*
X178603791Y-79806649D01*
X178947514Y-79599939D01*
X161508569Y-134598065D02*
X161500223Y-135100738D01*
X161475317Y-135600677D01*
X161434049Y-136097539D01*
X161376615Y-136590980D01*
X161303213Y-137080658D01*
X161214040Y-137566231D01*
X161109293Y-138047355D01*
X160989170Y-138523690D01*
X160853867Y-138994891D01*
X160703583Y-139460616D01*
X160538514Y-139920523D01*
X160358858Y-140374269D01*
X160164812Y-140821512D01*
X159956572Y-141261908D01*
X159734337Y-141695116D01*
X159498304Y-142120793D01*
X159248670Y-142538595D01*
X158985632Y-142948181D01*
X158709387Y-143349208D01*
X158420133Y-143741334D01*
X158118067Y-144124215D01*
X157803386Y-144497510D01*
X157476288Y-144860875D01*
X157136969Y-145213968D01*
X156785627Y-145556447D01*
X156422460Y-145887968D01*
X156047664Y-146208190D01*
X155661437Y-146516769D01*
X155263975Y-146813364D01*
X154855477Y-147097630D01*
X154436140Y-147369227D01*
X154006161Y-147627812D01*
X123012766Y-91917324D02*
X122669043Y-91710613D01*
X122333828Y-91493501D01*
X122007278Y-91266260D01*
X121689550Y-91029164D01*
X121380803Y-90782488D01*
X121081194Y-90526506D01*
X120790881Y-90261490D01*
X120510021Y-89987715D01*
X120238772Y-89705455D01*
X119977292Y-89414984D01*
X119725739Y-89116575D01*
X119484269Y-88810502D01*
X119253042Y-88497040D01*
X119032214Y-88176462D01*
X118821943Y-87849042D01*
X118622388Y-87515054D01*
X118433704Y-87174771D01*
X118256051Y-86828468D01*
X118089587Y-86476418D01*
X117934467Y-86118896D01*
X117790852Y-85756175D01*
X117658897Y-85388528D01*
X117538761Y-85016231D01*
X117430601Y-84639556D01*
X117334575Y-84258778D01*
X117250842Y-83874171D01*
X117179557Y-83486008D01*
X117120880Y-83094563D01*
X117074968Y-82700110D01*
X117041978Y-82302923D01*
X117022069Y-81903275D01*
X117015398Y-81501442D01*
X225793899Y-90015821D02*
X225793899Y-90015821D01*
X117015398Y-81501442D02*
X117022069Y-81099608D01*
X117041978Y-80699960D01*
X117074968Y-80302773D01*
X117120880Y-79908320D01*
X117179557Y-79516875D01*
X117250842Y-79128712D01*
X117334575Y-78744104D01*
X117430601Y-78363326D01*
X117538761Y-77986651D01*
X117658897Y-77614354D01*
X117790852Y-77246708D01*
X117934467Y-76883987D01*
X118089587Y-76526464D01*
X118256051Y-76174415D01*
X118433704Y-75828112D01*
X118622388Y-75487829D01*
X118821943Y-75153841D01*
X119032214Y-74826421D01*
X119253042Y-74505843D01*
X119484269Y-74192380D01*
X119725739Y-73886308D01*
X119977292Y-73587899D01*
X120238772Y-73297428D01*
X120510021Y-73015168D01*
X120790881Y-72741393D01*
X121081194Y-72476377D01*
X121380803Y-72220394D01*
X121689550Y-71973718D01*
X122007278Y-71736623D01*
X122333828Y-71509382D01*
X122669043Y-71292270D01*
X123012766Y-71085560D01*
X231470167Y-58441658D02*
X231470167Y-58441658D01*
X96405314Y-59733048D02*
X96755708Y-59537924D01*
X97110832Y-59355389D01*
X97470372Y-59185443D01*
X97834012Y-59028085D01*
X98201436Y-58883316D01*
X98572329Y-58751136D01*
X98946377Y-58631544D01*
X99323262Y-58524541D01*
X99702671Y-58430126D01*
X100084287Y-58348300D01*
X100467795Y-58279063D01*
X100852880Y-58222414D01*
X101239227Y-58178354D01*
X101626520Y-58146883D01*
X102014444Y-58128000D01*
X102402683Y-58121706D01*
X102790921Y-58128000D01*
X103178845Y-58146883D01*
X103566138Y-58178354D01*
X103952485Y-58222414D01*
X104337570Y-58279063D01*
X104721078Y-58348300D01*
X105102694Y-58430126D01*
X105482103Y-58524541D01*
X105858988Y-58631544D01*
X106233036Y-58751136D01*
X106603929Y-58883316D01*
X106971353Y-59028085D01*
X107334993Y-59185443D01*
X107694533Y-59355389D01*
X108049657Y-59537924D01*
X108400052Y-59733048D01*
X65187600Y-93878400D02*
G75*
G03*
X65187600Y-93878400I-12000000J0D01*
G01*
X249005628Y-100431703D02*
X248655233Y-100626826D01*
X248300109Y-100809361D01*
X247940569Y-100979307D01*
X247576929Y-101136665D01*
X247209505Y-101281434D01*
X246838612Y-101413614D01*
X246464564Y-101533206D01*
X246087679Y-101640209D01*
X245708270Y-101734624D01*
X245326654Y-101816450D01*
X244943146Y-101885687D01*
X244558061Y-101942336D01*
X244171714Y-101986396D01*
X243784421Y-102017867D01*
X243396497Y-102036750D01*
X243008259Y-102043045D01*
X242620020Y-102036750D01*
X242232096Y-102017867D01*
X241844803Y-101986396D01*
X241458456Y-101942336D01*
X241073371Y-101885687D01*
X240689863Y-101816450D01*
X240308247Y-101734624D01*
X239928838Y-101640209D01*
X239551953Y-101533206D01*
X239177905Y-101413614D01*
X238807012Y-101281434D01*
X238439588Y-101136665D01*
X238075948Y-100979307D01*
X237716408Y-100809361D01*
X237361284Y-100626826D01*
X237010890Y-100431703D01*
X196939621Y-90015821D02*
X196932949Y-90417654D01*
X196913040Y-90817302D01*
X196880050Y-91214489D01*
X196834138Y-91608942D01*
X196775461Y-92000387D01*
X196704176Y-92388550D01*
X196620443Y-92773157D01*
X196524417Y-93153935D01*
X196416257Y-93530610D01*
X196296121Y-93902907D01*
X196164166Y-94270554D01*
X196020551Y-94633275D01*
X195865431Y-94990797D01*
X195698966Y-95342847D01*
X195521314Y-95689150D01*
X195332630Y-96029433D01*
X195133075Y-96363421D01*
X194922804Y-96690841D01*
X194701976Y-97011419D01*
X194470748Y-97324881D01*
X194229279Y-97630954D01*
X193977725Y-97929363D01*
X193716245Y-98219834D01*
X193444997Y-98502094D01*
X193164137Y-98775869D01*
X192873823Y-99040885D01*
X192574214Y-99296867D01*
X192265467Y-99543543D01*
X191947739Y-99780639D01*
X191621189Y-100007880D01*
X191285974Y-100224992D01*
X190942252Y-100431703D01*
X152340077Y-90715946D02*
X152690471Y-90520822D01*
X153045595Y-90338287D01*
X153405135Y-90168340D01*
X153768775Y-90010983D01*
X154136199Y-89866214D01*
X154507092Y-89734033D01*
X154881140Y-89614441D01*
X155258025Y-89507438D01*
X155637434Y-89413023D01*
X156019050Y-89331197D01*
X156402558Y-89261960D01*
X156787643Y-89205311D01*
X157173990Y-89161251D01*
X157561283Y-89129779D01*
X157949207Y-89110896D01*
X158337446Y-89104602D01*
X158725684Y-89110896D01*
X159113608Y-89129779D01*
X159500901Y-89161251D01*
X159887248Y-89205311D01*
X160272333Y-89261960D01*
X160655841Y-89331197D01*
X161037457Y-89413023D01*
X161416866Y-89507438D01*
X161793751Y-89614441D01*
X162167799Y-89734033D01*
X162538692Y-89866214D01*
X162906116Y-90010983D01*
X163269756Y-90168340D01*
X163629296Y-90338287D01*
X163984420Y-90520822D01*
X164334815Y-90715946D01*
X135007504Y-71085560D02*
X135351226Y-71292270D01*
X135686441Y-71509382D01*
X136012991Y-71736623D01*
X136330719Y-71973718D01*
X136639466Y-72220394D01*
X136939075Y-72476377D01*
X137229389Y-72741393D01*
X137510249Y-73015168D01*
X137781497Y-73297428D01*
X138042977Y-73587899D01*
X138294531Y-73886308D01*
X138536000Y-74192380D01*
X138767228Y-74505843D01*
X138988056Y-74826421D01*
X139198327Y-75153841D01*
X139397882Y-75487829D01*
X139586566Y-75828112D01*
X139764218Y-76174415D01*
X139930683Y-76526464D01*
X140085803Y-76883987D01*
X140229418Y-77246708D01*
X140361373Y-77614354D01*
X140481509Y-77986651D01*
X140589669Y-78363326D01*
X140685695Y-78744104D01*
X140769428Y-79128712D01*
X140840713Y-79516875D01*
X140899390Y-79908320D01*
X140945302Y-80302773D01*
X140978292Y-80699960D01*
X140998201Y-81099608D01*
X141004873Y-81501442D01*
X175945391Y-70093386D02*
X175945391Y-70093386D01*
X242450591Y-48262284D02*
X242800985Y-48067160D01*
X243156109Y-47884625D01*
X243515649Y-47714679D01*
X243879289Y-47557321D01*
X244246713Y-47412552D01*
X244617606Y-47280372D01*
X244991654Y-47160780D01*
X245368539Y-47053776D01*
X245747948Y-46959362D01*
X246129564Y-46877536D01*
X246513072Y-46808298D01*
X246898157Y-46751650D01*
X247284504Y-46707590D01*
X247671797Y-46676118D01*
X248059721Y-46657235D01*
X248447960Y-46650941D01*
X248836198Y-46657235D01*
X249224122Y-46676118D01*
X249611415Y-46707590D01*
X249997762Y-46751650D01*
X250382847Y-46808298D01*
X250766355Y-46877536D01*
X251147971Y-46959362D01*
X251527380Y-47053776D01*
X251904265Y-47160780D01*
X252278313Y-47280372D01*
X252649206Y-47412552D01*
X253016630Y-47557321D01*
X253380270Y-47714679D01*
X253739810Y-47884625D01*
X254094934Y-48067160D01*
X254445329Y-48262284D01*
X207480691Y-58441658D02*
X207487362Y-58039824D01*
X207507271Y-57640176D01*
X207540261Y-57242989D01*
X207586173Y-56848536D01*
X207644850Y-56457091D01*
X207716135Y-56068928D01*
X207799868Y-55684320D01*
X207895894Y-55303542D01*
X208004054Y-54926867D01*
X208124190Y-54554570D01*
X208256145Y-54186924D01*
X208399760Y-53824202D01*
X208554880Y-53466680D01*
X208721345Y-53114630D01*
X208898997Y-52768327D01*
X209087681Y-52428045D01*
X209287236Y-52094056D01*
X209497507Y-51766636D01*
X209718335Y-51446058D01*
X209949563Y-51132596D01*
X210191032Y-50826524D01*
X210442586Y-50528115D01*
X210704066Y-50237643D01*
X210975314Y-49955383D01*
X211256174Y-49681609D01*
X211546488Y-49416593D01*
X211846097Y-49160610D01*
X212154844Y-48913934D01*
X212472572Y-48676839D01*
X212799122Y-48449598D01*
X213134337Y-48232486D01*
X213478060Y-48025776D01*
X237010890Y-100431703D02*
X236667167Y-100224992D01*
X236331952Y-100007880D01*
X236005402Y-99780639D01*
X235687674Y-99543543D01*
X235378927Y-99296867D01*
X235079318Y-99040885D01*
X234789004Y-98775869D01*
X234508144Y-98502094D01*
X234236896Y-98219834D01*
X233975416Y-97929363D01*
X233723862Y-97630954D01*
X233482393Y-97324881D01*
X233251165Y-97011419D01*
X233030337Y-96690841D01*
X232820066Y-96363421D01*
X232620511Y-96029433D01*
X232431827Y-95689150D01*
X232254175Y-95342847D01*
X232087710Y-94990797D01*
X231932590Y-94633275D01*
X231788975Y-94270554D01*
X231657020Y-93902907D01*
X231536884Y-93530610D01*
X231428724Y-93153935D01*
X231332698Y-92773157D01*
X231248965Y-92388550D01*
X231177680Y-92000387D01*
X231119003Y-91608942D01*
X231073091Y-91214489D01*
X231040101Y-90817302D01*
X231020192Y-90417654D01*
X231013521Y-90015821D01*
X202497630Y-58559918D02*
X202490958Y-58961751D01*
X202471049Y-59361399D01*
X202438059Y-59758586D01*
X202392147Y-60153039D01*
X202333470Y-60544484D01*
X202262185Y-60932647D01*
X202178452Y-61317255D01*
X202082426Y-61698033D01*
X201974266Y-62074708D01*
X201854130Y-62447005D01*
X201722175Y-62814651D01*
X201578560Y-63177372D01*
X201423440Y-63534895D01*
X201256975Y-63886944D01*
X201079323Y-64233247D01*
X200890639Y-64573530D01*
X200691084Y-64907518D01*
X200480813Y-65234938D01*
X200259985Y-65555516D01*
X200028757Y-65868979D01*
X199787288Y-66175051D01*
X199535734Y-66473460D01*
X199274254Y-66763931D01*
X199003006Y-67046191D01*
X198722146Y-67319966D01*
X198431832Y-67584982D01*
X198132223Y-67840965D01*
X197823476Y-68087641D01*
X197505748Y-68324736D01*
X197179198Y-68551977D01*
X196843983Y-68769089D01*
X196500261Y-68975800D01*
X123012766Y-71085560D02*
X123363160Y-70890436D01*
X123718284Y-70707901D01*
X124077824Y-70537955D01*
X124441464Y-70380597D01*
X124808888Y-70235828D01*
X125179781Y-70103648D01*
X125553829Y-69984056D01*
X125930714Y-69877052D01*
X126310123Y-69782638D01*
X126691739Y-69700812D01*
X127075247Y-69631574D01*
X127460332Y-69574926D01*
X127846679Y-69530866D01*
X128233972Y-69499394D01*
X128621896Y-69480511D01*
X129010135Y-69474217D01*
X129398373Y-69480511D01*
X129786297Y-69499394D01*
X130173590Y-69530866D01*
X130559937Y-69574926D01*
X130945022Y-69631574D01*
X131328530Y-69700812D01*
X131710146Y-69782638D01*
X132089555Y-69877052D01*
X132466440Y-69984056D01*
X132840488Y-70103648D01*
X133211381Y-70235828D01*
X133578805Y-70380597D01*
X133942445Y-70537955D01*
X134301985Y-70707901D01*
X134657109Y-70890436D01*
X135007504Y-71085560D01*
X135007504Y-91917324D02*
X134657109Y-92112447D01*
X134301985Y-92294982D01*
X133942445Y-92464928D01*
X133578805Y-92622286D01*
X133211381Y-92767055D01*
X132840488Y-92899235D01*
X132466440Y-93018827D01*
X132089555Y-93125830D01*
X131710146Y-93220245D01*
X131328530Y-93302071D01*
X130945022Y-93371308D01*
X130559937Y-93427957D01*
X130173590Y-93472017D01*
X129786297Y-93503488D01*
X129398373Y-93522371D01*
X129010135Y-93528666D01*
X128621896Y-93522371D01*
X128233972Y-93503488D01*
X127846679Y-93472017D01*
X127460332Y-93427957D01*
X127075247Y-93371308D01*
X126691739Y-93302071D01*
X126310123Y-93220245D01*
X125930714Y-93125830D01*
X125553829Y-93018827D01*
X125179781Y-92899235D01*
X124808888Y-92767055D01*
X124441464Y-92622286D01*
X124077824Y-92464928D01*
X123718284Y-92294982D01*
X123363160Y-92112447D01*
X123012766Y-91917324D01*
X207801792Y-79599939D02*
X208152186Y-79404815D01*
X208507310Y-79222280D01*
X208866850Y-79052334D01*
X209230490Y-78894976D01*
X209597914Y-78750207D01*
X209968807Y-78618027D01*
X210342855Y-78498435D01*
X210719740Y-78391431D01*
X211099149Y-78297017D01*
X211480765Y-78215191D01*
X211864273Y-78145953D01*
X212249358Y-78089305D01*
X212635705Y-78045245D01*
X213022998Y-78013773D01*
X213410922Y-77994890D01*
X213799161Y-77988596D01*
X214187399Y-77994890D01*
X214575323Y-78013773D01*
X214962616Y-78045245D01*
X215348963Y-78089305D01*
X215734048Y-78145953D01*
X216117556Y-78215191D01*
X216499172Y-78297017D01*
X216878581Y-78391431D01*
X217255466Y-78498435D01*
X217629514Y-78618027D01*
X218000407Y-78750207D01*
X218367831Y-78894976D01*
X218731471Y-79052334D01*
X219091011Y-79222280D01*
X219446135Y-79404815D01*
X219796530Y-79599939D01*
X169948022Y-59677504D02*
X170291744Y-59884214D01*
X170626959Y-60101326D01*
X170953509Y-60328567D01*
X171271237Y-60565663D01*
X171579984Y-60812339D01*
X171879593Y-61068321D01*
X172169907Y-61333337D01*
X172450767Y-61607112D01*
X172722015Y-61889372D01*
X172983495Y-62179843D01*
X173235049Y-62478252D01*
X173476518Y-62784325D01*
X173707746Y-63097787D01*
X173928574Y-63418365D01*
X174138845Y-63745785D01*
X174338400Y-64079774D01*
X174527084Y-64420056D01*
X174704736Y-64766359D01*
X174871201Y-65118409D01*
X175026321Y-65475931D01*
X175169936Y-65838652D01*
X175301891Y-66206299D01*
X175422027Y-66578596D01*
X175530187Y-66955271D01*
X175626213Y-67336049D01*
X175709946Y-67720656D01*
X175781231Y-68108819D01*
X175839908Y-68500264D01*
X175885820Y-68894717D01*
X175918810Y-69291904D01*
X175938719Y-69691552D01*
X175945391Y-70093386D01*
X219796530Y-100431703D02*
X219446135Y-100626826D01*
X219091011Y-100809361D01*
X218731471Y-100979307D01*
X218367831Y-101136665D01*
X218000407Y-101281434D01*
X217629514Y-101413614D01*
X217255466Y-101533206D01*
X216878581Y-101640209D01*
X216499172Y-101734624D01*
X216117556Y-101816450D01*
X215734048Y-101885687D01*
X215348963Y-101942336D01*
X214962616Y-101986396D01*
X214575323Y-102017867D01*
X214187399Y-102036750D01*
X213799161Y-102043045D01*
X213410922Y-102036750D01*
X213022998Y-102017867D01*
X212635705Y-101986396D01*
X212249358Y-101942336D01*
X211864273Y-101885687D01*
X211480765Y-101816450D01*
X211099149Y-101734624D01*
X210719740Y-101640209D01*
X210342855Y-101533206D01*
X209968807Y-101413614D01*
X209597914Y-101281434D01*
X209230490Y-101136665D01*
X208866850Y-100979307D01*
X208507310Y-100809361D01*
X208152186Y-100626826D01*
X207801792Y-100431703D01*
X260442698Y-58678166D02*
X260427090Y-59297085D01*
X260380770Y-59907879D01*
X260304491Y-60509793D01*
X260199007Y-61102071D01*
X260065071Y-61683956D01*
X259903437Y-62254694D01*
X259714859Y-62813528D01*
X259500091Y-63359704D01*
X259259886Y-63892464D01*
X258994997Y-64411054D01*
X258706178Y-64914718D01*
X258394184Y-65402701D01*
X258059767Y-65874245D01*
X257703682Y-66328597D01*
X257326681Y-66764999D01*
X256929519Y-67182697D01*
X256512950Y-67580935D01*
X256077726Y-67958956D01*
X255624602Y-68316006D01*
X255154331Y-68651328D01*
X254667667Y-68964168D01*
X254165363Y-69253768D01*
X253648174Y-69519375D01*
X253116852Y-69760231D01*
X252572152Y-69975581D01*
X252014827Y-70164669D01*
X251445631Y-70326741D01*
X250865317Y-70461039D01*
X250274640Y-70566809D01*
X249674352Y-70643294D01*
X249065207Y-70689740D01*
X248447960Y-70705390D01*
X178947514Y-100431703D02*
X178603791Y-100224992D01*
X178268576Y-100007880D01*
X177942026Y-99780639D01*
X177624298Y-99543543D01*
X177315551Y-99296867D01*
X177015942Y-99040885D01*
X176725628Y-98775869D01*
X176444768Y-98502094D01*
X176173520Y-98219834D01*
X175912040Y-97929363D01*
X175660486Y-97630954D01*
X175419017Y-97324881D01*
X175187789Y-97011419D01*
X174966961Y-96690841D01*
X174756690Y-96363421D01*
X174557135Y-96029433D01*
X174368451Y-95689150D01*
X174190799Y-95342847D01*
X174024334Y-94990797D01*
X173869214Y-94633275D01*
X173725599Y-94270554D01*
X173593644Y-93902907D01*
X173473508Y-93530610D01*
X173365348Y-93153935D01*
X173269322Y-92773157D01*
X173185589Y-92388550D01*
X173114304Y-92000387D01*
X173055627Y-91608942D01*
X173009715Y-91214489D01*
X172976725Y-90817302D01*
X172956816Y-90417654D01*
X172950145Y-90015821D01*
X236453222Y-58678166D02*
X236459893Y-58276332D01*
X236479802Y-57876684D01*
X236512792Y-57479497D01*
X236558704Y-57085044D01*
X236617381Y-56693599D01*
X236688666Y-56305436D01*
X236772399Y-55920829D01*
X236868425Y-55540051D01*
X236976585Y-55163376D01*
X237096721Y-54791079D01*
X237228676Y-54423432D01*
X237372291Y-54060711D01*
X237527411Y-53703189D01*
X237693876Y-53351139D01*
X237871528Y-53004836D01*
X238060212Y-52664554D01*
X238259767Y-52330565D01*
X238470038Y-52003145D01*
X238690866Y-51682567D01*
X238922094Y-51369105D01*
X239163563Y-51063032D01*
X239415117Y-50764623D01*
X239676597Y-50474152D01*
X239947845Y-50191892D01*
X240228705Y-49918117D01*
X240519019Y-49653101D01*
X240818628Y-49397119D01*
X241127375Y-49150443D01*
X241445103Y-48913347D01*
X241771653Y-48686106D01*
X242106868Y-48468994D01*
X242450591Y-48262284D01*
X190942252Y-100431703D02*
X190591857Y-100626826D01*
X190236733Y-100809361D01*
X189877193Y-100979307D01*
X189513553Y-101136665D01*
X189146129Y-101281434D01*
X188775236Y-101413614D01*
X188401188Y-101533206D01*
X188024303Y-101640209D01*
X187644894Y-101734624D01*
X187263278Y-101816450D01*
X186879770Y-101885687D01*
X186494685Y-101942336D01*
X186108338Y-101986396D01*
X185721045Y-102017867D01*
X185333121Y-102036750D01*
X184944883Y-102043045D01*
X184556644Y-102036750D01*
X184168720Y-102017867D01*
X183781427Y-101986396D01*
X183395080Y-101942336D01*
X183009995Y-101885687D01*
X182626487Y-101816450D01*
X182244871Y-101734624D01*
X181865462Y-101640209D01*
X181488577Y-101533206D01*
X181114529Y-101413614D01*
X180743636Y-101281434D01*
X180376212Y-101136665D01*
X180012572Y-100979307D01*
X179653032Y-100809361D01*
X179297908Y-100626826D01*
X178947514Y-100431703D01*
X114397421Y-70148930D02*
X114397421Y-70148930D01*
X161508569Y-134598065D02*
X161508569Y-134598065D01*
X154006161Y-121568318D02*
X154436140Y-121826902D01*
X154855477Y-122098498D01*
X155263975Y-122382765D01*
X155661437Y-122679360D01*
X156047664Y-122987939D01*
X156422460Y-123308161D01*
X156785627Y-123639682D01*
X157136969Y-123982160D01*
X157476288Y-124335254D01*
X157803386Y-124698619D01*
X158118067Y-125071913D01*
X158420133Y-125454795D01*
X158709387Y-125846920D01*
X158985632Y-126247947D01*
X159248670Y-126657533D01*
X159498304Y-127075336D01*
X159734337Y-127501013D01*
X159956572Y-127934220D01*
X160164812Y-128374617D01*
X160358858Y-128821860D01*
X160538514Y-129275606D01*
X160703583Y-129735513D01*
X160853867Y-130201238D01*
X160989170Y-130672439D01*
X161109293Y-131148773D01*
X161214040Y-131629898D01*
X161303213Y-132115471D01*
X161376615Y-132605149D01*
X161434049Y-133098590D01*
X161475317Y-133595452D01*
X161500223Y-134095391D01*
X161508569Y-134598065D01*
X178508155Y-58559918D02*
X178514826Y-58158084D01*
X178534735Y-57758436D01*
X178567725Y-57361249D01*
X178613637Y-56966796D01*
X178672314Y-56575351D01*
X178743599Y-56187188D01*
X178827332Y-55802581D01*
X178923358Y-55421803D01*
X179031518Y-55045128D01*
X179151654Y-54672831D01*
X179283609Y-54305184D01*
X179427224Y-53942463D01*
X179582344Y-53584941D01*
X179748808Y-53232891D01*
X179926461Y-52886588D01*
X180115145Y-52546306D01*
X180314700Y-52212317D01*
X180524971Y-51884897D01*
X180745799Y-51564319D01*
X180977026Y-51250857D01*
X181218496Y-50944784D01*
X181470049Y-50646375D01*
X181731529Y-50355904D01*
X182002778Y-50073644D01*
X182283638Y-49799869D01*
X182573951Y-49534853D01*
X182873560Y-49278871D01*
X183182307Y-49032195D01*
X183500035Y-48795099D01*
X183826585Y-48567858D01*
X184161800Y-48350746D01*
X184505523Y-48144036D01*
X141004873Y-81501442D02*
X141004873Y-81501442D01*
X196939621Y-90015821D02*
X196939621Y-90015821D01*
X61317140Y-70030680D02*
X61323811Y-69628846D01*
X61343720Y-69229198D01*
X61376710Y-68832011D01*
X61422622Y-68437558D01*
X61481299Y-68046113D01*
X61552584Y-67657950D01*
X61636317Y-67273343D01*
X61732343Y-66892565D01*
X61840503Y-66515890D01*
X61960639Y-66143593D01*
X62092594Y-65775946D01*
X62236209Y-65413225D01*
X62391329Y-65055703D01*
X62557794Y-64703653D01*
X62735446Y-64357350D01*
X62924130Y-64017068D01*
X63123685Y-63683079D01*
X63333956Y-63355659D01*
X63554784Y-63035081D01*
X63786012Y-62721619D01*
X64027481Y-62415546D01*
X64279035Y-62117137D01*
X64540515Y-61826666D01*
X64811763Y-61544406D01*
X65092623Y-61270631D01*
X65382937Y-61005615D01*
X65682546Y-60749633D01*
X65991293Y-60502957D01*
X66309021Y-60265861D01*
X66635571Y-60038620D01*
X66970786Y-59821508D01*
X67314509Y-59614798D01*
X178947514Y-79599939D02*
X179297908Y-79404815D01*
X179653032Y-79222280D01*
X180012572Y-79052334D01*
X180376212Y-78894976D01*
X180743636Y-78750207D01*
X181114529Y-78618027D01*
X181488577Y-78498435D01*
X181865462Y-78391431D01*
X182244871Y-78297017D01*
X182626487Y-78215191D01*
X183009995Y-78145953D01*
X183395080Y-78089305D01*
X183781427Y-78045245D01*
X184168720Y-78013773D01*
X184556644Y-77994890D01*
X184944883Y-77988596D01*
X185333121Y-77994890D01*
X185721045Y-78013773D01*
X186108338Y-78045245D01*
X186494685Y-78089305D01*
X186879770Y-78145953D01*
X187263278Y-78215191D01*
X187644894Y-78297017D01*
X188024303Y-78391431D01*
X188401188Y-78498435D01*
X188775236Y-78618027D01*
X189146129Y-78750207D01*
X189513553Y-78894976D01*
X189877193Y-79052334D01*
X190236733Y-79222280D01*
X190591857Y-79404815D01*
X190942252Y-79599939D01*
X108400052Y-59733048D02*
X108743774Y-59939758D01*
X109078989Y-60156870D01*
X109405539Y-60384111D01*
X109723267Y-60621207D01*
X110032014Y-60867883D01*
X110331623Y-61123865D01*
X110621936Y-61388881D01*
X110902796Y-61662656D01*
X111174045Y-61944916D01*
X111435525Y-62235387D01*
X111687079Y-62533796D01*
X111928548Y-62839869D01*
X112159775Y-63153331D01*
X112380603Y-63473909D01*
X112590874Y-63801329D01*
X112790430Y-64135318D01*
X112979113Y-64475600D01*
X113156766Y-64821903D01*
X113323231Y-65173953D01*
X113478350Y-65531475D01*
X113621966Y-65894196D01*
X113753921Y-66261843D01*
X113874057Y-66634140D01*
X113982217Y-67010815D01*
X114078242Y-67391593D01*
X114161976Y-67776200D01*
X114233260Y-68164363D01*
X114291938Y-68555808D01*
X114337850Y-68950261D01*
X114370840Y-69347448D01*
X114390749Y-69747096D01*
X114397421Y-70148930D01*
X85306615Y-70030680D02*
X85306615Y-70030680D01*
X114397421Y-70148930D02*
X114390749Y-70550763D01*
X114370840Y-70950411D01*
X114337850Y-71347598D01*
X114291938Y-71742051D01*
X114233260Y-72133496D01*
X114161976Y-72521659D01*
X114078242Y-72906267D01*
X113982217Y-73287045D01*
X113874057Y-73663720D01*
X113753921Y-74036017D01*
X113621966Y-74403663D01*
X113478350Y-74766384D01*
X113323231Y-75123907D01*
X113156766Y-75475956D01*
X112979113Y-75822259D01*
X112790430Y-76162542D01*
X112590874Y-76496530D01*
X112380603Y-76823950D01*
X112159775Y-77144528D01*
X111928548Y-77457991D01*
X111687079Y-77764063D01*
X111435525Y-78062472D01*
X111174045Y-78352943D01*
X110902796Y-78635203D01*
X110621936Y-78908978D01*
X110331623Y-79173994D01*
X110032014Y-79429977D01*
X109723267Y-79676653D01*
X109405539Y-79913748D01*
X109078989Y-80140989D01*
X108743774Y-80358101D01*
X108400052Y-80564812D01*
X184505523Y-68975800D02*
X184161800Y-68769089D01*
X183826585Y-68551977D01*
X183500035Y-68324736D01*
X183182307Y-68087641D01*
X182873560Y-67840965D01*
X182573951Y-67584982D01*
X182283638Y-67319966D01*
X182002778Y-67046191D01*
X181731529Y-66763931D01*
X181470049Y-66473460D01*
X181218496Y-66175051D01*
X180977026Y-65868979D01*
X180745799Y-65555516D01*
X180524971Y-65234938D01*
X180314700Y-64907518D01*
X180115145Y-64573530D01*
X179926461Y-64233247D01*
X179748808Y-63886944D01*
X179582344Y-63534895D01*
X179427224Y-63177372D01*
X179283609Y-62814651D01*
X179151654Y-62447005D01*
X179031518Y-62074708D01*
X178923358Y-61698033D01*
X178827332Y-61317255D01*
X178743599Y-60932647D01*
X178672314Y-60544484D01*
X178613637Y-60153039D01*
X178567725Y-59758586D01*
X178534735Y-59361399D01*
X178514826Y-58961751D01*
X178508155Y-58559918D01*
X141004873Y-81501442D02*
X140998201Y-81903275D01*
X140978292Y-82302923D01*
X140945302Y-82700110D01*
X140899390Y-83094563D01*
X140840713Y-83486008D01*
X140769428Y-83874171D01*
X140685695Y-84258778D01*
X140589669Y-84639556D01*
X140481509Y-85016231D01*
X140361373Y-85388528D01*
X140229418Y-85756175D01*
X140085803Y-86118896D01*
X139930683Y-86476418D01*
X139764218Y-86828468D01*
X139586566Y-87174771D01*
X139397882Y-87515054D01*
X139198327Y-87849042D01*
X138988056Y-88176462D01*
X138767228Y-88497040D01*
X138536000Y-88810502D01*
X138294531Y-89116575D01*
X138042977Y-89414984D01*
X137781497Y-89705455D01*
X137510249Y-89987715D01*
X137229389Y-90261490D01*
X136939075Y-90526506D01*
X136639466Y-90782488D01*
X136330719Y-91029164D01*
X136012991Y-91266260D01*
X135686441Y-91493501D01*
X135351226Y-91710613D01*
X135007504Y-91917324D01*
X213478060Y-68857539D02*
X213134337Y-68650828D01*
X212799122Y-68433716D01*
X212472572Y-68206475D01*
X212154844Y-67969380D01*
X211846097Y-67722704D01*
X211546488Y-67466721D01*
X211256174Y-67201705D01*
X210975314Y-66927931D01*
X210704066Y-66645671D01*
X210442586Y-66355199D01*
X210191032Y-66056790D01*
X209949563Y-65750718D01*
X209718335Y-65437256D01*
X209497507Y-65116678D01*
X209287236Y-64789258D01*
X209087681Y-64455269D01*
X208898997Y-64114987D01*
X208721345Y-63768684D01*
X208554880Y-63416634D01*
X208399760Y-63059112D01*
X208256145Y-62696391D01*
X208124190Y-62328744D01*
X208004054Y-61956447D01*
X207895894Y-61579772D01*
X207799868Y-61198994D01*
X207716135Y-60814387D01*
X207644850Y-60426224D01*
X207586173Y-60034779D01*
X207540261Y-59640326D01*
X207507271Y-59243139D01*
X207487362Y-58843491D01*
X207480691Y-58441658D01*
X255002997Y-90015821D02*
X255002997Y-90015821D01*
X175945391Y-70093386D02*
X175938719Y-70495219D01*
X175918810Y-70894867D01*
X175885820Y-71292054D01*
X175839908Y-71686507D01*
X175781231Y-72077952D01*
X175709946Y-72466115D01*
X175626213Y-72850723D01*
X175530187Y-73231501D01*
X175422027Y-73608176D01*
X175301891Y-73980473D01*
X175169936Y-74348119D01*
X175026321Y-74710840D01*
X174871201Y-75068363D01*
X174704736Y-75420412D01*
X174527084Y-75766715D01*
X174338400Y-76106998D01*
X174138845Y-76440986D01*
X173928574Y-76768406D01*
X173707746Y-77088984D01*
X173476518Y-77402447D01*
X173235049Y-77708519D01*
X172983495Y-78006928D01*
X172722015Y-78297399D01*
X172450767Y-78579659D01*
X172169907Y-78853434D01*
X171879593Y-79118450D01*
X171579984Y-79374433D01*
X171271237Y-79621109D01*
X170953509Y-79858204D01*
X170626959Y-80085445D01*
X170291744Y-80302557D01*
X169948022Y-80509268D01*
X237010890Y-79599939D02*
X237361284Y-79404815D01*
X237716408Y-79222280D01*
X238075948Y-79052334D01*
X238439588Y-78894976D01*
X238807012Y-78750207D01*
X239177905Y-78618027D01*
X239551953Y-78498435D01*
X239928838Y-78391431D01*
X240308247Y-78297017D01*
X240689863Y-78215191D01*
X241073371Y-78145953D01*
X241458456Y-78089305D01*
X241844803Y-78045245D01*
X242232096Y-78013773D01*
X242620020Y-77994890D01*
X243008259Y-77988596D01*
X243396497Y-77994890D01*
X243784421Y-78013773D01*
X244171714Y-78045245D01*
X244558061Y-78089305D01*
X244943146Y-78145953D01*
X245326654Y-78215191D01*
X245708270Y-78297017D01*
X246087679Y-78391431D01*
X246464564Y-78498435D01*
X246838612Y-78618027D01*
X247209505Y-78750207D01*
X247576929Y-78894976D01*
X247940569Y-79052334D01*
X248300109Y-79222280D01*
X248655233Y-79404815D01*
X249005628Y-79599939D01*
X151955915Y-70093386D02*
X151962586Y-69691552D01*
X151982495Y-69291904D01*
X152015485Y-68894717D01*
X152061397Y-68500264D01*
X152120074Y-68108819D01*
X152191359Y-67720656D01*
X152275092Y-67336049D01*
X152371118Y-66955271D01*
X152479278Y-66578596D01*
X152599414Y-66206299D01*
X152731369Y-65838652D01*
X152874984Y-65475931D01*
X153030104Y-65118409D01*
X153196569Y-64766359D01*
X153374221Y-64420056D01*
X153562905Y-64079774D01*
X153762460Y-63745785D01*
X153972731Y-63418365D01*
X154193559Y-63097787D01*
X154424787Y-62784325D01*
X154666256Y-62478252D01*
X154917810Y-62179843D01*
X155179290Y-61889372D01*
X155450538Y-61607112D01*
X155731398Y-61333337D01*
X156021712Y-61068321D01*
X156321321Y-60812339D01*
X156630068Y-60565663D01*
X156947796Y-60328567D01*
X157274346Y-60101326D01*
X157609561Y-59884214D01*
X157953284Y-59677504D01*
X79309246Y-59614798D02*
X79652968Y-59821508D01*
X79988183Y-60038620D01*
X80314733Y-60265861D01*
X80632461Y-60502957D01*
X80941208Y-60749633D01*
X81240817Y-61005615D01*
X81531131Y-61270631D01*
X81811991Y-61544406D01*
X82083239Y-61826666D01*
X82344719Y-62117137D01*
X82596273Y-62415546D01*
X82837742Y-62721619D01*
X83068970Y-63035081D01*
X83289798Y-63355659D01*
X83500069Y-63683079D01*
X83699624Y-64017068D01*
X83888308Y-64357350D01*
X84065960Y-64703653D01*
X84232425Y-65055703D01*
X84387545Y-65413225D01*
X84531160Y-65775946D01*
X84663115Y-66143593D01*
X84783251Y-66515890D01*
X84891411Y-66892565D01*
X84987437Y-67273343D01*
X85071170Y-67657950D01*
X85142455Y-68046113D01*
X85201132Y-68437558D01*
X85247044Y-68832011D01*
X85280034Y-69229198D01*
X85299943Y-69628846D01*
X85306615Y-70030680D01*
X219796530Y-79599939D02*
X220140252Y-79806649D01*
X220475467Y-80023761D01*
X220802017Y-80251002D01*
X221119745Y-80488097D01*
X221428492Y-80734773D01*
X221728101Y-80990756D01*
X222018415Y-81255772D01*
X222299275Y-81529547D01*
X222570523Y-81811807D01*
X222832003Y-82102278D01*
X223083557Y-82400687D01*
X223325026Y-82706759D01*
X223556254Y-83020222D01*
X223777082Y-83340800D01*
X223987353Y-83668220D01*
X224186908Y-84002208D01*
X224375592Y-84342491D01*
X224553244Y-84688794D01*
X224719709Y-85040843D01*
X224874829Y-85398366D01*
X225018444Y-85761087D01*
X225150399Y-86128733D01*
X225270535Y-86501030D01*
X225378695Y-86877705D01*
X225474721Y-87258483D01*
X225558454Y-87643091D01*
X225629739Y-88031254D01*
X225688416Y-88422699D01*
X225734328Y-88817152D01*
X225767318Y-89214339D01*
X225787227Y-89613987D01*
X225793899Y-90015821D01*
X249005628Y-79599939D02*
X249349350Y-79806649D01*
X249684565Y-80023761D01*
X250011115Y-80251002D01*
X250328843Y-80488097D01*
X250637590Y-80734773D01*
X250937199Y-80990756D01*
X251227513Y-81255772D01*
X251508373Y-81529547D01*
X251779621Y-81811807D01*
X252041101Y-82102278D01*
X252292655Y-82400687D01*
X252534124Y-82706759D01*
X252765352Y-83020222D01*
X252986180Y-83340800D01*
X253196451Y-83668220D01*
X253396006Y-84002208D01*
X253584690Y-84342491D01*
X253762342Y-84688794D01*
X253928807Y-85040843D01*
X254083927Y-85398366D01*
X254227542Y-85761087D01*
X254359497Y-86128733D01*
X254479633Y-86501030D01*
X254587793Y-86877705D01*
X254683819Y-87258483D01*
X254767552Y-87643091D01*
X254838837Y-88031254D01*
X254897514Y-88422699D01*
X254943426Y-88817152D01*
X254976416Y-89214339D01*
X254996325Y-89613987D01*
X255002997Y-90015821D01*
X157953284Y-59677504D02*
X158303678Y-59482380D01*
X158658802Y-59299845D01*
X159018342Y-59129899D01*
X159381982Y-58972541D01*
X159749406Y-58827772D01*
X160120299Y-58695592D01*
X160494347Y-58576000D01*
X160871232Y-58468997D01*
X161250641Y-58374582D01*
X161632257Y-58292756D01*
X162015765Y-58223519D01*
X162400850Y-58166870D01*
X162787197Y-58122810D01*
X163174490Y-58091339D01*
X163562414Y-58072456D01*
X163950653Y-58066162D01*
X164338891Y-58072456D01*
X164726815Y-58091339D01*
X165114108Y-58122810D01*
X165500455Y-58166870D01*
X165885540Y-58223519D01*
X166269048Y-58292756D01*
X166650664Y-58374582D01*
X167030073Y-58468997D01*
X167406958Y-58576000D01*
X167781006Y-58695592D01*
X168151899Y-58827772D01*
X168519323Y-58972541D01*
X168882963Y-59129899D01*
X169242503Y-59299845D01*
X169597627Y-59482380D01*
X169948022Y-59677504D01*
X170332184Y-101131826D02*
X170332184Y-101131826D01*
X231470167Y-58441658D02*
X231463495Y-58843491D01*
X231443586Y-59243139D01*
X231410596Y-59640326D01*
X231364684Y-60034779D01*
X231306007Y-60426224D01*
X231234722Y-60814387D01*
X231150989Y-61198994D01*
X231054963Y-61579772D01*
X230946803Y-61956447D01*
X230826667Y-62328744D01*
X230694712Y-62696391D01*
X230551097Y-63059112D01*
X230395977Y-63416634D01*
X230229512Y-63768684D01*
X230051860Y-64114987D01*
X229863176Y-64455269D01*
X229663621Y-64789258D01*
X229453350Y-65116678D01*
X229232522Y-65437256D01*
X229001294Y-65750718D01*
X228759825Y-66056790D01*
X228508271Y-66355199D01*
X228246791Y-66645671D01*
X227975543Y-66927931D01*
X227694683Y-67201705D01*
X227404369Y-67466721D01*
X227104760Y-67722704D01*
X226796013Y-67969380D01*
X226478285Y-68206475D01*
X226151735Y-68433716D01*
X225816520Y-68650828D01*
X225472798Y-68857539D01*
X260442698Y-58678166D02*
X260442698Y-58678166D01*
X131498937Y-134598065D02*
X131507282Y-134095391D01*
X131532188Y-133595452D01*
X131573456Y-133098590D01*
X131630890Y-132605149D01*
X131704292Y-132115471D01*
X131793465Y-131629898D01*
X131898212Y-131148773D01*
X132018335Y-130672439D01*
X132153637Y-130201238D01*
X132303922Y-129735513D01*
X132468991Y-129275606D01*
X132648647Y-128821860D01*
X132842693Y-128374617D01*
X133050932Y-127934220D01*
X133273167Y-127501013D01*
X133509200Y-127075336D01*
X133758835Y-126657533D01*
X134021873Y-126247947D01*
X134298117Y-125846920D01*
X134587372Y-125454795D01*
X134889438Y-125071913D01*
X135204118Y-124698619D01*
X135531217Y-124335254D01*
X135870536Y-123982160D01*
X136221877Y-123639682D01*
X136585045Y-123308161D01*
X136959841Y-122987939D01*
X137346068Y-122679360D01*
X137743529Y-122382765D01*
X138152027Y-122098498D01*
X138571365Y-121826902D01*
X139001345Y-121568318D01*
X164334815Y-111547708D02*
X163984420Y-111742831D01*
X163629296Y-111925366D01*
X163269756Y-112095312D01*
X162906116Y-112252670D01*
X162538692Y-112397439D01*
X162167799Y-112529619D01*
X161793751Y-112649211D01*
X161416866Y-112756215D01*
X161037457Y-112850629D01*
X160655841Y-112932455D01*
X160272333Y-113001693D01*
X159887248Y-113058341D01*
X159500901Y-113102401D01*
X159113608Y-113133873D01*
X158725684Y-113152756D01*
X158337446Y-113159050D01*
X157949207Y-113152756D01*
X157561283Y-113133873D01*
X157173990Y-113102401D01*
X156787643Y-113058341D01*
X156402558Y-113001693D01*
X156019050Y-112932455D01*
X155637434Y-112850629D01*
X155258025Y-112756215D01*
X154881140Y-112649211D01*
X154507092Y-112529619D01*
X154136199Y-112397439D01*
X153768775Y-112252670D01*
X153405135Y-112095312D01*
X153045595Y-111925366D01*
X152690471Y-111742831D01*
X152340077Y-111547708D01*
X146342708Y-101131826D02*
X146349379Y-100729992D01*
X146369288Y-100330344D01*
X146402278Y-99933157D01*
X146448190Y-99538704D01*
X146506868Y-99147259D01*
X146578152Y-98759096D01*
X146661886Y-98374489D01*
X146757911Y-97993711D01*
X146866071Y-97617036D01*
X146986207Y-97244739D01*
X147118162Y-96877092D01*
X147261778Y-96514371D01*
X147416897Y-96156849D01*
X147583362Y-95804799D01*
X147761015Y-95458496D01*
X147949698Y-95118214D01*
X148149254Y-94784225D01*
X148359525Y-94456805D01*
X148580353Y-94136227D01*
X148811580Y-93822765D01*
X149053049Y-93516693D01*
X149304603Y-93218284D01*
X149566083Y-92927813D01*
X149837332Y-92645553D01*
X150118192Y-92371778D01*
X150408505Y-92106762D01*
X150708114Y-91850780D01*
X151016861Y-91604104D01*
X151334589Y-91367009D01*
X151661139Y-91139768D01*
X151996354Y-90922656D01*
X152340077Y-90715946D01*
X85306615Y-70030680D02*
X85299943Y-70432513D01*
X85280034Y-70832161D01*
X85247044Y-71229348D01*
X85201132Y-71623801D01*
X85142455Y-72015246D01*
X85071170Y-72403409D01*
X84987437Y-72788016D01*
X84891411Y-73168794D01*
X84783251Y-73545469D01*
X84663115Y-73917766D01*
X84531160Y-74285413D01*
X84387545Y-74648134D01*
X84232425Y-75005656D01*
X84065960Y-75357706D01*
X83888308Y-75704009D01*
X83699624Y-76044292D01*
X83500069Y-76378280D01*
X83289798Y-76705700D01*
X83068970Y-77026278D01*
X82837742Y-77339740D01*
X82596273Y-77645813D01*
X82344719Y-77944222D01*
X82083239Y-78234693D01*
X81811991Y-78516953D01*
X81531131Y-78790728D01*
X81240817Y-79055744D01*
X80941208Y-79311726D01*
X80632461Y-79558402D01*
X80314733Y-79795498D01*
X79988183Y-80022739D01*
X79652968Y-80239851D01*
X79309246Y-80446562D01*
X196500261Y-48144036D02*
X196843983Y-48350746D01*
X197179198Y-48567858D01*
X197505748Y-48795099D01*
X197823476Y-49032195D01*
X198132223Y-49278871D01*
X198431832Y-49534853D01*
X198722146Y-49799869D01*
X199003006Y-50073644D01*
X199274254Y-50355904D01*
X199535734Y-50646375D01*
X199787288Y-50944784D01*
X200028757Y-51250857D01*
X200259985Y-51564319D01*
X200480813Y-51884897D01*
X200691084Y-52212317D01*
X200890639Y-52546306D01*
X201079323Y-52886588D01*
X201256975Y-53232891D01*
X201423440Y-53584941D01*
X201578560Y-53942463D01*
X201722175Y-54305184D01*
X201854130Y-54672831D01*
X201974266Y-55045128D01*
X202082426Y-55421803D01*
X202178452Y-55802581D01*
X202262185Y-56187188D01*
X202333470Y-56575351D01*
X202392147Y-56966796D01*
X202438059Y-57361249D01*
X202471049Y-57758436D01*
X202490958Y-58158084D01*
X202497630Y-58559918D01*
D11*
X176801885Y-147549828D02*
X176801885Y-149168876D01*
X176706647Y-149359352D01*
X176611409Y-149454590D01*
X176420933Y-149549828D01*
X176135219Y-149549828D01*
X175944742Y-149454590D01*
X176801885Y-148787923D02*
X176611409Y-148883161D01*
X176230457Y-148883161D01*
X176039980Y-148787923D01*
X175944742Y-148692685D01*
X175849504Y-148502209D01*
X175849504Y-147930780D01*
X175944742Y-147740304D01*
X176039980Y-147645066D01*
X176230457Y-147549828D01*
X176611409Y-147549828D01*
X176801885Y-147645066D01*
X177754266Y-148883161D02*
X177754266Y-147549828D01*
X177754266Y-146883161D02*
X177659028Y-146978400D01*
X177754266Y-147073638D01*
X177849504Y-146978400D01*
X177754266Y-146883161D01*
X177754266Y-147073638D01*
X178420933Y-147549828D02*
X179182838Y-147549828D01*
X178706647Y-146883161D02*
X178706647Y-148597447D01*
X178801885Y-148787923D01*
X178992361Y-148883161D01*
X179182838Y-148883161D01*
X179849504Y-148883161D02*
X179849504Y-146883161D01*
X180706647Y-148883161D02*
X180706647Y-147835542D01*
X180611409Y-147645066D01*
X180420933Y-147549828D01*
X180135219Y-147549828D01*
X179944742Y-147645066D01*
X179849504Y-147740304D01*
X182516171Y-147549828D02*
X182516171Y-148883161D01*
X181659028Y-147549828D02*
X181659028Y-148597447D01*
X181754266Y-148787923D01*
X181944742Y-148883161D01*
X182230457Y-148883161D01*
X182420933Y-148787923D01*
X182516171Y-148692685D01*
X183468552Y-148883161D02*
X183468552Y-146883161D01*
X183468552Y-147645066D02*
X183659028Y-147549828D01*
X184039980Y-147549828D01*
X184230457Y-147645066D01*
X184325695Y-147740304D01*
X184420933Y-147930780D01*
X184420933Y-148502209D01*
X184325695Y-148692685D01*
X184230457Y-148787923D01*
X184039980Y-148883161D01*
X183659028Y-148883161D01*
X183468552Y-148787923D01*
X185278076Y-148692685D02*
X185373314Y-148787923D01*
X185278076Y-148883161D01*
X185182838Y-148787923D01*
X185278076Y-148692685D01*
X185278076Y-148883161D01*
X187087600Y-148787923D02*
X186897123Y-148883161D01*
X186516171Y-148883161D01*
X186325695Y-148787923D01*
X186230457Y-148692685D01*
X186135219Y-148502209D01*
X186135219Y-147930780D01*
X186230457Y-147740304D01*
X186325695Y-147645066D01*
X186516171Y-147549828D01*
X186897123Y-147549828D01*
X187087600Y-147645066D01*
X188230457Y-148883161D02*
X188039980Y-148787923D01*
X187944742Y-148692685D01*
X187849504Y-148502209D01*
X187849504Y-147930780D01*
X187944742Y-147740304D01*
X188039980Y-147645066D01*
X188230457Y-147549828D01*
X188516171Y-147549828D01*
X188706647Y-147645066D01*
X188801885Y-147740304D01*
X188897123Y-147930780D01*
X188897123Y-148502209D01*
X188801885Y-148692685D01*
X188706647Y-148787923D01*
X188516171Y-148883161D01*
X188230457Y-148883161D01*
X189754266Y-148883161D02*
X189754266Y-147549828D01*
X189754266Y-147740304D02*
X189849504Y-147645066D01*
X190039980Y-147549828D01*
X190325695Y-147549828D01*
X190516171Y-147645066D01*
X190611409Y-147835542D01*
X190611409Y-148883161D01*
X190611409Y-147835542D02*
X190706647Y-147645066D01*
X190897123Y-147549828D01*
X191182838Y-147549828D01*
X191373314Y-147645066D01*
X191468552Y-147835542D01*
X191468552Y-148883161D01*
X193849504Y-146787923D02*
X192135219Y-149359352D01*
X194325695Y-148883161D02*
X195373314Y-147549828D01*
X194325695Y-147549828D02*
X195373314Y-148883161D01*
X196135219Y-147549828D02*
X196135219Y-149549828D01*
X196135219Y-147645066D02*
X196325695Y-147549828D01*
X196706647Y-147549828D01*
X196897123Y-147645066D01*
X196992361Y-147740304D01*
X197087600Y-147930780D01*
X197087600Y-148502209D01*
X196992361Y-148692685D01*
X196897123Y-148787923D01*
X196706647Y-148883161D01*
X196325695Y-148883161D01*
X196135219Y-148787923D01*
X197944742Y-148883161D02*
X197944742Y-147549828D01*
X197944742Y-146883161D02*
X197849504Y-146978400D01*
X197944742Y-147073638D01*
X198039980Y-146978400D01*
X197944742Y-146883161D01*
X197944742Y-147073638D01*
X198897123Y-148883161D02*
X198897123Y-147549828D01*
X198897123Y-147930780D02*
X198992361Y-147740304D01*
X199087600Y-147645066D01*
X199278076Y-147549828D01*
X199468552Y-147549828D01*
X200897123Y-148787923D02*
X200706647Y-148883161D01*
X200325695Y-148883161D01*
X200135219Y-148787923D01*
X200039980Y-148597447D01*
X200039980Y-147835542D01*
X200135219Y-147645066D01*
X200325695Y-147549828D01*
X200706647Y-147549828D01*
X200897123Y-147645066D01*
X200992361Y-147835542D01*
X200992361Y-148026019D01*
X200039980Y-148216495D01*
X203278076Y-146787923D02*
X201563790Y-149359352D01*
X203659028Y-147549828D02*
X204420933Y-147549828D01*
X203944742Y-148883161D02*
X203944742Y-147168876D01*
X204039980Y-146978400D01*
X204230457Y-146883161D01*
X204420933Y-146883161D01*
X205373314Y-148883161D02*
X205182838Y-148787923D01*
X205087600Y-148597447D01*
X205087600Y-146883161D01*
X206992361Y-148883161D02*
X206992361Y-147835542D01*
X206897123Y-147645066D01*
X206706647Y-147549828D01*
X206325695Y-147549828D01*
X206135219Y-147645066D01*
X206992361Y-148787923D02*
X206801885Y-148883161D01*
X206325695Y-148883161D01*
X206135219Y-148787923D01*
X206039980Y-148597447D01*
X206039980Y-148406971D01*
X206135219Y-148216495D01*
X206325695Y-148121257D01*
X206801885Y-148121257D01*
X206992361Y-148026019D01*
X207659028Y-147549828D02*
X208420933Y-147549828D01*
X207944742Y-146883161D02*
X207944742Y-148597447D01*
X208039980Y-148787923D01*
X208230457Y-148883161D01*
X208420933Y-148883161D01*
X209087600Y-148883161D02*
X209087600Y-146883161D01*
X209087600Y-147645066D02*
X209278076Y-147549828D01*
X209659028Y-147549828D01*
X209849504Y-147645066D01*
X209944742Y-147740304D01*
X210039980Y-147930780D01*
X210039980Y-148502209D01*
X209944742Y-148692685D01*
X209849504Y-148787923D01*
X209659028Y-148883161D01*
X209278076Y-148883161D01*
X209087600Y-148787923D01*
X211182838Y-148883161D02*
X210992361Y-148787923D01*
X210897123Y-148692685D01*
X210801885Y-148502209D01*
X210801885Y-147930780D01*
X210897123Y-147740304D01*
X210992361Y-147645066D01*
X211182838Y-147549828D01*
X211468552Y-147549828D01*
X211659028Y-147645066D01*
X211754266Y-147740304D01*
X211849504Y-147930780D01*
X211849504Y-148502209D01*
X211754266Y-148692685D01*
X211659028Y-148787923D01*
X211468552Y-148883161D01*
X211182838Y-148883161D01*
X212516171Y-148883161D02*
X213563790Y-147549828D01*
X212516171Y-147549828D02*
X213563790Y-148883161D01*
X214325695Y-148121257D02*
X215849504Y-148121257D01*
X216706647Y-148787923D02*
X216897123Y-148883161D01*
X217278076Y-148883161D01*
X217468552Y-148787923D01*
X217563790Y-148597447D01*
X217563790Y-148502209D01*
X217468552Y-148311733D01*
X217278076Y-148216495D01*
X216992361Y-148216495D01*
X216801885Y-148121257D01*
X216706647Y-147930780D01*
X216706647Y-147835542D01*
X216801885Y-147645066D01*
X216992361Y-147549828D01*
X217278076Y-147549828D01*
X217468552Y-147645066D01*
X218420933Y-148883161D02*
X218420933Y-146883161D01*
X219278076Y-148883161D02*
X219278076Y-147835542D01*
X219182838Y-147645066D01*
X218992361Y-147549828D01*
X218706647Y-147549828D01*
X218516171Y-147645066D01*
X218420933Y-147740304D01*
X220230457Y-148883161D02*
X220230457Y-147549828D01*
X220230457Y-146883161D02*
X220135219Y-146978400D01*
X220230457Y-147073638D01*
X220325695Y-146978400D01*
X220230457Y-146883161D01*
X220230457Y-147073638D01*
X220897123Y-147549828D02*
X221659028Y-147549828D01*
X221182838Y-148883161D02*
X221182838Y-147168876D01*
X221278076Y-146978400D01*
X221468552Y-146883161D01*
X221659028Y-146883161D01*
X222039980Y-147549828D02*
X222801885Y-147549828D01*
X222325695Y-146883161D02*
X222325695Y-148597447D01*
X222420933Y-148787923D01*
X222611409Y-148883161D01*
X222801885Y-148883161D01*
X225563790Y-149645066D02*
X225468552Y-149549828D01*
X225278076Y-149264114D01*
X225182838Y-149073638D01*
X225087600Y-148787923D01*
X224992361Y-148311733D01*
X224992361Y-147930780D01*
X225087600Y-147454590D01*
X225182838Y-147168876D01*
X225278076Y-146978400D01*
X225468552Y-146692685D01*
X225563790Y-146597447D01*
X227182838Y-148787923D02*
X226992361Y-148883161D01*
X226611409Y-148883161D01*
X226420933Y-148787923D01*
X226325695Y-148692685D01*
X226230457Y-148502209D01*
X226230457Y-147930780D01*
X226325695Y-147740304D01*
X226420933Y-147645066D01*
X226611409Y-147549828D01*
X226992361Y-147549828D01*
X227182838Y-147645066D01*
X228039980Y-148883161D02*
X228039980Y-147549828D01*
X228039980Y-147930780D02*
X228135219Y-147740304D01*
X228230457Y-147645066D01*
X228420933Y-147549828D01*
X228611409Y-147549828D01*
X230039980Y-148787923D02*
X229849504Y-148883161D01*
X229468552Y-148883161D01*
X229278076Y-148787923D01*
X229182838Y-148597447D01*
X229182838Y-147835542D01*
X229278076Y-147645066D01*
X229468552Y-147549828D01*
X229849504Y-147549828D01*
X230039980Y-147645066D01*
X230135219Y-147835542D01*
X230135219Y-148026019D01*
X229182838Y-148216495D01*
X231849504Y-148883161D02*
X231849504Y-146883161D01*
X231849504Y-148787923D02*
X231659028Y-148883161D01*
X231278076Y-148883161D01*
X231087600Y-148787923D01*
X230992361Y-148692685D01*
X230897123Y-148502209D01*
X230897123Y-147930780D01*
X230992361Y-147740304D01*
X231087600Y-147645066D01*
X231278076Y-147549828D01*
X231659028Y-147549828D01*
X231849504Y-147645066D01*
X232801885Y-148692685D02*
X232897123Y-148787923D01*
X232801885Y-148883161D01*
X232706647Y-148787923D01*
X232801885Y-148692685D01*
X232801885Y-148883161D01*
X232801885Y-147645066D02*
X232897123Y-147740304D01*
X232801885Y-147835542D01*
X232706647Y-147740304D01*
X232801885Y-147645066D01*
X232801885Y-147835542D01*
X235278076Y-147549828D02*
X235278076Y-149264114D01*
X235182838Y-149454590D01*
X234992361Y-149549828D01*
X234897123Y-149549828D01*
X235278076Y-146883161D02*
X235182838Y-146978400D01*
X235278076Y-147073638D01*
X235373314Y-146978400D01*
X235278076Y-146883161D01*
X235278076Y-147073638D01*
X235944742Y-147549828D02*
X236706647Y-147549828D01*
X236230457Y-148883161D02*
X236230457Y-147168876D01*
X236325695Y-146978400D01*
X236516171Y-146883161D01*
X236706647Y-146883161D01*
X238135219Y-148787923D02*
X237944742Y-148883161D01*
X237563790Y-148883161D01*
X237373314Y-148787923D01*
X237278076Y-148597447D01*
X237278076Y-147835542D01*
X237373314Y-147645066D01*
X237563790Y-147549828D01*
X237944742Y-147549828D01*
X238135219Y-147645066D01*
X238230457Y-147835542D01*
X238230457Y-148026019D01*
X237278076Y-148216495D01*
X239944742Y-148883161D02*
X239944742Y-146883161D01*
X239944742Y-148787923D02*
X239754266Y-148883161D01*
X239373314Y-148883161D01*
X239182838Y-148787923D01*
X239087600Y-148692685D01*
X238992361Y-148502209D01*
X238992361Y-147930780D01*
X239087600Y-147740304D01*
X239182838Y-147645066D01*
X239373314Y-147549828D01*
X239754266Y-147549828D01*
X239944742Y-147645066D01*
X241182838Y-148883161D02*
X240992361Y-148787923D01*
X240897123Y-148692685D01*
X240801885Y-148502209D01*
X240801885Y-147930780D01*
X240897123Y-147740304D01*
X240992361Y-147645066D01*
X241182838Y-147549828D01*
X241468552Y-147549828D01*
X241659028Y-147645066D01*
X241754266Y-147740304D01*
X241849504Y-147930780D01*
X241849504Y-148502209D01*
X241754266Y-148692685D01*
X241659028Y-148787923D01*
X241468552Y-148883161D01*
X241182838Y-148883161D01*
X242706647Y-148883161D02*
X242706647Y-147549828D01*
X242706647Y-147930780D02*
X242801885Y-147740304D01*
X242897123Y-147645066D01*
X243087600Y-147549828D01*
X243278076Y-147549828D01*
X243849504Y-147073638D02*
X243944742Y-146978400D01*
X244135219Y-146883161D01*
X244611409Y-146883161D01*
X244801885Y-146978400D01*
X244897123Y-147073638D01*
X244992361Y-147264114D01*
X244992361Y-147454590D01*
X244897123Y-147740304D01*
X243754266Y-148883161D01*
X244992361Y-148883161D01*
X245659028Y-149645066D02*
X245754266Y-149549828D01*
X245944742Y-149264114D01*
X246039980Y-149073638D01*
X246135219Y-148787923D01*
X246230457Y-148311733D01*
X246230457Y-147930780D01*
X246135219Y-147454590D01*
X246039980Y-147168876D01*
X245944742Y-146978400D01*
X245754266Y-146692685D01*
X245659028Y-146597447D01*
X88278076Y-148883161D02*
X88278076Y-147549828D01*
X88278076Y-147930780D02*
X88373314Y-147740304D01*
X88468552Y-147645066D01*
X88659028Y-147549828D01*
X88849504Y-147549828D01*
X90278076Y-148787923D02*
X90087600Y-148883161D01*
X89706647Y-148883161D01*
X89516171Y-148787923D01*
X89420933Y-148597447D01*
X89420933Y-147835542D01*
X89516171Y-147645066D01*
X89706647Y-147549828D01*
X90087600Y-147549828D01*
X90278076Y-147645066D01*
X90373314Y-147835542D01*
X90373314Y-148026019D01*
X89420933Y-148216495D01*
X91039980Y-147549828D02*
X91516171Y-148883161D01*
X91992361Y-147549828D01*
X93801885Y-148883161D02*
X92659028Y-148883161D01*
X93230457Y-148883161D02*
X93230457Y-146883161D01*
X93039980Y-147168876D01*
X92849504Y-147359352D01*
X92659028Y-147454590D01*
X94659028Y-148692685D02*
X94754266Y-148787923D01*
X94659028Y-148883161D01*
X94563790Y-148787923D01*
X94659028Y-148692685D01*
X94659028Y-148883161D01*
X96659028Y-148883161D02*
X95516171Y-148883161D01*
X96087600Y-148883161D02*
X96087600Y-146883161D01*
X95897123Y-147168876D01*
X95706647Y-147359352D01*
X95516171Y-147454590D01*
X98087600Y-149645066D02*
X97992361Y-149549828D01*
X97801885Y-149264114D01*
X97706647Y-149073638D01*
X97611409Y-148787923D01*
X97516171Y-148311733D01*
X97516171Y-147930780D01*
X97611409Y-147454590D01*
X97706647Y-147168876D01*
X97801885Y-146978400D01*
X97992361Y-146692685D01*
X98087600Y-146597447D01*
X98754266Y-148787923D02*
X98944742Y-148883161D01*
X99325695Y-148883161D01*
X99516171Y-148787923D01*
X99611409Y-148597447D01*
X99611409Y-148502209D01*
X99516171Y-148311733D01*
X99325695Y-148216495D01*
X99039980Y-148216495D01*
X98849504Y-148121257D01*
X98754266Y-147930780D01*
X98754266Y-147835542D01*
X98849504Y-147645066D01*
X99039980Y-147549828D01*
X99325695Y-147549828D01*
X99516171Y-147645066D01*
X100468552Y-148883161D02*
X100468552Y-146883161D01*
X101325695Y-148883161D02*
X101325695Y-147835542D01*
X101230457Y-147645066D01*
X101039980Y-147549828D01*
X100754266Y-147549828D01*
X100563790Y-147645066D01*
X100468552Y-147740304D01*
X102278076Y-148883161D02*
X102278076Y-147549828D01*
X102278076Y-146883161D02*
X102182838Y-146978400D01*
X102278076Y-147073638D01*
X102373314Y-146978400D01*
X102278076Y-146883161D01*
X102278076Y-147073638D01*
X102944742Y-147549828D02*
X103706647Y-147549828D01*
X103230457Y-148883161D02*
X103230457Y-147168876D01*
X103325695Y-146978400D01*
X103516171Y-146883161D01*
X103706647Y-146883161D01*
X104087600Y-147549828D02*
X104849504Y-147549828D01*
X104373314Y-146883161D02*
X104373314Y-148597447D01*
X104468552Y-148787923D01*
X104659028Y-148883161D01*
X104849504Y-148883161D01*
X105325695Y-149645066D02*
X105420933Y-149549828D01*
X105611409Y-149264114D01*
X105706647Y-149073638D01*
X105801885Y-148787923D01*
X105897123Y-148311733D01*
X105897123Y-147930780D01*
X105801885Y-147454590D01*
X105706647Y-147168876D01*
X105611409Y-146978400D01*
X105420933Y-146692685D01*
X105325695Y-146597447D01*
D12*
X77754266Y-114406971D02*
X75087600Y-114406971D01*
X75087600Y-118597447D02*
X75087600Y-110597447D01*
X78897123Y-110597447D01*
X83087600Y-118597447D02*
X82325695Y-118216495D01*
X81944742Y-117454590D01*
X81944742Y-110597447D01*
X89563790Y-118597447D02*
X89563790Y-114406971D01*
X89182838Y-113645066D01*
X88420933Y-113264114D01*
X86897123Y-113264114D01*
X86135219Y-113645066D01*
X89563790Y-118216495D02*
X88801885Y-118597447D01*
X86897123Y-118597447D01*
X86135219Y-118216495D01*
X85754266Y-117454590D01*
X85754266Y-116692685D01*
X86135219Y-115930780D01*
X86897123Y-115549828D01*
X88801885Y-115549828D01*
X89563790Y-115168876D01*
X92230457Y-113264114D02*
X95278076Y-113264114D01*
X93373314Y-110597447D02*
X93373314Y-117454590D01*
X93754266Y-118216495D01*
X94516171Y-118597447D01*
X95278076Y-118597447D01*
X97944742Y-118597447D02*
X97944742Y-110597447D01*
X97944742Y-113645066D02*
X98706647Y-113264114D01*
X100230457Y-113264114D01*
X100992361Y-113645066D01*
X101373314Y-114026019D01*
X101754266Y-114787923D01*
X101754266Y-117073638D01*
X101373314Y-117835542D01*
X100992361Y-118216495D01*
X100230457Y-118597447D01*
X98706647Y-118597447D01*
X97944742Y-118216495D01*
X106325695Y-118597447D02*
X105563790Y-118216495D01*
X105182838Y-117835542D01*
X104801885Y-117073638D01*
X104801885Y-114787923D01*
X105182838Y-114026019D01*
X105563790Y-113645066D01*
X106325695Y-113264114D01*
X107468552Y-113264114D01*
X108230457Y-113645066D01*
X108611409Y-114026019D01*
X108992361Y-114787923D01*
X108992361Y-117073638D01*
X108611409Y-117835542D01*
X108230457Y-118216495D01*
X107468552Y-118597447D01*
X106325695Y-118597447D01*
X111659028Y-118597447D02*
X115849504Y-113264114D01*
X111659028Y-113264114D02*
X115849504Y-118597447D01*
D13*
X101074266Y-62298161D02*
X101217123Y-62345780D01*
X101455219Y-62345780D01*
X101550457Y-62298161D01*
X101598076Y-62250542D01*
X101645695Y-62155304D01*
X101645695Y-62060066D01*
X101598076Y-61964828D01*
X101550457Y-61917209D01*
X101455219Y-61869590D01*
X101264742Y-61821971D01*
X101169504Y-61774352D01*
X101121885Y-61726733D01*
X101074266Y-61631495D01*
X101074266Y-61536257D01*
X101121885Y-61441019D01*
X101169504Y-61393400D01*
X101264742Y-61345780D01*
X101502838Y-61345780D01*
X101645695Y-61393400D01*
X101979028Y-61345780D02*
X102217123Y-62345780D01*
X102407600Y-61631495D01*
X102598076Y-62345780D01*
X102836171Y-61345780D01*
X103359980Y-61774352D02*
X103264742Y-61726733D01*
X103217123Y-61679114D01*
X103169504Y-61583876D01*
X103169504Y-61536257D01*
X103217123Y-61441019D01*
X103264742Y-61393400D01*
X103359980Y-61345780D01*
X103550457Y-61345780D01*
X103645695Y-61393400D01*
X103693314Y-61441019D01*
X103740933Y-61536257D01*
X103740933Y-61583876D01*
X103693314Y-61679114D01*
X103645695Y-61726733D01*
X103550457Y-61774352D01*
X103359980Y-61774352D01*
X103264742Y-61821971D01*
X103217123Y-61869590D01*
X103169504Y-61964828D01*
X103169504Y-62155304D01*
X103217123Y-62250542D01*
X103264742Y-62298161D01*
X103359980Y-62345780D01*
X103550457Y-62345780D01*
X103645695Y-62298161D01*
X103693314Y-62250542D01*
X103740933Y-62155304D01*
X103740933Y-61964828D01*
X103693314Y-61869590D01*
X103645695Y-61821971D01*
X103550457Y-61774352D01*
X127674266Y-73648161D02*
X127817123Y-73695780D01*
X128055219Y-73695780D01*
X128150457Y-73648161D01*
X128198076Y-73600542D01*
X128245695Y-73505304D01*
X128245695Y-73410066D01*
X128198076Y-73314828D01*
X128150457Y-73267209D01*
X128055219Y-73219590D01*
X127864742Y-73171971D01*
X127769504Y-73124352D01*
X127721885Y-73076733D01*
X127674266Y-72981495D01*
X127674266Y-72886257D01*
X127721885Y-72791019D01*
X127769504Y-72743400D01*
X127864742Y-72695780D01*
X128102838Y-72695780D01*
X128245695Y-72743400D01*
X128579028Y-72695780D02*
X128817123Y-73695780D01*
X129007600Y-72981495D01*
X129198076Y-73695780D01*
X129436171Y-72695780D01*
X129864742Y-73695780D02*
X130055219Y-73695780D01*
X130150457Y-73648161D01*
X130198076Y-73600542D01*
X130293314Y-73457685D01*
X130340933Y-73267209D01*
X130340933Y-72886257D01*
X130293314Y-72791019D01*
X130245695Y-72743400D01*
X130150457Y-72695780D01*
X129959980Y-72695780D01*
X129864742Y-72743400D01*
X129817123Y-72791019D01*
X129769504Y-72886257D01*
X129769504Y-73124352D01*
X129817123Y-73219590D01*
X129864742Y-73267209D01*
X129959980Y-73314828D01*
X130150457Y-73314828D01*
X130245695Y-73267209D01*
X130293314Y-73219590D01*
X130340933Y-73124352D01*
X144698076Y-126748161D02*
X144840933Y-126795780D01*
X145079028Y-126795780D01*
X145174266Y-126748161D01*
X145221885Y-126700542D01*
X145269504Y-126605304D01*
X145269504Y-126510066D01*
X145221885Y-126414828D01*
X145174266Y-126367209D01*
X145079028Y-126319590D01*
X144888552Y-126271971D01*
X144793314Y-126224352D01*
X144745695Y-126176733D01*
X144698076Y-126081495D01*
X144698076Y-125986257D01*
X144745695Y-125891019D01*
X144793314Y-125843400D01*
X144888552Y-125795780D01*
X145126647Y-125795780D01*
X145269504Y-125843400D01*
X145602838Y-125795780D02*
X145840933Y-126795780D01*
X146031409Y-126081495D01*
X146221885Y-126795780D01*
X146459980Y-125795780D01*
X147364742Y-126795780D02*
X146793314Y-126795780D01*
X147079028Y-126795780D02*
X147079028Y-125795780D01*
X146983790Y-125938638D01*
X146888552Y-126033876D01*
X146793314Y-126081495D01*
X147936171Y-126224352D02*
X147840933Y-126176733D01*
X147793314Y-126129114D01*
X147745695Y-126033876D01*
X147745695Y-125986257D01*
X147793314Y-125891019D01*
X147840933Y-125843400D01*
X147936171Y-125795780D01*
X148126647Y-125795780D01*
X148221885Y-125843400D01*
X148269504Y-125891019D01*
X148317123Y-125986257D01*
X148317123Y-126033876D01*
X148269504Y-126129114D01*
X148221885Y-126176733D01*
X148126647Y-126224352D01*
X147936171Y-126224352D01*
X147840933Y-126271971D01*
X147793314Y-126319590D01*
X147745695Y-126414828D01*
X147745695Y-126605304D01*
X147793314Y-126700542D01*
X147840933Y-126748161D01*
X147936171Y-126795780D01*
X148126647Y-126795780D01*
X148221885Y-126748161D01*
X148269504Y-126700542D01*
X148317123Y-126605304D01*
X148317123Y-126414828D01*
X148269504Y-126319590D01*
X148221885Y-126271971D01*
X148126647Y-126224352D01*
X162138076Y-62238161D02*
X162280933Y-62285780D01*
X162519028Y-62285780D01*
X162614266Y-62238161D01*
X162661885Y-62190542D01*
X162709504Y-62095304D01*
X162709504Y-62000066D01*
X162661885Y-61904828D01*
X162614266Y-61857209D01*
X162519028Y-61809590D01*
X162328552Y-61761971D01*
X162233314Y-61714352D01*
X162185695Y-61666733D01*
X162138076Y-61571495D01*
X162138076Y-61476257D01*
X162185695Y-61381019D01*
X162233314Y-61333400D01*
X162328552Y-61285780D01*
X162566647Y-61285780D01*
X162709504Y-61333400D01*
X163042838Y-61285780D02*
X163280933Y-62285780D01*
X163471409Y-61571495D01*
X163661885Y-62285780D01*
X163899980Y-61285780D01*
X164804742Y-62285780D02*
X164233314Y-62285780D01*
X164519028Y-62285780D02*
X164519028Y-61285780D01*
X164423790Y-61428638D01*
X164328552Y-61523876D01*
X164233314Y-61571495D01*
X165423790Y-61285780D02*
X165519028Y-61285780D01*
X165614266Y-61333400D01*
X165661885Y-61381019D01*
X165709504Y-61476257D01*
X165757123Y-61666733D01*
X165757123Y-61904828D01*
X165709504Y-62095304D01*
X165661885Y-62190542D01*
X165614266Y-62238161D01*
X165519028Y-62285780D01*
X165423790Y-62285780D01*
X165328552Y-62238161D01*
X165280933Y-62190542D01*
X165233314Y-62095304D01*
X165185695Y-61904828D01*
X165185695Y-61666733D01*
X165233314Y-61476257D01*
X165280933Y-61381019D01*
X165328552Y-61333400D01*
X165423790Y-61285780D01*
X188698076Y-50708161D02*
X188840933Y-50755780D01*
X189079028Y-50755780D01*
X189174266Y-50708161D01*
X189221885Y-50660542D01*
X189269504Y-50565304D01*
X189269504Y-50470066D01*
X189221885Y-50374828D01*
X189174266Y-50327209D01*
X189079028Y-50279590D01*
X188888552Y-50231971D01*
X188793314Y-50184352D01*
X188745695Y-50136733D01*
X188698076Y-50041495D01*
X188698076Y-49946257D01*
X188745695Y-49851019D01*
X188793314Y-49803400D01*
X188888552Y-49755780D01*
X189126647Y-49755780D01*
X189269504Y-49803400D01*
X189602838Y-49755780D02*
X189840933Y-50755780D01*
X190031409Y-50041495D01*
X190221885Y-50755780D01*
X190459980Y-49755780D01*
X191364742Y-50755780D02*
X190793314Y-50755780D01*
X191079028Y-50755780D02*
X191079028Y-49755780D01*
X190983790Y-49898638D01*
X190888552Y-49993876D01*
X190793314Y-50041495D01*
X192317123Y-50755780D02*
X191745695Y-50755780D01*
X192031409Y-50755780D02*
X192031409Y-49755780D01*
X191936171Y-49898638D01*
X191840933Y-49993876D01*
X191745695Y-50041495D01*
X217668076Y-50588161D02*
X217810933Y-50635780D01*
X218049028Y-50635780D01*
X218144266Y-50588161D01*
X218191885Y-50540542D01*
X218239504Y-50445304D01*
X218239504Y-50350066D01*
X218191885Y-50254828D01*
X218144266Y-50207209D01*
X218049028Y-50159590D01*
X217858552Y-50111971D01*
X217763314Y-50064352D01*
X217715695Y-50016733D01*
X217668076Y-49921495D01*
X217668076Y-49826257D01*
X217715695Y-49731019D01*
X217763314Y-49683400D01*
X217858552Y-49635780D01*
X218096647Y-49635780D01*
X218239504Y-49683400D01*
X218572838Y-49635780D02*
X218810933Y-50635780D01*
X219001409Y-49921495D01*
X219191885Y-50635780D01*
X219429980Y-49635780D01*
X220334742Y-50635780D02*
X219763314Y-50635780D01*
X220049028Y-50635780D02*
X220049028Y-49635780D01*
X219953790Y-49778638D01*
X219858552Y-49873876D01*
X219763314Y-49921495D01*
X220715695Y-49731019D02*
X220763314Y-49683400D01*
X220858552Y-49635780D01*
X221096647Y-49635780D01*
X221191885Y-49683400D01*
X221239504Y-49731019D01*
X221287123Y-49826257D01*
X221287123Y-49921495D01*
X221239504Y-50064352D01*
X220668076Y-50635780D01*
X221287123Y-50635780D01*
X246638076Y-50828161D02*
X246780933Y-50875780D01*
X247019028Y-50875780D01*
X247114266Y-50828161D01*
X247161885Y-50780542D01*
X247209504Y-50685304D01*
X247209504Y-50590066D01*
X247161885Y-50494828D01*
X247114266Y-50447209D01*
X247019028Y-50399590D01*
X246828552Y-50351971D01*
X246733314Y-50304352D01*
X246685695Y-50256733D01*
X246638076Y-50161495D01*
X246638076Y-50066257D01*
X246685695Y-49971019D01*
X246733314Y-49923400D01*
X246828552Y-49875780D01*
X247066647Y-49875780D01*
X247209504Y-49923400D01*
X247542838Y-49875780D02*
X247780933Y-50875780D01*
X247971409Y-50161495D01*
X248161885Y-50875780D01*
X248399980Y-49875780D01*
X249304742Y-50875780D02*
X248733314Y-50875780D01*
X249019028Y-50875780D02*
X249019028Y-49875780D01*
X248923790Y-50018638D01*
X248828552Y-50113876D01*
X248733314Y-50161495D01*
X249638076Y-49875780D02*
X250257123Y-49875780D01*
X249923790Y-50256733D01*
X250066647Y-50256733D01*
X250161885Y-50304352D01*
X250209504Y-50351971D01*
X250257123Y-50447209D01*
X250257123Y-50685304D01*
X250209504Y-50780542D01*
X250161885Y-50828161D01*
X250066647Y-50875780D01*
X249780933Y-50875780D01*
X249685695Y-50828161D01*
X249638076Y-50780542D01*
X156528076Y-93278161D02*
X156670933Y-93325780D01*
X156909028Y-93325780D01*
X157004266Y-93278161D01*
X157051885Y-93230542D01*
X157099504Y-93135304D01*
X157099504Y-93040066D01*
X157051885Y-92944828D01*
X157004266Y-92897209D01*
X156909028Y-92849590D01*
X156718552Y-92801971D01*
X156623314Y-92754352D01*
X156575695Y-92706733D01*
X156528076Y-92611495D01*
X156528076Y-92516257D01*
X156575695Y-92421019D01*
X156623314Y-92373400D01*
X156718552Y-92325780D01*
X156956647Y-92325780D01*
X157099504Y-92373400D01*
X157432838Y-92325780D02*
X157670933Y-93325780D01*
X157861409Y-92611495D01*
X158051885Y-93325780D01*
X158289980Y-92325780D01*
X159194742Y-93325780D02*
X158623314Y-93325780D01*
X158909028Y-93325780D02*
X158909028Y-92325780D01*
X158813790Y-92468638D01*
X158718552Y-92563876D01*
X158623314Y-92611495D01*
X160051885Y-92659114D02*
X160051885Y-93325780D01*
X159813790Y-92278161D02*
X159575695Y-92992447D01*
X160194742Y-92992447D01*
X183138076Y-82168161D02*
X183280933Y-82215780D01*
X183519028Y-82215780D01*
X183614266Y-82168161D01*
X183661885Y-82120542D01*
X183709504Y-82025304D01*
X183709504Y-81930066D01*
X183661885Y-81834828D01*
X183614266Y-81787209D01*
X183519028Y-81739590D01*
X183328552Y-81691971D01*
X183233314Y-81644352D01*
X183185695Y-81596733D01*
X183138076Y-81501495D01*
X183138076Y-81406257D01*
X183185695Y-81311019D01*
X183233314Y-81263400D01*
X183328552Y-81215780D01*
X183566647Y-81215780D01*
X183709504Y-81263400D01*
X184042838Y-81215780D02*
X184280933Y-82215780D01*
X184471409Y-81501495D01*
X184661885Y-82215780D01*
X184899980Y-81215780D01*
X185804742Y-82215780D02*
X185233314Y-82215780D01*
X185519028Y-82215780D02*
X185519028Y-81215780D01*
X185423790Y-81358638D01*
X185328552Y-81453876D01*
X185233314Y-81501495D01*
X186709504Y-81215780D02*
X186233314Y-81215780D01*
X186185695Y-81691971D01*
X186233314Y-81644352D01*
X186328552Y-81596733D01*
X186566647Y-81596733D01*
X186661885Y-81644352D01*
X186709504Y-81691971D01*
X186757123Y-81787209D01*
X186757123Y-82025304D01*
X186709504Y-82120542D01*
X186661885Y-82168161D01*
X186566647Y-82215780D01*
X186328552Y-82215780D01*
X186233314Y-82168161D01*
X186185695Y-82120542D01*
X211988076Y-82168161D02*
X212130933Y-82215780D01*
X212369028Y-82215780D01*
X212464266Y-82168161D01*
X212511885Y-82120542D01*
X212559504Y-82025304D01*
X212559504Y-81930066D01*
X212511885Y-81834828D01*
X212464266Y-81787209D01*
X212369028Y-81739590D01*
X212178552Y-81691971D01*
X212083314Y-81644352D01*
X212035695Y-81596733D01*
X211988076Y-81501495D01*
X211988076Y-81406257D01*
X212035695Y-81311019D01*
X212083314Y-81263400D01*
X212178552Y-81215780D01*
X212416647Y-81215780D01*
X212559504Y-81263400D01*
X212892838Y-81215780D02*
X213130933Y-82215780D01*
X213321409Y-81501495D01*
X213511885Y-82215780D01*
X213749980Y-81215780D01*
X214654742Y-82215780D02*
X214083314Y-82215780D01*
X214369028Y-82215780D02*
X214369028Y-81215780D01*
X214273790Y-81358638D01*
X214178552Y-81453876D01*
X214083314Y-81501495D01*
X215511885Y-81215780D02*
X215321409Y-81215780D01*
X215226171Y-81263400D01*
X215178552Y-81311019D01*
X215083314Y-81453876D01*
X215035695Y-81644352D01*
X215035695Y-82025304D01*
X215083314Y-82120542D01*
X215130933Y-82168161D01*
X215226171Y-82215780D01*
X215416647Y-82215780D01*
X215511885Y-82168161D01*
X215559504Y-82120542D01*
X215607123Y-82025304D01*
X215607123Y-81787209D01*
X215559504Y-81691971D01*
X215511885Y-81644352D01*
X215416647Y-81596733D01*
X215226171Y-81596733D01*
X215130933Y-81644352D01*
X215083314Y-81691971D01*
X215035695Y-81787209D01*
X241198076Y-82168161D02*
X241340933Y-82215780D01*
X241579028Y-82215780D01*
X241674266Y-82168161D01*
X241721885Y-82120542D01*
X241769504Y-82025304D01*
X241769504Y-81930066D01*
X241721885Y-81834828D01*
X241674266Y-81787209D01*
X241579028Y-81739590D01*
X241388552Y-81691971D01*
X241293314Y-81644352D01*
X241245695Y-81596733D01*
X241198076Y-81501495D01*
X241198076Y-81406257D01*
X241245695Y-81311019D01*
X241293314Y-81263400D01*
X241388552Y-81215780D01*
X241626647Y-81215780D01*
X241769504Y-81263400D01*
X242102838Y-81215780D02*
X242340933Y-82215780D01*
X242531409Y-81501495D01*
X242721885Y-82215780D01*
X242959980Y-81215780D01*
X243864742Y-82215780D02*
X243293314Y-82215780D01*
X243579028Y-82215780D02*
X243579028Y-81215780D01*
X243483790Y-81358638D01*
X243388552Y-81453876D01*
X243293314Y-81501495D01*
X244198076Y-81215780D02*
X244864742Y-81215780D01*
X244436171Y-82215780D01*
X71979266Y-62178161D02*
X72122123Y-62225780D01*
X72360219Y-62225780D01*
X72455457Y-62178161D01*
X72503076Y-62130542D01*
X72550695Y-62035304D01*
X72550695Y-61940066D01*
X72503076Y-61844828D01*
X72455457Y-61797209D01*
X72360219Y-61749590D01*
X72169742Y-61701971D01*
X72074504Y-61654352D01*
X72026885Y-61606733D01*
X71979266Y-61511495D01*
X71979266Y-61416257D01*
X72026885Y-61321019D01*
X72074504Y-61273400D01*
X72169742Y-61225780D01*
X72407838Y-61225780D01*
X72550695Y-61273400D01*
X72884028Y-61225780D02*
X73122123Y-62225780D01*
X73312600Y-61511495D01*
X73503076Y-62225780D01*
X73741171Y-61225780D01*
X74026885Y-61225780D02*
X74693552Y-61225780D01*
X74264980Y-62225780D01*
X101992361Y-46061733D02*
X102039980Y-45918876D01*
X102039980Y-45680780D01*
X101992361Y-45585542D01*
X101944742Y-45537923D01*
X101849504Y-45490304D01*
X101754266Y-45490304D01*
X101659028Y-45537923D01*
X101611409Y-45585542D01*
X101563790Y-45680780D01*
X101516171Y-45871257D01*
X101468552Y-45966495D01*
X101420933Y-46014114D01*
X101325695Y-46061733D01*
X101230457Y-46061733D01*
X101135219Y-46014114D01*
X101087600Y-45966495D01*
X101039980Y-45871257D01*
X101039980Y-45633161D01*
X101087600Y-45490304D01*
X101039980Y-45156971D02*
X102039980Y-44918876D01*
X101325695Y-44728400D01*
X102039980Y-44537923D01*
X101039980Y-44299828D01*
X101373314Y-43490304D02*
X102039980Y-43490304D01*
X100992361Y-43728400D02*
X101706647Y-43966495D01*
X101706647Y-43347447D01*
X78992361Y-46061733D02*
X79039980Y-45918876D01*
X79039980Y-45680780D01*
X78992361Y-45585542D01*
X78944742Y-45537923D01*
X78849504Y-45490304D01*
X78754266Y-45490304D01*
X78659028Y-45537923D01*
X78611409Y-45585542D01*
X78563790Y-45680780D01*
X78516171Y-45871257D01*
X78468552Y-45966495D01*
X78420933Y-46014114D01*
X78325695Y-46061733D01*
X78230457Y-46061733D01*
X78135219Y-46014114D01*
X78087600Y-45966495D01*
X78039980Y-45871257D01*
X78039980Y-45633161D01*
X78087600Y-45490304D01*
X78039980Y-45156971D02*
X79039980Y-44918876D01*
X78325695Y-44728400D01*
X79039980Y-44537923D01*
X78039980Y-44299828D01*
X78135219Y-43966495D02*
X78087600Y-43918876D01*
X78039980Y-43823638D01*
X78039980Y-43585542D01*
X78087600Y-43490304D01*
X78135219Y-43442685D01*
X78230457Y-43395066D01*
X78325695Y-43395066D01*
X78468552Y-43442685D01*
X79039980Y-44014114D01*
X79039980Y-43395066D01*
X111992361Y-46061733D02*
X112039980Y-45918876D01*
X112039980Y-45680780D01*
X111992361Y-45585542D01*
X111944742Y-45537923D01*
X111849504Y-45490304D01*
X111754266Y-45490304D01*
X111659028Y-45537923D01*
X111611409Y-45585542D01*
X111563790Y-45680780D01*
X111516171Y-45871257D01*
X111468552Y-45966495D01*
X111420933Y-46014114D01*
X111325695Y-46061733D01*
X111230457Y-46061733D01*
X111135219Y-46014114D01*
X111087600Y-45966495D01*
X111039980Y-45871257D01*
X111039980Y-45633161D01*
X111087600Y-45490304D01*
X111039980Y-45156971D02*
X112039980Y-44918876D01*
X111325695Y-44728400D01*
X112039980Y-44537923D01*
X111039980Y-44299828D01*
X111039980Y-43442685D02*
X111039980Y-43918876D01*
X111516171Y-43966495D01*
X111468552Y-43918876D01*
X111420933Y-43823638D01*
X111420933Y-43585542D01*
X111468552Y-43490304D01*
X111516171Y-43442685D01*
X111611409Y-43395066D01*
X111849504Y-43395066D01*
X111944742Y-43442685D01*
X111992361Y-43490304D01*
X112039980Y-43585542D01*
X112039980Y-43823638D01*
X111992361Y-43918876D01*
X111944742Y-43966495D01*
X51854266Y-86028161D02*
X51997123Y-86075780D01*
X52235219Y-86075780D01*
X52330457Y-86028161D01*
X52378076Y-85980542D01*
X52425695Y-85885304D01*
X52425695Y-85790066D01*
X52378076Y-85694828D01*
X52330457Y-85647209D01*
X52235219Y-85599590D01*
X52044742Y-85551971D01*
X51949504Y-85504352D01*
X51901885Y-85456733D01*
X51854266Y-85361495D01*
X51854266Y-85266257D01*
X51901885Y-85171019D01*
X51949504Y-85123400D01*
X52044742Y-85075780D01*
X52282838Y-85075780D01*
X52425695Y-85123400D01*
X52759028Y-85075780D02*
X52997123Y-86075780D01*
X53187600Y-85361495D01*
X53378076Y-86075780D01*
X53616171Y-85075780D01*
X54520933Y-86075780D02*
X53949504Y-86075780D01*
X54235219Y-86075780D02*
X54235219Y-85075780D01*
X54139980Y-85218638D01*
X54044742Y-85313876D01*
X53949504Y-85361495D01*
X88992361Y-46061733D02*
X89039980Y-45918876D01*
X89039980Y-45680780D01*
X88992361Y-45585542D01*
X88944742Y-45537923D01*
X88849504Y-45490304D01*
X88754266Y-45490304D01*
X88659028Y-45537923D01*
X88611409Y-45585542D01*
X88563790Y-45680780D01*
X88516171Y-45871257D01*
X88468552Y-45966495D01*
X88420933Y-46014114D01*
X88325695Y-46061733D01*
X88230457Y-46061733D01*
X88135219Y-46014114D01*
X88087600Y-45966495D01*
X88039980Y-45871257D01*
X88039980Y-45633161D01*
X88087600Y-45490304D01*
X88039980Y-45156971D02*
X89039980Y-44918876D01*
X88325695Y-44728400D01*
X89039980Y-44537923D01*
X88039980Y-44299828D01*
X88039980Y-44014114D02*
X88039980Y-43395066D01*
X88420933Y-43728400D01*
X88420933Y-43585542D01*
X88468552Y-43490304D01*
X88516171Y-43442685D01*
X88611409Y-43395066D01*
X88849504Y-43395066D01*
X88944742Y-43442685D01*
X88992361Y-43490304D01*
X89039980Y-43585542D01*
X89039980Y-43871257D01*
X88992361Y-43966495D01*
X88944742Y-44014114D01*
X121992361Y-46061733D02*
X122039980Y-45918876D01*
X122039980Y-45680780D01*
X121992361Y-45585542D01*
X121944742Y-45537923D01*
X121849504Y-45490304D01*
X121754266Y-45490304D01*
X121659028Y-45537923D01*
X121611409Y-45585542D01*
X121563790Y-45680780D01*
X121516171Y-45871257D01*
X121468552Y-45966495D01*
X121420933Y-46014114D01*
X121325695Y-46061733D01*
X121230457Y-46061733D01*
X121135219Y-46014114D01*
X121087600Y-45966495D01*
X121039980Y-45871257D01*
X121039980Y-45633161D01*
X121087600Y-45490304D01*
X121039980Y-45156971D02*
X122039980Y-44918876D01*
X121325695Y-44728400D01*
X122039980Y-44537923D01*
X121039980Y-44299828D01*
X121039980Y-43490304D02*
X121039980Y-43680780D01*
X121087600Y-43776019D01*
X121135219Y-43823638D01*
X121278076Y-43918876D01*
X121468552Y-43966495D01*
X121849504Y-43966495D01*
X121944742Y-43918876D01*
X121992361Y-43871257D01*
X122039980Y-43776019D01*
X122039980Y-43585542D01*
X121992361Y-43490304D01*
X121944742Y-43442685D01*
X121849504Y-43395066D01*
X121611409Y-43395066D01*
X121516171Y-43442685D01*
X121468552Y-43490304D01*
X121420933Y-43585542D01*
X121420933Y-43776019D01*
X121468552Y-43871257D01*
X121516171Y-43918876D01*
X121611409Y-43966495D01*
X109407600Y-63148400D02*
X109407600Y-64148400D01*
X95407600Y-64148400D02*
X95407600Y-63148400D01*
X95407600Y-77148400D02*
X96407600Y-77148400D01*
X108407600Y-77148400D02*
X109407600Y-77148400D01*
X109407600Y-63148400D02*
X108407600Y-63148400D01*
X109407600Y-76148400D02*
X109407600Y-77148400D01*
X96407600Y-63148400D02*
X95407600Y-63148400D01*
X95407600Y-77148400D02*
X95407600Y-76148400D01*
X136007600Y-74498400D02*
X136007600Y-75498400D01*
X135007600Y-88498400D02*
X136007600Y-88498400D01*
X122007600Y-88498400D02*
X122007600Y-87498400D01*
X136007600Y-74498400D02*
X135007600Y-74498400D01*
X123007600Y-74498400D02*
X122007600Y-74498400D01*
X136007600Y-87498400D02*
X136007600Y-88498400D01*
X122007600Y-75498400D02*
X122007600Y-74498400D01*
X122007600Y-88498400D02*
X123007600Y-88498400D01*
X153507600Y-140598400D02*
X153507600Y-141598400D01*
X140507600Y-127598400D02*
X139507600Y-127598400D01*
X153507600Y-127598400D02*
X153507600Y-128598400D01*
X139507600Y-128598400D02*
X139507600Y-127598400D01*
X139507600Y-141598400D02*
X139507600Y-140598400D01*
X139507600Y-141598400D02*
X140507600Y-141598400D01*
X153507600Y-127598400D02*
X152507600Y-127598400D01*
X152507600Y-141598400D02*
X153507600Y-141598400D01*
X170947600Y-63088400D02*
X170947600Y-64088400D01*
X156947600Y-77088400D02*
X157947600Y-77088400D01*
X156947600Y-64088400D02*
X156947600Y-63088400D01*
X157947600Y-63088400D02*
X156947600Y-63088400D01*
X156947600Y-77088400D02*
X156947600Y-76088400D01*
X170947600Y-76088400D02*
X170947600Y-77088400D01*
X170947600Y-63088400D02*
X169947600Y-63088400D01*
X169947600Y-77088400D02*
X170947600Y-77088400D01*
X184507600Y-51558400D02*
X183507600Y-51558400D01*
X197507600Y-51558400D02*
X197507600Y-52558400D01*
X183507600Y-65558400D02*
X183507600Y-64558400D01*
X183507600Y-65558400D02*
X184507600Y-65558400D01*
X197507600Y-64558400D02*
X197507600Y-65558400D01*
X196507600Y-65558400D02*
X197507600Y-65558400D01*
X197507600Y-51558400D02*
X196507600Y-51558400D01*
X183507600Y-52558400D02*
X183507600Y-51558400D01*
X226477600Y-51438400D02*
X226477600Y-52438400D01*
X213477600Y-51438400D02*
X212477600Y-51438400D01*
X226477600Y-64438400D02*
X226477600Y-65438400D01*
X225477600Y-65438400D02*
X226477600Y-65438400D01*
X212477600Y-52438400D02*
X212477600Y-51438400D01*
X212477600Y-65438400D02*
X213477600Y-65438400D01*
X226477600Y-51438400D02*
X225477600Y-51438400D01*
X212477600Y-65438400D02*
X212477600Y-64438400D01*
X255447600Y-64678400D02*
X255447600Y-65678400D01*
X241447600Y-52678400D02*
X241447600Y-51678400D01*
X241447600Y-65678400D02*
X241447600Y-64678400D01*
X255447600Y-51678400D02*
X254447600Y-51678400D01*
X241447600Y-65678400D02*
X242447600Y-65678400D01*
X255447600Y-51678400D02*
X255447600Y-52678400D01*
X254447600Y-65678400D02*
X255447600Y-65678400D01*
X242447600Y-51678400D02*
X241447600Y-51678400D01*
X165337600Y-94128400D02*
X164337600Y-94128400D01*
X165337600Y-107128400D02*
X165337600Y-108128400D01*
X151337600Y-108128400D02*
X152337600Y-108128400D01*
X165337600Y-94128400D02*
X165337600Y-95128400D01*
X151337600Y-108128400D02*
X151337600Y-107128400D01*
X164337600Y-108128400D02*
X165337600Y-108128400D01*
X152337600Y-94128400D02*
X151337600Y-94128400D01*
X151337600Y-95128400D02*
X151337600Y-94128400D01*
X191947600Y-83018400D02*
X190947600Y-83018400D01*
X177947600Y-97018400D02*
X177947600Y-96018400D01*
X178947600Y-83018400D02*
X177947600Y-83018400D01*
X190947600Y-97018400D02*
X191947600Y-97018400D01*
X191947600Y-96018400D02*
X191947600Y-97018400D01*
X191947600Y-83018400D02*
X191947600Y-84018400D01*
X177947600Y-84018400D02*
X177947600Y-83018400D01*
X177947600Y-97018400D02*
X178947600Y-97018400D01*
X220797600Y-96018400D02*
X220797600Y-97018400D01*
X220797600Y-83018400D02*
X219797600Y-83018400D01*
X207797600Y-83018400D02*
X206797600Y-83018400D01*
X220797600Y-83018400D02*
X220797600Y-84018400D01*
X206797600Y-97018400D02*
X206797600Y-96018400D01*
X206797600Y-84018400D02*
X206797600Y-83018400D01*
X206797600Y-97018400D02*
X207797600Y-97018400D01*
X219797600Y-97018400D02*
X220797600Y-97018400D01*
X250007600Y-83018400D02*
X250007600Y-84018400D01*
X237007600Y-83018400D02*
X236007600Y-83018400D01*
X236007600Y-97018400D02*
X236007600Y-96018400D01*
X250007600Y-96018400D02*
X250007600Y-97018400D01*
X236007600Y-84018400D02*
X236007600Y-83018400D01*
X236007600Y-97018400D02*
X237007600Y-97018400D01*
X250007600Y-83018400D02*
X249007600Y-83018400D01*
X249007600Y-97018400D02*
X250007600Y-97018400D01*
X80312600Y-63028400D02*
X80312600Y-64028400D01*
X66312600Y-64028400D02*
X66312600Y-63028400D01*
X67312600Y-63028400D02*
X66312600Y-63028400D01*
X66312600Y-77028400D02*
X67312600Y-77028400D01*
X80312600Y-63028400D02*
X79312600Y-63028400D01*
X80312600Y-76028400D02*
X80312600Y-77028400D01*
X66312600Y-77028400D02*
X66312600Y-76028400D01*
X79312600Y-77028400D02*
X80312600Y-77028400D01*
D14*
X106587600Y-41228400D02*
X105087600Y-41228400D01*
X109087600Y-46978400D02*
X109087600Y-42478400D01*
X102587600Y-42478400D02*
X102587600Y-46978400D01*
X105087600Y-48228400D02*
X106587600Y-48228400D01*
X79587600Y-42478400D02*
X79587600Y-46978400D01*
X83587600Y-41228400D02*
X82087600Y-41228400D01*
X86087600Y-46978400D02*
X86087600Y-42478400D01*
X82087600Y-48228400D02*
X83587600Y-48228400D01*
X116587600Y-41228400D02*
X115087600Y-41228400D01*
X112587600Y-42478400D02*
X112587600Y-46978400D01*
X119087600Y-46978400D02*
X119087600Y-42478400D01*
X115087600Y-48228400D02*
X116587600Y-48228400D01*
D13*
X47187600Y-86878400D02*
X46187600Y-86878400D01*
X60187600Y-86878400D02*
X59187600Y-86878400D01*
X46187600Y-87878400D02*
X46187600Y-86878400D01*
X60187600Y-86878400D02*
X60187600Y-87878400D01*
X46187600Y-100878400D02*
X47187600Y-100878400D01*
X46187600Y-100878400D02*
X46187600Y-99878400D01*
X60187600Y-99878400D02*
X60187600Y-100878400D01*
X59187600Y-100878400D02*
X60187600Y-100878400D01*
D14*
X92087600Y-48228400D02*
X93587600Y-48228400D01*
X96087600Y-46978400D02*
X96087600Y-42478400D01*
X89587600Y-42478400D02*
X89587600Y-46978400D01*
X93587600Y-41228400D02*
X92087600Y-41228400D01*
X126587600Y-41228400D02*
X125087600Y-41228400D01*
X125087600Y-48228400D02*
X126587600Y-48228400D01*
X129087600Y-46978400D02*
X129087600Y-42478400D01*
X122587600Y-42478400D02*
X122587600Y-46978400D01*
D13*
X149977600Y-65468400D02*
X132197600Y-65468400D01*
X137277600Y-32448400D02*
X144897600Y-32448400D01*
X132197600Y-34988400D02*
X137277600Y-34988400D01*
X137277600Y-34988400D02*
X137277600Y-32448400D01*
X144897600Y-34988400D02*
X149977600Y-34988400D01*
X149977600Y-34988400D02*
X149977600Y-65468400D01*
X144897600Y-32448400D02*
X144897600Y-34988400D01*
X132197600Y-34988400D02*
X132197600Y-65468400D01*
D15*
X133467600Y-36258400D03*
D16*
X133467600Y-38798400D03*
X133467600Y-41338400D03*
X133467600Y-43878400D03*
X133467600Y-46418400D03*
X133467600Y-48958400D03*
X133467600Y-51498400D03*
X133467600Y-54038400D03*
X133467600Y-56578400D03*
X133467600Y-59118400D03*
X133467600Y-61658400D03*
X133467600Y-64198400D03*
X148707600Y-64198400D03*
X148707600Y-61658400D03*
X148707600Y-59118400D03*
X148707600Y-56578400D03*
X148707600Y-54038400D03*
X148707600Y-51498400D03*
X148707600Y-48958400D03*
X148707600Y-46418400D03*
X148707600Y-43878400D03*
X148707600Y-41338400D03*
X148707600Y-38798400D03*
X148707600Y-36258400D03*
%LPC*%
D17*
X102407600Y-64198400D03*
D18*
X96907600Y-70148400D03*
X107907600Y-70148400D03*
D17*
X107407600Y-66398400D03*
D19*
X102407600Y-70148400D03*
D20*
X102407600Y-76048400D03*
X97407600Y-73948400D03*
D18*
X134507600Y-81498400D03*
X123507600Y-81498400D03*
D17*
X129007600Y-75548400D03*
X134007600Y-77748400D03*
D19*
X129007600Y-81498400D03*
D20*
X129007600Y-87398400D03*
X124007600Y-85298400D03*
D17*
X146507600Y-128648400D03*
X151507600Y-130848400D03*
D18*
X152007600Y-134598400D03*
X141007600Y-134598400D03*
D19*
X146507600Y-134598400D03*
D20*
X146507600Y-140498400D03*
X141507600Y-138398400D03*
D18*
X158447600Y-70088400D03*
D19*
X163947600Y-70088400D03*
D17*
X168947600Y-66338400D03*
X163947600Y-64138400D03*
D18*
X169447600Y-70088400D03*
D20*
X163947600Y-75988400D03*
X158947600Y-73888400D03*
X185507600Y-62358400D03*
X190507600Y-64458400D03*
D17*
X195507600Y-54808400D03*
D19*
X190507600Y-58558400D03*
D17*
X190507600Y-52608400D03*
D18*
X196007600Y-58558400D03*
X185007600Y-58558400D03*
D17*
X219477600Y-52488400D03*
X224477600Y-54688400D03*
D18*
X213977600Y-58438400D03*
D19*
X219477600Y-58438400D03*
D18*
X224977600Y-58438400D03*
D20*
X219477600Y-64338400D03*
X214477600Y-62238400D03*
D17*
X253447600Y-54928400D03*
D19*
X248447600Y-58678400D03*
D18*
X253947600Y-58678400D03*
X242947600Y-58678400D03*
D17*
X248447600Y-52728400D03*
D20*
X248447600Y-64578400D03*
X243447600Y-62478400D03*
D19*
X158337600Y-101128400D03*
D17*
X158337600Y-95178400D03*
D18*
X152837600Y-101128400D03*
X163837600Y-101128400D03*
D17*
X163337600Y-97378400D03*
D20*
X158337600Y-107028400D03*
X153337600Y-104928400D03*
D17*
X189947600Y-86268400D03*
X184947600Y-84068400D03*
D18*
X179447600Y-90018400D03*
D19*
X184947600Y-90018400D03*
D18*
X190447600Y-90018400D03*
D20*
X184947600Y-95918400D03*
X179947600Y-93818400D03*
D19*
X213797600Y-90018400D03*
D17*
X218797600Y-86268400D03*
X213797600Y-84068400D03*
D18*
X208297600Y-90018400D03*
X219297600Y-90018400D03*
D20*
X213797600Y-95918400D03*
X208797600Y-93818400D03*
D17*
X243007600Y-84068400D03*
D18*
X248507600Y-90018400D03*
X237507600Y-90018400D03*
D17*
X248007600Y-86268400D03*
D19*
X243007600Y-90018400D03*
D20*
X243007600Y-95918400D03*
X238007600Y-93818400D03*
D21*
X38403134Y-41978400D03*
X38403134Y-147978400D03*
X258087600Y-147978400D03*
X258087600Y-41978400D03*
D18*
X67812600Y-70028400D03*
D17*
X78312600Y-66278400D03*
X73312600Y-64078400D03*
D18*
X78812600Y-70028400D03*
D19*
X73312600Y-70028400D03*
D20*
X73312600Y-75928400D03*
X68312600Y-73828400D03*
D21*
X160087600Y-41978400D03*
D22*
X103587600Y-41478400D03*
X103587600Y-47978400D03*
X108087600Y-41478400D03*
X108087600Y-47978400D03*
X80587600Y-41478400D03*
X80587600Y-47978400D03*
X85087600Y-47978400D03*
X85087600Y-41478400D03*
X113587600Y-41478400D03*
X113587600Y-47978400D03*
X118087600Y-47978400D03*
X118087600Y-41478400D03*
D17*
X53187600Y-87928400D03*
X58187600Y-90128400D03*
D19*
X53187600Y-93878400D03*
D18*
X47687600Y-93878400D03*
X58687600Y-93878400D03*
D20*
X53187600Y-99778400D03*
X48187600Y-97678400D03*
D22*
X90587600Y-47978400D03*
X90587600Y-41478400D03*
X95087600Y-41478400D03*
X95087600Y-47978400D03*
X123587600Y-41478400D03*
X123587600Y-47978400D03*
X128087600Y-41478400D03*
X128087600Y-47978400D03*
D21*
X148587600Y-82978400D03*
X165087600Y-147978400D03*
D15*
X133467600Y-36258400D03*
D16*
X133467600Y-38798400D03*
X133467600Y-41338400D03*
X133467600Y-43878400D03*
X133467600Y-46418400D03*
X133467600Y-48958400D03*
X133467600Y-51498400D03*
X133467600Y-54038400D03*
X133467600Y-56578400D03*
X133467600Y-59118400D03*
X133467600Y-61658400D03*
X133467600Y-64198400D03*
X148707600Y-64198400D03*
X148707600Y-61658400D03*
X148707600Y-59118400D03*
X148707600Y-56578400D03*
X148707600Y-54038400D03*
X148707600Y-51498400D03*
X148707600Y-48958400D03*
X148707600Y-46418400D03*
X148707600Y-43878400D03*
X148707600Y-41338400D03*
X148707600Y-38798400D03*
X148707600Y-36258400D03*
M02*
