%TF.GenerationSoftware,KiCad,Pcbnew,(6.0.7)*%
%TF.CreationDate,2022-08-15T09:33:02+10:00*%
%TF.ProjectId,Flatbox-rev1_1_a3,466c6174-626f-4782-9d72-6576315f315f,rev?*%
%TF.SameCoordinates,Original*%
%TF.FileFunction,Legend,Bot*%
%TF.FilePolarity,Positive*%
%FSLAX46Y46*%
G04 Gerber Fmt 4.6, Leading zero omitted, Abs format (unit mm)*
G04 Created by KiCad (PCBNEW (6.0.7)) date 2022-08-15 09:33:02*
%MOMM*%
%LPD*%
G01*
G04 APERTURE LIST*
%ADD10C,0.150000*%
%ADD11C,3.429000*%
%ADD12C,1.701800*%
%ADD13C,3.000000*%
%ADD14R,2.600000X2.600000*%
%ADD15C,2.032000*%
%ADD16C,6.400000*%
%ADD17C,2.000000*%
%ADD18R,1.600000X1.600000*%
%ADD19C,1.600000*%
G04 APERTURE END LIST*
D10*
X111458333Y-48994761D02*
X111315476Y-49042380D01*
X111077380Y-49042380D01*
X110982142Y-48994761D01*
X110934523Y-48947142D01*
X110886904Y-48851904D01*
X110886904Y-48756666D01*
X110934523Y-48661428D01*
X110982142Y-48613809D01*
X111077380Y-48566190D01*
X111267857Y-48518571D01*
X111363095Y-48470952D01*
X111410714Y-48423333D01*
X111458333Y-48328095D01*
X111458333Y-48232857D01*
X111410714Y-48137619D01*
X111363095Y-48090000D01*
X111267857Y-48042380D01*
X111029761Y-48042380D01*
X110886904Y-48090000D01*
X110553571Y-48042380D02*
X110315476Y-49042380D01*
X110125000Y-48328095D01*
X109934523Y-49042380D01*
X109696428Y-48042380D01*
X109172619Y-48470952D02*
X109267857Y-48423333D01*
X109315476Y-48375714D01*
X109363095Y-48280476D01*
X109363095Y-48232857D01*
X109315476Y-48137619D01*
X109267857Y-48090000D01*
X109172619Y-48042380D01*
X108982142Y-48042380D01*
X108886904Y-48090000D01*
X108839285Y-48137619D01*
X108791666Y-48232857D01*
X108791666Y-48280476D01*
X108839285Y-48375714D01*
X108886904Y-48423333D01*
X108982142Y-48470952D01*
X109172619Y-48470952D01*
X109267857Y-48518571D01*
X109315476Y-48566190D01*
X109363095Y-48661428D01*
X109363095Y-48851904D01*
X109315476Y-48947142D01*
X109267857Y-48994761D01*
X109172619Y-49042380D01*
X108982142Y-49042380D01*
X108886904Y-48994761D01*
X108839285Y-48947142D01*
X108791666Y-48851904D01*
X108791666Y-48661428D01*
X108839285Y-48566190D01*
X108886904Y-48518571D01*
X108982142Y-48470952D01*
X138058333Y-60344761D02*
X137915476Y-60392380D01*
X137677380Y-60392380D01*
X137582142Y-60344761D01*
X137534523Y-60297142D01*
X137486904Y-60201904D01*
X137486904Y-60106666D01*
X137534523Y-60011428D01*
X137582142Y-59963809D01*
X137677380Y-59916190D01*
X137867857Y-59868571D01*
X137963095Y-59820952D01*
X138010714Y-59773333D01*
X138058333Y-59678095D01*
X138058333Y-59582857D01*
X138010714Y-59487619D01*
X137963095Y-59440000D01*
X137867857Y-59392380D01*
X137629761Y-59392380D01*
X137486904Y-59440000D01*
X137153571Y-59392380D02*
X136915476Y-60392380D01*
X136725000Y-59678095D01*
X136534523Y-60392380D01*
X136296428Y-59392380D01*
X135867857Y-60392380D02*
X135677380Y-60392380D01*
X135582142Y-60344761D01*
X135534523Y-60297142D01*
X135439285Y-60154285D01*
X135391666Y-59963809D01*
X135391666Y-59582857D01*
X135439285Y-59487619D01*
X135486904Y-59440000D01*
X135582142Y-59392380D01*
X135772619Y-59392380D01*
X135867857Y-59440000D01*
X135915476Y-59487619D01*
X135963095Y-59582857D01*
X135963095Y-59820952D01*
X135915476Y-59916190D01*
X135867857Y-59963809D01*
X135772619Y-60011428D01*
X135582142Y-60011428D01*
X135486904Y-59963809D01*
X135439285Y-59916190D01*
X135391666Y-59820952D01*
X156034523Y-113444761D02*
X155891666Y-113492380D01*
X155653571Y-113492380D01*
X155558333Y-113444761D01*
X155510714Y-113397142D01*
X155463095Y-113301904D01*
X155463095Y-113206666D01*
X155510714Y-113111428D01*
X155558333Y-113063809D01*
X155653571Y-113016190D01*
X155844047Y-112968571D01*
X155939285Y-112920952D01*
X155986904Y-112873333D01*
X156034523Y-112778095D01*
X156034523Y-112682857D01*
X155986904Y-112587619D01*
X155939285Y-112540000D01*
X155844047Y-112492380D01*
X155605952Y-112492380D01*
X155463095Y-112540000D01*
X155129761Y-112492380D02*
X154891666Y-113492380D01*
X154701190Y-112778095D01*
X154510714Y-113492380D01*
X154272619Y-112492380D01*
X153367857Y-113492380D02*
X153939285Y-113492380D01*
X153653571Y-113492380D02*
X153653571Y-112492380D01*
X153748809Y-112635238D01*
X153844047Y-112730476D01*
X153939285Y-112778095D01*
X152796428Y-112920952D02*
X152891666Y-112873333D01*
X152939285Y-112825714D01*
X152986904Y-112730476D01*
X152986904Y-112682857D01*
X152939285Y-112587619D01*
X152891666Y-112540000D01*
X152796428Y-112492380D01*
X152605952Y-112492380D01*
X152510714Y-112540000D01*
X152463095Y-112587619D01*
X152415476Y-112682857D01*
X152415476Y-112730476D01*
X152463095Y-112825714D01*
X152510714Y-112873333D01*
X152605952Y-112920952D01*
X152796428Y-112920952D01*
X152891666Y-112968571D01*
X152939285Y-113016190D01*
X152986904Y-113111428D01*
X152986904Y-113301904D01*
X152939285Y-113397142D01*
X152891666Y-113444761D01*
X152796428Y-113492380D01*
X152605952Y-113492380D01*
X152510714Y-113444761D01*
X152463095Y-113397142D01*
X152415476Y-113301904D01*
X152415476Y-113111428D01*
X152463095Y-113016190D01*
X152510714Y-112968571D01*
X152605952Y-112920952D01*
X173474523Y-48934761D02*
X173331666Y-48982380D01*
X173093571Y-48982380D01*
X172998333Y-48934761D01*
X172950714Y-48887142D01*
X172903095Y-48791904D01*
X172903095Y-48696666D01*
X172950714Y-48601428D01*
X172998333Y-48553809D01*
X173093571Y-48506190D01*
X173284047Y-48458571D01*
X173379285Y-48410952D01*
X173426904Y-48363333D01*
X173474523Y-48268095D01*
X173474523Y-48172857D01*
X173426904Y-48077619D01*
X173379285Y-48030000D01*
X173284047Y-47982380D01*
X173045952Y-47982380D01*
X172903095Y-48030000D01*
X172569761Y-47982380D02*
X172331666Y-48982380D01*
X172141190Y-48268095D01*
X171950714Y-48982380D01*
X171712619Y-47982380D01*
X170807857Y-48982380D02*
X171379285Y-48982380D01*
X171093571Y-48982380D02*
X171093571Y-47982380D01*
X171188809Y-48125238D01*
X171284047Y-48220476D01*
X171379285Y-48268095D01*
X170188809Y-47982380D02*
X170093571Y-47982380D01*
X169998333Y-48030000D01*
X169950714Y-48077619D01*
X169903095Y-48172857D01*
X169855476Y-48363333D01*
X169855476Y-48601428D01*
X169903095Y-48791904D01*
X169950714Y-48887142D01*
X169998333Y-48934761D01*
X170093571Y-48982380D01*
X170188809Y-48982380D01*
X170284047Y-48934761D01*
X170331666Y-48887142D01*
X170379285Y-48791904D01*
X170426904Y-48601428D01*
X170426904Y-48363333D01*
X170379285Y-48172857D01*
X170331666Y-48077619D01*
X170284047Y-48030000D01*
X170188809Y-47982380D01*
X200034523Y-37404761D02*
X199891666Y-37452380D01*
X199653571Y-37452380D01*
X199558333Y-37404761D01*
X199510714Y-37357142D01*
X199463095Y-37261904D01*
X199463095Y-37166666D01*
X199510714Y-37071428D01*
X199558333Y-37023809D01*
X199653571Y-36976190D01*
X199844047Y-36928571D01*
X199939285Y-36880952D01*
X199986904Y-36833333D01*
X200034523Y-36738095D01*
X200034523Y-36642857D01*
X199986904Y-36547619D01*
X199939285Y-36500000D01*
X199844047Y-36452380D01*
X199605952Y-36452380D01*
X199463095Y-36500000D01*
X199129761Y-36452380D02*
X198891666Y-37452380D01*
X198701190Y-36738095D01*
X198510714Y-37452380D01*
X198272619Y-36452380D01*
X197367857Y-37452380D02*
X197939285Y-37452380D01*
X197653571Y-37452380D02*
X197653571Y-36452380D01*
X197748809Y-36595238D01*
X197844047Y-36690476D01*
X197939285Y-36738095D01*
X196415476Y-37452380D02*
X196986904Y-37452380D01*
X196701190Y-37452380D02*
X196701190Y-36452380D01*
X196796428Y-36595238D01*
X196891666Y-36690476D01*
X196986904Y-36738095D01*
X229004523Y-37284761D02*
X228861666Y-37332380D01*
X228623571Y-37332380D01*
X228528333Y-37284761D01*
X228480714Y-37237142D01*
X228433095Y-37141904D01*
X228433095Y-37046666D01*
X228480714Y-36951428D01*
X228528333Y-36903809D01*
X228623571Y-36856190D01*
X228814047Y-36808571D01*
X228909285Y-36760952D01*
X228956904Y-36713333D01*
X229004523Y-36618095D01*
X229004523Y-36522857D01*
X228956904Y-36427619D01*
X228909285Y-36380000D01*
X228814047Y-36332380D01*
X228575952Y-36332380D01*
X228433095Y-36380000D01*
X228099761Y-36332380D02*
X227861666Y-37332380D01*
X227671190Y-36618095D01*
X227480714Y-37332380D01*
X227242619Y-36332380D01*
X226337857Y-37332380D02*
X226909285Y-37332380D01*
X226623571Y-37332380D02*
X226623571Y-36332380D01*
X226718809Y-36475238D01*
X226814047Y-36570476D01*
X226909285Y-36618095D01*
X225956904Y-36427619D02*
X225909285Y-36380000D01*
X225814047Y-36332380D01*
X225575952Y-36332380D01*
X225480714Y-36380000D01*
X225433095Y-36427619D01*
X225385476Y-36522857D01*
X225385476Y-36618095D01*
X225433095Y-36760952D01*
X226004523Y-37332380D01*
X225385476Y-37332380D01*
X257974523Y-37524761D02*
X257831666Y-37572380D01*
X257593571Y-37572380D01*
X257498333Y-37524761D01*
X257450714Y-37477142D01*
X257403095Y-37381904D01*
X257403095Y-37286666D01*
X257450714Y-37191428D01*
X257498333Y-37143809D01*
X257593571Y-37096190D01*
X257784047Y-37048571D01*
X257879285Y-37000952D01*
X257926904Y-36953333D01*
X257974523Y-36858095D01*
X257974523Y-36762857D01*
X257926904Y-36667619D01*
X257879285Y-36620000D01*
X257784047Y-36572380D01*
X257545952Y-36572380D01*
X257403095Y-36620000D01*
X257069761Y-36572380D02*
X256831666Y-37572380D01*
X256641190Y-36858095D01*
X256450714Y-37572380D01*
X256212619Y-36572380D01*
X255307857Y-37572380D02*
X255879285Y-37572380D01*
X255593571Y-37572380D02*
X255593571Y-36572380D01*
X255688809Y-36715238D01*
X255784047Y-36810476D01*
X255879285Y-36858095D01*
X254974523Y-36572380D02*
X254355476Y-36572380D01*
X254688809Y-36953333D01*
X254545952Y-36953333D01*
X254450714Y-37000952D01*
X254403095Y-37048571D01*
X254355476Y-37143809D01*
X254355476Y-37381904D01*
X254403095Y-37477142D01*
X254450714Y-37524761D01*
X254545952Y-37572380D01*
X254831666Y-37572380D01*
X254926904Y-37524761D01*
X254974523Y-37477142D01*
X167864523Y-79974761D02*
X167721666Y-80022380D01*
X167483571Y-80022380D01*
X167388333Y-79974761D01*
X167340714Y-79927142D01*
X167293095Y-79831904D01*
X167293095Y-79736666D01*
X167340714Y-79641428D01*
X167388333Y-79593809D01*
X167483571Y-79546190D01*
X167674047Y-79498571D01*
X167769285Y-79450952D01*
X167816904Y-79403333D01*
X167864523Y-79308095D01*
X167864523Y-79212857D01*
X167816904Y-79117619D01*
X167769285Y-79070000D01*
X167674047Y-79022380D01*
X167435952Y-79022380D01*
X167293095Y-79070000D01*
X166959761Y-79022380D02*
X166721666Y-80022380D01*
X166531190Y-79308095D01*
X166340714Y-80022380D01*
X166102619Y-79022380D01*
X165197857Y-80022380D02*
X165769285Y-80022380D01*
X165483571Y-80022380D02*
X165483571Y-79022380D01*
X165578809Y-79165238D01*
X165674047Y-79260476D01*
X165769285Y-79308095D01*
X164340714Y-79355714D02*
X164340714Y-80022380D01*
X164578809Y-78974761D02*
X164816904Y-79689047D01*
X164197857Y-79689047D01*
X194474523Y-68864761D02*
X194331666Y-68912380D01*
X194093571Y-68912380D01*
X193998333Y-68864761D01*
X193950714Y-68817142D01*
X193903095Y-68721904D01*
X193903095Y-68626666D01*
X193950714Y-68531428D01*
X193998333Y-68483809D01*
X194093571Y-68436190D01*
X194284047Y-68388571D01*
X194379285Y-68340952D01*
X194426904Y-68293333D01*
X194474523Y-68198095D01*
X194474523Y-68102857D01*
X194426904Y-68007619D01*
X194379285Y-67960000D01*
X194284047Y-67912380D01*
X194045952Y-67912380D01*
X193903095Y-67960000D01*
X193569761Y-67912380D02*
X193331666Y-68912380D01*
X193141190Y-68198095D01*
X192950714Y-68912380D01*
X192712619Y-67912380D01*
X191807857Y-68912380D02*
X192379285Y-68912380D01*
X192093571Y-68912380D02*
X192093571Y-67912380D01*
X192188809Y-68055238D01*
X192284047Y-68150476D01*
X192379285Y-68198095D01*
X190903095Y-67912380D02*
X191379285Y-67912380D01*
X191426904Y-68388571D01*
X191379285Y-68340952D01*
X191284047Y-68293333D01*
X191045952Y-68293333D01*
X190950714Y-68340952D01*
X190903095Y-68388571D01*
X190855476Y-68483809D01*
X190855476Y-68721904D01*
X190903095Y-68817142D01*
X190950714Y-68864761D01*
X191045952Y-68912380D01*
X191284047Y-68912380D01*
X191379285Y-68864761D01*
X191426904Y-68817142D01*
X223324523Y-68864761D02*
X223181666Y-68912380D01*
X222943571Y-68912380D01*
X222848333Y-68864761D01*
X222800714Y-68817142D01*
X222753095Y-68721904D01*
X222753095Y-68626666D01*
X222800714Y-68531428D01*
X222848333Y-68483809D01*
X222943571Y-68436190D01*
X223134047Y-68388571D01*
X223229285Y-68340952D01*
X223276904Y-68293333D01*
X223324523Y-68198095D01*
X223324523Y-68102857D01*
X223276904Y-68007619D01*
X223229285Y-67960000D01*
X223134047Y-67912380D01*
X222895952Y-67912380D01*
X222753095Y-67960000D01*
X222419761Y-67912380D02*
X222181666Y-68912380D01*
X221991190Y-68198095D01*
X221800714Y-68912380D01*
X221562619Y-67912380D01*
X220657857Y-68912380D02*
X221229285Y-68912380D01*
X220943571Y-68912380D02*
X220943571Y-67912380D01*
X221038809Y-68055238D01*
X221134047Y-68150476D01*
X221229285Y-68198095D01*
X219800714Y-67912380D02*
X219991190Y-67912380D01*
X220086428Y-67960000D01*
X220134047Y-68007619D01*
X220229285Y-68150476D01*
X220276904Y-68340952D01*
X220276904Y-68721904D01*
X220229285Y-68817142D01*
X220181666Y-68864761D01*
X220086428Y-68912380D01*
X219895952Y-68912380D01*
X219800714Y-68864761D01*
X219753095Y-68817142D01*
X219705476Y-68721904D01*
X219705476Y-68483809D01*
X219753095Y-68388571D01*
X219800714Y-68340952D01*
X219895952Y-68293333D01*
X220086428Y-68293333D01*
X220181666Y-68340952D01*
X220229285Y-68388571D01*
X220276904Y-68483809D01*
X252534523Y-68864761D02*
X252391666Y-68912380D01*
X252153571Y-68912380D01*
X252058333Y-68864761D01*
X252010714Y-68817142D01*
X251963095Y-68721904D01*
X251963095Y-68626666D01*
X252010714Y-68531428D01*
X252058333Y-68483809D01*
X252153571Y-68436190D01*
X252344047Y-68388571D01*
X252439285Y-68340952D01*
X252486904Y-68293333D01*
X252534523Y-68198095D01*
X252534523Y-68102857D01*
X252486904Y-68007619D01*
X252439285Y-67960000D01*
X252344047Y-67912380D01*
X252105952Y-67912380D01*
X251963095Y-67960000D01*
X251629761Y-67912380D02*
X251391666Y-68912380D01*
X251201190Y-68198095D01*
X251010714Y-68912380D01*
X250772619Y-67912380D01*
X249867857Y-68912380D02*
X250439285Y-68912380D01*
X250153571Y-68912380D02*
X250153571Y-67912380D01*
X250248809Y-68055238D01*
X250344047Y-68150476D01*
X250439285Y-68198095D01*
X249534523Y-67912380D02*
X248867857Y-67912380D01*
X249296428Y-68912380D01*
X82363333Y-48874761D02*
X82220476Y-48922380D01*
X81982380Y-48922380D01*
X81887142Y-48874761D01*
X81839523Y-48827142D01*
X81791904Y-48731904D01*
X81791904Y-48636666D01*
X81839523Y-48541428D01*
X81887142Y-48493809D01*
X81982380Y-48446190D01*
X82172857Y-48398571D01*
X82268095Y-48350952D01*
X82315714Y-48303333D01*
X82363333Y-48208095D01*
X82363333Y-48112857D01*
X82315714Y-48017619D01*
X82268095Y-47970000D01*
X82172857Y-47922380D01*
X81934761Y-47922380D01*
X81791904Y-47970000D01*
X81458571Y-47922380D02*
X81220476Y-48922380D01*
X81030000Y-48208095D01*
X80839523Y-48922380D01*
X80601428Y-47922380D01*
X80315714Y-47922380D02*
X79649047Y-47922380D01*
X80077619Y-48922380D01*
X62714523Y-72724761D02*
X62571666Y-72772380D01*
X62333571Y-72772380D01*
X62238333Y-72724761D01*
X62190714Y-72677142D01*
X62143095Y-72581904D01*
X62143095Y-72486666D01*
X62190714Y-72391428D01*
X62238333Y-72343809D01*
X62333571Y-72296190D01*
X62524047Y-72248571D01*
X62619285Y-72200952D01*
X62666904Y-72153333D01*
X62714523Y-72058095D01*
X62714523Y-71962857D01*
X62666904Y-71867619D01*
X62619285Y-71820000D01*
X62524047Y-71772380D01*
X62285952Y-71772380D01*
X62143095Y-71820000D01*
X61809761Y-71772380D02*
X61571666Y-72772380D01*
X61381190Y-72058095D01*
X61190714Y-72772380D01*
X60952619Y-71772380D01*
X60047857Y-72772380D02*
X60619285Y-72772380D01*
X60333571Y-72772380D02*
X60333571Y-71772380D01*
X60428809Y-71915238D01*
X60524047Y-72010476D01*
X60619285Y-72058095D01*
X59571666Y-72772380D02*
X59381190Y-72772380D01*
X59285952Y-72724761D01*
X59238333Y-72677142D01*
X59143095Y-72534285D01*
X59095476Y-72343809D01*
X59095476Y-71962857D01*
X59143095Y-71867619D01*
X59190714Y-71820000D01*
X59285952Y-71772380D01*
X59476428Y-71772380D01*
X59571666Y-71820000D01*
X59619285Y-71867619D01*
X59666904Y-71962857D01*
X59666904Y-72200952D01*
X59619285Y-72296190D01*
X59571666Y-72343809D01*
X59476428Y-72391428D01*
X59285952Y-72391428D01*
X59190714Y-72343809D01*
X59143095Y-72296190D01*
X59095476Y-72200952D01*
X103680000Y-52010000D02*
X104180000Y-52510000D01*
X108180000Y-54010000D02*
X108180000Y-54710000D01*
X104180000Y-52510000D02*
X106680000Y-52510000D01*
X108180000Y-54710000D02*
X112680000Y-54710000D01*
X103680000Y-48510000D02*
X104180000Y-48010000D01*
X112680000Y-50010000D02*
X108180000Y-50010000D01*
X104180000Y-48010000D02*
X107180000Y-48010000D01*
X112680000Y-54710000D02*
X112680000Y-54210000D01*
X112680000Y-50610000D02*
X112680000Y-50010000D01*
X107180000Y-48010000D02*
X107680000Y-48510000D01*
X107680000Y-49510000D02*
X107680000Y-48510000D01*
X108180000Y-54010000D02*
G75*
G03*
X106680000Y-52510000I-1500000J0D01*
G01*
X107680000Y-49510000D02*
G75*
G03*
X108180000Y-50010000I500000J0D01*
G01*
X139280000Y-66060000D02*
X139280000Y-65560000D01*
X134780000Y-65360000D02*
X134780000Y-66060000D01*
X139280000Y-61960000D02*
X139280000Y-61360000D01*
X134280000Y-60860000D02*
X134280000Y-59860000D01*
X130280000Y-59860000D02*
X130780000Y-59360000D01*
X133780000Y-59360000D02*
X134280000Y-59860000D01*
X134780000Y-66060000D02*
X139280000Y-66060000D01*
X130280000Y-63360000D02*
X130780000Y-63860000D01*
X130780000Y-63860000D02*
X133280000Y-63860000D01*
X139280000Y-61360000D02*
X134780000Y-61360000D01*
X130780000Y-59360000D02*
X133780000Y-59360000D01*
X134780000Y-65360000D02*
G75*
G03*
X133280000Y-63860000I-1500000J0D01*
G01*
X134280000Y-60860000D02*
G75*
G03*
X134780000Y-61360000I500000J0D01*
G01*
X148280000Y-116960000D02*
X150780000Y-116960000D01*
X156780000Y-114460000D02*
X152280000Y-114460000D01*
X152280000Y-119160000D02*
X156780000Y-119160000D01*
X156780000Y-119160000D02*
X156780000Y-118660000D01*
X151280000Y-112460000D02*
X151780000Y-112960000D01*
X152280000Y-118460000D02*
X152280000Y-119160000D01*
X148280000Y-112460000D02*
X151280000Y-112460000D01*
X151780000Y-113960000D02*
X151780000Y-112960000D01*
X156780000Y-115060000D02*
X156780000Y-114460000D01*
X147780000Y-116460000D02*
X148280000Y-116960000D01*
X147780000Y-112960000D02*
X148280000Y-112460000D01*
X151780000Y-113960000D02*
G75*
G03*
X152280000Y-114460000I500000J0D01*
G01*
X152280000Y-118460000D02*
G75*
G03*
X150780000Y-116960000I-1500000J0D01*
G01*
X168720000Y-47950000D02*
X169220000Y-48450000D01*
X165720000Y-47950000D02*
X168720000Y-47950000D01*
X169720000Y-54650000D02*
X174220000Y-54650000D01*
X174220000Y-54650000D02*
X174220000Y-54150000D01*
X165720000Y-52450000D02*
X168220000Y-52450000D01*
X174220000Y-50550000D02*
X174220000Y-49950000D01*
X169220000Y-49450000D02*
X169220000Y-48450000D01*
X169720000Y-53950000D02*
X169720000Y-54650000D01*
X165220000Y-51950000D02*
X165720000Y-52450000D01*
X165220000Y-48450000D02*
X165720000Y-47950000D01*
X174220000Y-49950000D02*
X169720000Y-49950000D01*
X169220000Y-49450000D02*
G75*
G03*
X169720000Y-49950000I500000J0D01*
G01*
X169720000Y-53950000D02*
G75*
G03*
X168220000Y-52450000I-1500000J0D01*
G01*
X191780000Y-36920000D02*
X192280000Y-36420000D01*
X200780000Y-38420000D02*
X196280000Y-38420000D01*
X195280000Y-36420000D02*
X195780000Y-36920000D01*
X191780000Y-40420000D02*
X192280000Y-40920000D01*
X192280000Y-36420000D02*
X195280000Y-36420000D01*
X200780000Y-39020000D02*
X200780000Y-38420000D01*
X195780000Y-37920000D02*
X195780000Y-36920000D01*
X192280000Y-40920000D02*
X194780000Y-40920000D01*
X196280000Y-42420000D02*
X196280000Y-43120000D01*
X200780000Y-43120000D02*
X200780000Y-42620000D01*
X196280000Y-43120000D02*
X200780000Y-43120000D01*
X195780000Y-37920000D02*
G75*
G03*
X196280000Y-38420000I500000J0D01*
G01*
X196280000Y-42420000D02*
G75*
G03*
X194780000Y-40920000I-1500000J0D01*
G01*
X225250000Y-42300000D02*
X225250000Y-43000000D01*
X221250000Y-40800000D02*
X223750000Y-40800000D01*
X220750000Y-40300000D02*
X221250000Y-40800000D01*
X229750000Y-38300000D02*
X225250000Y-38300000D01*
X221250000Y-36300000D02*
X224250000Y-36300000D01*
X224250000Y-36300000D02*
X224750000Y-36800000D01*
X229750000Y-38900000D02*
X229750000Y-38300000D01*
X225250000Y-43000000D02*
X229750000Y-43000000D01*
X220750000Y-36800000D02*
X221250000Y-36300000D01*
X229750000Y-43000000D02*
X229750000Y-42500000D01*
X224750000Y-37800000D02*
X224750000Y-36800000D01*
X224750000Y-37800000D02*
G75*
G03*
X225250000Y-38300000I500000J0D01*
G01*
X225250000Y-42300000D02*
G75*
G03*
X223750000Y-40800000I-1500000J0D01*
G01*
X250220000Y-36540000D02*
X253220000Y-36540000D01*
X254220000Y-42540000D02*
X254220000Y-43240000D01*
X249720000Y-40540000D02*
X250220000Y-41040000D01*
X258720000Y-43240000D02*
X258720000Y-42740000D01*
X249720000Y-37040000D02*
X250220000Y-36540000D01*
X258720000Y-39140000D02*
X258720000Y-38540000D01*
X254220000Y-43240000D02*
X258720000Y-43240000D01*
X250220000Y-41040000D02*
X252720000Y-41040000D01*
X253720000Y-38040000D02*
X253720000Y-37040000D01*
X258720000Y-38540000D02*
X254220000Y-38540000D01*
X253220000Y-36540000D02*
X253720000Y-37040000D01*
X253720000Y-38040000D02*
G75*
G03*
X254220000Y-38540000I500000J0D01*
G01*
X254220000Y-42540000D02*
G75*
G03*
X252720000Y-41040000I-1500000J0D01*
G01*
X159610000Y-82990000D02*
X160110000Y-83490000D01*
X168610000Y-85690000D02*
X168610000Y-85190000D01*
X160110000Y-78990000D02*
X163110000Y-78990000D01*
X163610000Y-80490000D02*
X163610000Y-79490000D01*
X168610000Y-80990000D02*
X164110000Y-80990000D01*
X164110000Y-85690000D02*
X168610000Y-85690000D01*
X163110000Y-78990000D02*
X163610000Y-79490000D01*
X159610000Y-79490000D02*
X160110000Y-78990000D01*
X160110000Y-83490000D02*
X162610000Y-83490000D01*
X168610000Y-81590000D02*
X168610000Y-80990000D01*
X164110000Y-84990000D02*
X164110000Y-85690000D01*
X164110000Y-84990000D02*
G75*
G03*
X162610000Y-83490000I-1500000J0D01*
G01*
X163610000Y-80490000D02*
G75*
G03*
X164110000Y-80990000I500000J0D01*
G01*
X186720000Y-72380000D02*
X189220000Y-72380000D01*
X195220000Y-70480000D02*
X195220000Y-69880000D01*
X190720000Y-74580000D02*
X195220000Y-74580000D01*
X190720000Y-73880000D02*
X190720000Y-74580000D01*
X186220000Y-68380000D02*
X186720000Y-67880000D01*
X195220000Y-69880000D02*
X190720000Y-69880000D01*
X195220000Y-74580000D02*
X195220000Y-74080000D01*
X186720000Y-67880000D02*
X189720000Y-67880000D01*
X186220000Y-71880000D02*
X186720000Y-72380000D01*
X189720000Y-67880000D02*
X190220000Y-68380000D01*
X190220000Y-69380000D02*
X190220000Y-68380000D01*
X190720000Y-73880000D02*
G75*
G03*
X189220000Y-72380000I-1500000J0D01*
G01*
X190220000Y-69380000D02*
G75*
G03*
X190720000Y-69880000I500000J0D01*
G01*
X224070000Y-74580000D02*
X224070000Y-74080000D01*
X218570000Y-67880000D02*
X219070000Y-68380000D01*
X215570000Y-67880000D02*
X218570000Y-67880000D01*
X215570000Y-72380000D02*
X218070000Y-72380000D01*
X224070000Y-70480000D02*
X224070000Y-69880000D01*
X224070000Y-69880000D02*
X219570000Y-69880000D01*
X219570000Y-74580000D02*
X224070000Y-74580000D01*
X215070000Y-71880000D02*
X215570000Y-72380000D01*
X219570000Y-73880000D02*
X219570000Y-74580000D01*
X215070000Y-68380000D02*
X215570000Y-67880000D01*
X219070000Y-69380000D02*
X219070000Y-68380000D01*
X219070000Y-69380000D02*
G75*
G03*
X219570000Y-69880000I500000J0D01*
G01*
X219570000Y-73880000D02*
G75*
G03*
X218070000Y-72380000I-1500000J0D01*
G01*
X247780000Y-67880000D02*
X248280000Y-68380000D01*
X253280000Y-74580000D02*
X253280000Y-74080000D01*
X248780000Y-74580000D02*
X253280000Y-74580000D01*
X244780000Y-72380000D02*
X247280000Y-72380000D01*
X253280000Y-70480000D02*
X253280000Y-69880000D01*
X244280000Y-68380000D02*
X244780000Y-67880000D01*
X244780000Y-67880000D02*
X247780000Y-67880000D01*
X244280000Y-71880000D02*
X244780000Y-72380000D01*
X253280000Y-69880000D02*
X248780000Y-69880000D01*
X248780000Y-73880000D02*
X248780000Y-74580000D01*
X248280000Y-69380000D02*
X248280000Y-68380000D01*
X248780000Y-73880000D02*
G75*
G03*
X247280000Y-72380000I-1500000J0D01*
G01*
X248280000Y-69380000D02*
G75*
G03*
X248780000Y-69880000I500000J0D01*
G01*
X75085000Y-52390000D02*
X77585000Y-52390000D01*
X83585000Y-50490000D02*
X83585000Y-49890000D01*
X83585000Y-49890000D02*
X79085000Y-49890000D01*
X75085000Y-47890000D02*
X78085000Y-47890000D01*
X79085000Y-53890000D02*
X79085000Y-54590000D01*
X78585000Y-49390000D02*
X78585000Y-48390000D01*
X83585000Y-54590000D02*
X83585000Y-54090000D01*
X79085000Y-54590000D02*
X83585000Y-54590000D01*
X74585000Y-48390000D02*
X75085000Y-47890000D01*
X74585000Y-51890000D02*
X75085000Y-52390000D01*
X78085000Y-47890000D02*
X78585000Y-48390000D01*
X79085000Y-53890000D02*
G75*
G03*
X77585000Y-52390000I-1500000J0D01*
G01*
X78585000Y-49390000D02*
G75*
G03*
X79085000Y-49890000I500000J0D01*
G01*
X148170000Y-21050000D02*
X153250000Y-21050000D01*
X135470000Y-51530000D02*
X135470000Y-21050000D01*
X140550000Y-21050000D02*
X140550000Y-18510000D01*
X140550000Y-18510000D02*
X148170000Y-18510000D01*
X153250000Y-21050000D02*
X153250000Y-51530000D01*
X148170000Y-18510000D02*
X148170000Y-21050000D01*
X135470000Y-21050000D02*
X140550000Y-21050000D01*
X153250000Y-51530000D02*
X135470000Y-51530000D01*
X63460000Y-78440000D02*
X63460000Y-77940000D01*
X54460000Y-72240000D02*
X54960000Y-71740000D01*
X58460000Y-73240000D02*
X58460000Y-72240000D01*
X54960000Y-76240000D02*
X57460000Y-76240000D01*
X54460000Y-75740000D02*
X54960000Y-76240000D01*
X58960000Y-78440000D02*
X63460000Y-78440000D01*
X54960000Y-71740000D02*
X57960000Y-71740000D01*
X58960000Y-77740000D02*
X58960000Y-78440000D01*
X63460000Y-74340000D02*
X63460000Y-73740000D01*
X63460000Y-73740000D02*
X58960000Y-73740000D01*
X57960000Y-71740000D02*
X58460000Y-72240000D01*
X58960000Y-77740000D02*
G75*
G03*
X57460000Y-76240000I-1500000J0D01*
G01*
X58460000Y-73240000D02*
G75*
G03*
X58960000Y-73740000I500000J0D01*
G01*
%LPC*%
D11*
X105680000Y-56210000D03*
D12*
X111180000Y-56210000D03*
D13*
X105680000Y-50260000D03*
X110680000Y-52460000D03*
D12*
X100180000Y-56210000D03*
D14*
X102405000Y-50260000D03*
D15*
X105680000Y-62110000D03*
X100680000Y-60010000D03*
D14*
X113955000Y-52460000D03*
D13*
X137280000Y-63810000D03*
D11*
X132280000Y-67560000D03*
D12*
X126780000Y-67560000D03*
D13*
X132280000Y-61610000D03*
D12*
X137780000Y-67560000D03*
D15*
X132280000Y-73460000D03*
D14*
X129005000Y-61610000D03*
D15*
X127280000Y-71360000D03*
D14*
X140555000Y-63810000D03*
D11*
X149780000Y-120660000D03*
D13*
X154780000Y-116910000D03*
D12*
X144280000Y-120660000D03*
X155280000Y-120660000D03*
D13*
X149780000Y-114710000D03*
D14*
X146505000Y-114710000D03*
D15*
X149780000Y-126560000D03*
D14*
X158055000Y-116910000D03*
D15*
X144780000Y-124460000D03*
D12*
X161720000Y-56150000D03*
X172720000Y-56150000D03*
D11*
X167220000Y-56150000D03*
D13*
X167220000Y-50200000D03*
X172220000Y-52400000D03*
D15*
X167220000Y-62050000D03*
D14*
X163945000Y-50200000D03*
D15*
X162220000Y-59950000D03*
D14*
X175495000Y-52400000D03*
D12*
X199280000Y-44620000D03*
X188280000Y-44620000D03*
D13*
X193780000Y-38670000D03*
D11*
X193780000Y-44620000D03*
D13*
X198780000Y-40870000D03*
D14*
X190505000Y-38670000D03*
D15*
X193780000Y-50520000D03*
D14*
X202055000Y-40870000D03*
D15*
X188780000Y-48420000D03*
D13*
X222750000Y-38550000D03*
D12*
X228250000Y-44500000D03*
D11*
X222750000Y-44500000D03*
D12*
X217250000Y-44500000D03*
D13*
X227750000Y-40750000D03*
D15*
X222750000Y-50400000D03*
D14*
X219475000Y-38550000D03*
D15*
X217750000Y-48300000D03*
D14*
X231025000Y-40750000D03*
D13*
X256720000Y-40990000D03*
X251720000Y-38790000D03*
D12*
X246220000Y-44740000D03*
X257220000Y-44740000D03*
D11*
X251720000Y-44740000D03*
D15*
X251720000Y-50640000D03*
D14*
X248445000Y-38790000D03*
D15*
X246720000Y-48540000D03*
D14*
X259995000Y-40990000D03*
D13*
X161610000Y-81240000D03*
X166610000Y-83440000D03*
D11*
X161610000Y-87190000D03*
D12*
X156110000Y-87190000D03*
X167110000Y-87190000D03*
D14*
X158335000Y-81240000D03*
D15*
X161610000Y-93090000D03*
X156610000Y-90990000D03*
D14*
X169885000Y-83440000D03*
D11*
X188220000Y-76080000D03*
D12*
X193720000Y-76080000D03*
X182720000Y-76080000D03*
D13*
X193220000Y-72330000D03*
X188220000Y-70130000D03*
D15*
X188220000Y-81980000D03*
D14*
X184945000Y-70130000D03*
X196495000Y-72330000D03*
D15*
X183220000Y-79880000D03*
D11*
X217070000Y-76080000D03*
D13*
X217070000Y-70130000D03*
D12*
X211570000Y-76080000D03*
D13*
X222070000Y-72330000D03*
D12*
X222570000Y-76080000D03*
D15*
X217070000Y-81980000D03*
D14*
X213795000Y-70130000D03*
X225345000Y-72330000D03*
D15*
X212070000Y-79880000D03*
D12*
X240780000Y-76080000D03*
D13*
X251280000Y-72330000D03*
D11*
X246280000Y-76080000D03*
D12*
X251780000Y-76080000D03*
D13*
X246280000Y-70130000D03*
D14*
X243005000Y-70130000D03*
D15*
X246280000Y-81980000D03*
D14*
X254555000Y-72330000D03*
D15*
X241280000Y-79880000D03*
D16*
X29225000Y-28040000D03*
X29225000Y-271959466D03*
X280655000Y-271959466D03*
X280655000Y-28040000D03*
D12*
X71085000Y-56090000D03*
X82085000Y-56090000D03*
D13*
X81585000Y-52340000D03*
D11*
X76585000Y-56090000D03*
D13*
X76585000Y-50140000D03*
D15*
X76585000Y-61990000D03*
D14*
X73310000Y-50140000D03*
D15*
X71585000Y-59890000D03*
D14*
X84860000Y-52340000D03*
D16*
X168360000Y-28040000D03*
D17*
X106860000Y-27540000D03*
X106860000Y-34040000D03*
X111360000Y-27540000D03*
X111360000Y-34040000D03*
X83860000Y-34040000D03*
X83860000Y-27540000D03*
X88360000Y-27540000D03*
X88360000Y-34040000D03*
X116860000Y-34040000D03*
X116860000Y-27540000D03*
X121360000Y-27540000D03*
X121360000Y-34040000D03*
X73860000Y-27540000D03*
X73860000Y-34040000D03*
X78360000Y-34040000D03*
X78360000Y-27540000D03*
X93860000Y-27540000D03*
X93860000Y-34040000D03*
X98360000Y-27540000D03*
X98360000Y-34040000D03*
X126860000Y-27540000D03*
X126860000Y-34040000D03*
X131360000Y-27540000D03*
X131360000Y-34040000D03*
D16*
X151860000Y-69040000D03*
X168360000Y-271959466D03*
D18*
X136740000Y-22320000D03*
D19*
X136740000Y-24860000D03*
X136740000Y-27400000D03*
X136740000Y-29940000D03*
X136740000Y-32480000D03*
X136740000Y-35020000D03*
X136740000Y-37560000D03*
X136740000Y-40100000D03*
X136740000Y-42640000D03*
X136740000Y-45180000D03*
X136740000Y-47720000D03*
X136740000Y-50260000D03*
X151980000Y-50260000D03*
X151980000Y-47720000D03*
X151980000Y-45180000D03*
X151980000Y-42640000D03*
X151980000Y-40100000D03*
X151980000Y-37560000D03*
X151980000Y-35020000D03*
X151980000Y-32480000D03*
X151980000Y-29940000D03*
X151980000Y-27400000D03*
X151980000Y-24860000D03*
X151980000Y-22320000D03*
D11*
X56460000Y-79940000D03*
D12*
X50960000Y-79940000D03*
X61960000Y-79940000D03*
D13*
X56460000Y-73990000D03*
X61460000Y-76190000D03*
D14*
X53185000Y-73990000D03*
D15*
X56460000Y-85840000D03*
X51460000Y-83740000D03*
D14*
X64735000Y-76190000D03*
M02*
